<svg xmlns="http://www.w3.org/2000/svg" xmlns:xlink="http://www.w3.org/1999/xlink" width="1920" zoomAndPan="magnify" viewBox="0 0 1440 809.999993" height="1080" preserveAspectRatio="xMidYMid meet" version="1.0"><defs><clipPath id="3d74111af4"><path d="M 0 168.375 L 1440 168.375 L 1440 650.285156 L 0 650.285156 Z M 0 168.375 " clip-rule="nonzero"/></clipPath><clipPath id="9ab19e73ce"><path d="M 0 13.652344 L 1440 13.652344 L 1440 338.5625 L 0 338.5625 Z M 0 13.652344 " clip-rule="nonzero"/></clipPath><clipPath id="cf73b82076"><path d="M 710.941406 13.652344 L 1440 176.109375 L 710.941406 338.5625 L -18.113281 176.109375 Z M 710.941406 13.652344 " clip-rule="nonzero"/></clipPath><clipPath id="3dbe59d4d6"><path d="M 0 481.003906 L 1440 481.003906 L 1440 796.347656 L 0 796.347656 Z M 0 481.003906 " clip-rule="nonzero"/></clipPath><clipPath id="4e4b8387c8"><path d="M 720 481.003906 L 1449.058594 638.675781 L 720 796.347656 L -9.058594 638.675781 Z M 720 481.003906 " clip-rule="nonzero"/></clipPath></defs><g clip-path="url(#3d74111af4)"><path fill="#fddd62" d="M -190.132812 168.375 L 1569.96875 168.375 L 1569.96875 650.285156 L -190.132812 650.285156 Z M -190.132812 168.375 " fill-opacity="1" fill-rule="nonzero"/></g><g clip-path="url(#9ab19e73ce)"><g clip-path="url(#cf73b82076)"><path fill="#fddd62" d="M -18.113281 13.652344 L 1440.179688 13.652344 L 1440.179688 338.5625 L -18.113281 338.5625 Z M -18.113281 13.652344 " fill-opacity="1" fill-rule="nonzero"/></g></g><g clip-path="url(#3dbe59d4d6)"><g clip-path="url(#4e4b8387c8)"><path fill="#fddd62" d="M -9.058594 481.003906 L 1449.417969 481.003906 L 1449.417969 796.347656 L -9.058594 796.347656 Z M -9.058594 481.003906 " fill-opacity="1" fill-rule="nonzero"/></g></g></svg>