<svg xmlns="http://www.w3.org/2000/svg" xmlns:xlink="http://www.w3.org/1999/xlink" width="100" zoomAndPan="magnify" viewBox="0 0 75 30.000001" height="40" preserveAspectRatio="xMidYMid meet" version="1.0"><defs><g/><clipPath id="87b31a0e4b"><path d="M 1.210938 10 L 7 10 L 7 19 L 1.210938 19 Z M 1.210938 10 " clip-rule="nonzero"/></clipPath><clipPath id="c205c3ecfb"><path d="M 67 11 L 73.789062 11 L 73.789062 19 L 67 19 Z M 67 11 " clip-rule="nonzero"/></clipPath></defs><g clip-path="url(#87b31a0e4b)"><g fill="#ffffff" fill-opacity="1"><g transform="translate(1.209676, 18.343914)"><g><path d="M 2.5 0.140625 C 1.9375 0.140625 1.421875 0.0351562 0.953125 -0.171875 C 0.492188 -0.378906 0.113281 -0.675781 -0.1875 -1.0625 L 0.875 -2.328125 C 1.320312 -1.722656 1.832031 -1.421875 2.40625 -1.421875 C 3.175781 -1.421875 3.5625 -1.878906 3.5625 -2.796875 L 3.5625 -6.71875 L 0.671875 -6.71875 L 0.671875 -8.25 L 5.46875 -8.25 L 5.46875 -2.890625 C 5.46875 -1.878906 5.210938 -1.117188 4.703125 -0.609375 C 4.203125 -0.109375 3.46875 0.140625 2.5 0.140625 Z M 2.5 0.140625 "/></g></g></g></g><g fill="#ffffff" fill-opacity="1"><g transform="translate(7.581457, 18.343914)"><g><path d="M 3.859375 0.09375 C 3.191406 0.09375 2.59375 -0.046875 2.0625 -0.328125 C 1.53125 -0.609375 1.113281 -0.992188 0.8125 -1.484375 C 0.519531 -1.984375 0.375 -2.546875 0.375 -3.171875 C 0.375 -3.796875 0.519531 -4.351562 0.8125 -4.84375 C 1.113281 -5.34375 1.53125 -5.734375 2.0625 -6.015625 C 2.59375 -6.296875 3.191406 -6.4375 3.859375 -6.4375 C 4.523438 -6.4375 5.117188 -6.296875 5.640625 -6.015625 C 6.171875 -5.734375 6.585938 -5.34375 6.890625 -4.84375 C 7.191406 -4.351562 7.34375 -3.796875 7.34375 -3.171875 C 7.34375 -2.546875 7.191406 -1.984375 6.890625 -1.484375 C 6.585938 -0.992188 6.171875 -0.609375 5.640625 -0.328125 C 5.117188 -0.046875 4.523438 0.09375 3.859375 0.09375 Z M 3.859375 -1.40625 C 4.335938 -1.40625 4.726562 -1.566406 5.03125 -1.890625 C 5.332031 -2.210938 5.484375 -2.640625 5.484375 -3.171875 C 5.484375 -3.703125 5.332031 -4.125 5.03125 -4.4375 C 4.726562 -4.757812 4.335938 -4.921875 3.859375 -4.921875 C 3.390625 -4.921875 3 -4.757812 2.6875 -4.4375 C 2.382812 -4.125 2.234375 -3.703125 2.234375 -3.171875 C 2.234375 -2.640625 2.382812 -2.210938 2.6875 -1.890625 C 3 -1.566406 3.390625 -1.40625 3.859375 -1.40625 Z M 3.859375 -1.40625 "/></g></g></g><g fill="#ffffff" fill-opacity="1"><g transform="translate(15.295906, 18.343914)"><g><path d="M 2.984375 0.09375 C 2.453125 0.09375 1.9375 0.03125 1.4375 -0.09375 C 0.9375 -0.226562 0.535156 -0.394531 0.234375 -0.59375 L 0.84375 -1.90625 C 1.125 -1.726562 1.460938 -1.582031 1.859375 -1.46875 C 2.265625 -1.351562 2.660156 -1.296875 3.046875 -1.296875 C 3.828125 -1.296875 4.21875 -1.488281 4.21875 -1.875 C 4.21875 -2.050781 4.109375 -2.175781 3.890625 -2.25 C 3.679688 -2.332031 3.359375 -2.40625 2.921875 -2.46875 C 2.398438 -2.539062 1.96875 -2.628906 1.625 -2.734375 C 1.289062 -2.835938 1 -3.015625 0.75 -3.265625 C 0.507812 -3.523438 0.390625 -3.894531 0.390625 -4.375 C 0.390625 -4.78125 0.503906 -5.140625 0.734375 -5.453125 C 0.960938 -5.765625 1.300781 -6.003906 1.75 -6.171875 C 2.195312 -6.347656 2.722656 -6.4375 3.328125 -6.4375 C 3.773438 -6.4375 4.21875 -6.382812 4.65625 -6.28125 C 5.101562 -6.1875 5.472656 -6.050781 5.765625 -5.875 L 5.140625 -4.578125 C 4.585938 -4.890625 3.984375 -5.046875 3.328125 -5.046875 C 2.929688 -5.046875 2.632812 -4.988281 2.4375 -4.875 C 2.238281 -4.769531 2.140625 -4.628906 2.140625 -4.453125 C 2.140625 -4.253906 2.242188 -4.113281 2.453125 -4.03125 C 2.671875 -3.957031 3.007812 -3.882812 3.46875 -3.8125 C 3.988281 -3.726562 4.414062 -3.632812 4.75 -3.53125 C 5.082031 -3.4375 5.367188 -3.257812 5.609375 -3 C 5.847656 -2.738281 5.96875 -2.378906 5.96875 -1.921875 C 5.96875 -1.523438 5.847656 -1.171875 5.609375 -0.859375 C 5.378906 -0.554688 5.035156 -0.320312 4.578125 -0.15625 C 4.128906 0.0078125 3.597656 0.09375 2.984375 0.09375 Z M 2.984375 0.09375 "/></g></g></g><g fill="#ffffff" fill-opacity="1"><g transform="translate(21.549906, 18.343914)"><g><path d="M 7.0625 -3.140625 C 7.0625 -3.117188 7.046875 -2.957031 7.015625 -2.65625 L 2.234375 -2.65625 C 2.316406 -2.257812 2.519531 -1.945312 2.84375 -1.71875 C 3.164062 -1.488281 3.566406 -1.375 4.046875 -1.375 C 4.367188 -1.375 4.65625 -1.421875 4.90625 -1.515625 C 5.164062 -1.617188 5.40625 -1.773438 5.625 -1.984375 L 6.609375 -0.9375 C 6.015625 -0.25 5.144531 0.09375 4 0.09375 C 3.28125 0.09375 2.644531 -0.046875 2.09375 -0.328125 C 1.539062 -0.609375 1.113281 -0.992188 0.8125 -1.484375 C 0.519531 -1.984375 0.375 -2.546875 0.375 -3.171875 C 0.375 -3.785156 0.519531 -4.34375 0.8125 -4.84375 C 1.113281 -5.34375 1.519531 -5.734375 2.03125 -6.015625 C 2.539062 -6.296875 3.117188 -6.4375 3.765625 -6.4375 C 4.378906 -6.4375 4.9375 -6.300781 5.4375 -6.03125 C 5.945312 -5.757812 6.34375 -5.375 6.625 -4.875 C 6.914062 -4.382812 7.0625 -3.804688 7.0625 -3.140625 Z M 3.765625 -5.046875 C 3.347656 -5.046875 3 -4.925781 2.71875 -4.6875 C 2.4375 -4.445312 2.265625 -4.125 2.203125 -3.71875 L 5.328125 -3.71875 C 5.265625 -4.125 5.085938 -4.445312 4.796875 -4.6875 C 4.515625 -4.925781 4.171875 -5.046875 3.765625 -5.046875 Z M 3.765625 -5.046875 "/></g></g></g><g fill="#ffdc53" fill-opacity="1"><g transform="translate(28.984103, 18.343914)"><g><path d="M 3.6875 0.140625 C 3.03125 0.140625 2.398438 0.0507812 1.796875 -0.125 C 1.191406 -0.300781 0.703125 -0.53125 0.328125 -0.8125 L 0.984375 -2.25 C 1.335938 -1.988281 1.753906 -1.78125 2.234375 -1.625 C 2.722656 -1.46875 3.210938 -1.390625 3.703125 -1.390625 C 4.242188 -1.390625 4.644531 -1.46875 4.90625 -1.625 C 5.164062 -1.789062 5.296875 -2.007812 5.296875 -2.28125 C 5.296875 -2.46875 5.21875 -2.625 5.0625 -2.75 C 4.90625 -2.882812 4.707031 -2.988281 4.46875 -3.0625 C 4.226562 -3.144531 3.90625 -3.234375 3.5 -3.328125 C 2.875 -3.484375 2.359375 -3.632812 1.953125 -3.78125 C 1.554688 -3.925781 1.210938 -4.164062 0.921875 -4.5 C 0.640625 -4.832031 0.5 -5.269531 0.5 -5.8125 C 0.5 -6.289062 0.625 -6.722656 0.875 -7.109375 C 1.132812 -7.503906 1.523438 -7.816406 2.046875 -8.046875 C 2.578125 -8.273438 3.21875 -8.390625 3.96875 -8.390625 C 4.5 -8.390625 5.015625 -8.328125 5.515625 -8.203125 C 6.015625 -8.078125 6.453125 -7.894531 6.828125 -7.65625 L 6.25 -6.203125 C 5.476562 -6.640625 4.710938 -6.859375 3.953125 -6.859375 C 3.421875 -6.859375 3.023438 -6.769531 2.765625 -6.59375 C 2.515625 -6.425781 2.390625 -6.203125 2.390625 -5.921875 C 2.390625 -5.628906 2.535156 -5.414062 2.828125 -5.28125 C 3.128906 -5.144531 3.582031 -5.007812 4.1875 -4.875 C 4.8125 -4.726562 5.320312 -4.578125 5.71875 -4.421875 C 6.125 -4.273438 6.46875 -4.039062 6.75 -3.71875 C 7.039062 -3.394531 7.1875 -2.960938 7.1875 -2.421875 C 7.1875 -1.941406 7.050781 -1.507812 6.78125 -1.125 C 6.519531 -0.738281 6.125 -0.429688 5.59375 -0.203125 C 5.070312 0.0234375 4.4375 0.140625 3.6875 0.140625 Z M 3.6875 0.140625 "/></g></g></g><g fill="#ffdc53" fill-opacity="1"><g transform="translate(36.498326, 18.343914)"><g><path d="M 3.859375 0.09375 C 3.191406 0.09375 2.59375 -0.046875 2.0625 -0.328125 C 1.53125 -0.609375 1.113281 -0.992188 0.8125 -1.484375 C 0.519531 -1.984375 0.375 -2.546875 0.375 -3.171875 C 0.375 -3.796875 0.519531 -4.351562 0.8125 -4.84375 C 1.113281 -5.34375 1.53125 -5.734375 2.0625 -6.015625 C 2.59375 -6.296875 3.191406 -6.4375 3.859375 -6.4375 C 4.523438 -6.4375 5.117188 -6.296875 5.640625 -6.015625 C 6.171875 -5.734375 6.585938 -5.34375 6.890625 -4.84375 C 7.191406 -4.351562 7.34375 -3.796875 7.34375 -3.171875 C 7.34375 -2.546875 7.191406 -1.984375 6.890625 -1.484375 C 6.585938 -0.992188 6.171875 -0.609375 5.640625 -0.328125 C 5.117188 -0.046875 4.523438 0.09375 3.859375 0.09375 Z M 3.859375 -1.40625 C 4.335938 -1.40625 4.726562 -1.566406 5.03125 -1.890625 C 5.332031 -2.210938 5.484375 -2.640625 5.484375 -3.171875 C 5.484375 -3.703125 5.332031 -4.125 5.03125 -4.4375 C 4.726562 -4.757812 4.335938 -4.921875 3.859375 -4.921875 C 3.390625 -4.921875 3 -4.757812 2.6875 -4.4375 C 2.382812 -4.125 2.234375 -3.703125 2.234375 -3.171875 C 2.234375 -2.640625 2.382812 -2.210938 2.6875 -1.890625 C 3 -1.566406 3.390625 -1.40625 3.859375 -1.40625 Z M 3.859375 -1.40625 "/></g></g></g><g fill="#ffdc53" fill-opacity="1"><g transform="translate(44.212775, 18.343914)"><g><path d="M 0.84375 -8.734375 L 2.6875 -8.734375 L 2.6875 0 L 0.84375 0 Z M 0.84375 -8.734375 "/></g></g></g><g fill="#ffdc53" fill-opacity="1"><g transform="translate(47.757889, 18.343914)"><g><path d="M 3.40625 -6.4375 C 4.382812 -6.4375 5.132812 -6.203125 5.65625 -5.734375 C 6.1875 -5.265625 6.453125 -4.554688 6.453125 -3.609375 L 6.453125 0 L 4.734375 0 L 4.734375 -0.796875 C 4.390625 -0.203125 3.742188 0.09375 2.796875 0.09375 C 2.316406 0.09375 1.894531 0.0078125 1.53125 -0.15625 C 1.175781 -0.320312 0.90625 -0.546875 0.71875 -0.828125 C 0.53125 -1.117188 0.4375 -1.453125 0.4375 -1.828125 C 0.4375 -2.410156 0.65625 -2.867188 1.09375 -3.203125 C 1.539062 -3.546875 2.226562 -3.71875 3.15625 -3.71875 L 4.625 -3.71875 C 4.625 -4.125 4.5 -4.429688 4.25 -4.640625 C 4.007812 -4.859375 3.644531 -4.96875 3.15625 -4.96875 C 2.820312 -4.96875 2.488281 -4.914062 2.15625 -4.8125 C 1.832031 -4.707031 1.554688 -4.5625 1.328125 -4.375 L 0.671875 -5.671875 C 1.015625 -5.910156 1.425781 -6.097656 1.90625 -6.234375 C 2.394531 -6.367188 2.894531 -6.4375 3.40625 -6.4375 Z M 3.265625 -1.140625 C 3.578125 -1.140625 3.851562 -1.210938 4.09375 -1.359375 C 4.34375 -1.503906 4.519531 -1.71875 4.625 -2 L 4.625 -2.65625 L 3.359375 -2.65625 C 2.609375 -2.65625 2.234375 -2.40625 2.234375 -1.90625 C 2.234375 -1.675781 2.320312 -1.488281 2.5 -1.34375 C 2.6875 -1.207031 2.941406 -1.140625 3.265625 -1.140625 Z M 3.265625 -1.140625 "/></g></g></g><g fill="#ffdc53" fill-opacity="1"><g transform="translate(55.02478, 18.343914)"><g><path d="M 2.609375 -5.5 C 2.828125 -5.8125 3.117188 -6.046875 3.484375 -6.203125 C 3.859375 -6.359375 4.289062 -6.4375 4.78125 -6.4375 L 4.78125 -4.734375 C 4.582031 -4.753906 4.445312 -4.765625 4.375 -4.765625 C 3.84375 -4.765625 3.425781 -4.613281 3.125 -4.3125 C 2.832031 -4.019531 2.6875 -3.582031 2.6875 -3 L 2.6875 0 L 0.84375 0 L 0.84375 -6.34375 L 2.609375 -6.34375 Z M 2.609375 -5.5 "/></g></g></g><g fill="#ffdc53" fill-opacity="1"><g transform="translate(60.101005, 18.343914)"><g><path d="M 7.0625 -3.140625 C 7.0625 -3.117188 7.046875 -2.957031 7.015625 -2.65625 L 2.234375 -2.65625 C 2.316406 -2.257812 2.519531 -1.945312 2.84375 -1.71875 C 3.164062 -1.488281 3.566406 -1.375 4.046875 -1.375 C 4.367188 -1.375 4.65625 -1.421875 4.90625 -1.515625 C 5.164062 -1.617188 5.40625 -1.773438 5.625 -1.984375 L 6.609375 -0.9375 C 6.015625 -0.25 5.144531 0.09375 4 0.09375 C 3.28125 0.09375 2.644531 -0.046875 2.09375 -0.328125 C 1.539062 -0.609375 1.113281 -0.992188 0.8125 -1.484375 C 0.519531 -1.984375 0.375 -2.546875 0.375 -3.171875 C 0.375 -3.785156 0.519531 -4.34375 0.8125 -4.84375 C 1.113281 -5.34375 1.519531 -5.734375 2.03125 -6.015625 C 2.539062 -6.296875 3.117188 -6.4375 3.765625 -6.4375 C 4.378906 -6.4375 4.9375 -6.300781 5.4375 -6.03125 C 5.945312 -5.757812 6.34375 -5.375 6.625 -4.875 C 6.914062 -4.382812 7.0625 -3.804688 7.0625 -3.140625 Z M 3.765625 -5.046875 C 3.347656 -5.046875 3 -4.925781 2.71875 -4.6875 C 2.4375 -4.445312 2.265625 -4.125 2.203125 -3.71875 L 5.328125 -3.71875 C 5.265625 -4.125 5.085938 -4.445312 4.796875 -4.6875 C 4.515625 -4.925781 4.171875 -5.046875 3.765625 -5.046875 Z M 3.765625 -5.046875 "/></g></g></g><g clip-path="url(#c205c3ecfb)"><g fill="#ffdc53" fill-opacity="1"><g transform="translate(67.532785, 18.343914)"><g><path d="M 2.984375 0.09375 C 2.453125 0.09375 1.9375 0.03125 1.4375 -0.09375 C 0.9375 -0.226562 0.535156 -0.394531 0.234375 -0.59375 L 0.84375 -1.90625 C 1.125 -1.726562 1.460938 -1.582031 1.859375 -1.46875 C 2.265625 -1.351562 2.660156 -1.296875 3.046875 -1.296875 C 3.828125 -1.296875 4.21875 -1.488281 4.21875 -1.875 C 4.21875 -2.050781 4.109375 -2.175781 3.890625 -2.25 C 3.679688 -2.332031 3.359375 -2.40625 2.921875 -2.46875 C 2.398438 -2.539062 1.96875 -2.628906 1.625 -2.734375 C 1.289062 -2.835938 1 -3.015625 0.75 -3.265625 C 0.507812 -3.523438 0.390625 -3.894531 0.390625 -4.375 C 0.390625 -4.78125 0.503906 -5.140625 0.734375 -5.453125 C 0.960938 -5.765625 1.300781 -6.003906 1.75 -6.171875 C 2.195312 -6.347656 2.722656 -6.4375 3.328125 -6.4375 C 3.773438 -6.4375 4.21875 -6.382812 4.65625 -6.28125 C 5.101562 -6.1875 5.472656 -6.050781 5.765625 -5.875 L 5.140625 -4.578125 C 4.585938 -4.890625 3.984375 -5.046875 3.328125 -5.046875 C 2.929688 -5.046875 2.632812 -4.988281 2.4375 -4.875 C 2.238281 -4.769531 2.140625 -4.628906 2.140625 -4.453125 C 2.140625 -4.253906 2.242188 -4.113281 2.453125 -4.03125 C 2.671875 -3.957031 3.007812 -3.882812 3.46875 -3.8125 C 3.988281 -3.726562 4.414062 -3.632812 4.75 -3.53125 C 5.082031 -3.4375 5.367188 -3.257812 5.609375 -3 C 5.847656 -2.738281 5.96875 -2.378906 5.96875 -1.921875 C 5.96875 -1.523438 5.847656 -1.171875 5.609375 -0.859375 C 5.378906 -0.554688 5.035156 -0.320312 4.578125 -0.15625 C 4.128906 0.0078125 3.597656 0.09375 2.984375 0.09375 Z M 2.984375 0.09375 "/></g></g></g></g></svg>