<svg xmlns="http://www.w3.org/2000/svg" xmlns:xlink="http://www.w3.org/1999/xlink"   width="1080"  viewBox="5 0 800 37.5" height="50" preserveAspectRatio="none" version="1.0"><defs><clipPath id="139db90302"><path d="M 452.019531 0 L 804.671875 0 L 804.671875 37.007812 L 452.019531 37.007812 Z M 452.019531 0 " clip-rule="nonzero"/></clipPath><clipPath id="b00500717f"><path d="M 650.214844 -0.109375 C 540.753906 -0.109375 452.019531 11.421875 452.019531 25.648438 C 452.019531 39.875 540.753906 51.40625 650.214844 51.40625 C 759.671875 51.40625 848.40625 39.875 848.40625 25.648438 C 848.40625 11.421875 759.671875 -0.109375 650.214844 -0.109375 Z M 650.214844 -0.109375 " clip-rule="nonzero"/></clipPath><clipPath id="4a360bc0e1"><path d="M 458.355469 3.699219 L 804.671875 3.699219 L 804.671875 37.007812 L 458.355469 37.007812 Z M 458.355469 3.699219 " clip-rule="nonzero"/></clipPath><clipPath id="3752d81774"><path d="M 656.546875 3.699219 C 547.089844 3.699219 458.355469 15.234375 458.355469 29.460938 C 458.355469 43.6875 547.089844 55.21875 656.546875 55.21875 C 766.007812 55.21875 854.742188 43.6875 854.742188 29.460938 C 854.742188 15.234375 766.007812 3.699219 656.546875 3.699219 Z M 656.546875 3.699219 " clip-rule="nonzero"/></clipPath><clipPath id="2b1ce590d6"><path d="M 286.71875 3.476562 L 492.996094 3.476562 L 492.996094 37.007812 L 286.71875 37.007812 Z M 286.71875 3.476562 " clip-rule="nonzero"/></clipPath><clipPath id="269fb01625"><path d="M 389.808594 3.476562 C 332.875 3.476562 286.71875 10.984375 286.71875 20.242188 C 286.71875 29.5 332.875 37.007812 389.808594 37.007812 C 446.742188 37.007812 492.898438 29.5 492.898438 20.242188 C 492.898438 10.984375 446.742188 3.476562 389.808594 3.476562 Z M 389.808594 3.476562 " clip-rule="nonzero"/></clipPath><clipPath id="a139149990"><path d="M 279.117188 8.882812 L 500.585938 8.882812 L 500.585938 37.007812 L 279.117188 37.007812 Z M 279.117188 8.882812 " clip-rule="nonzero"/></clipPath><clipPath id="b2513171b8"><path d="M 389.808594 8.882812 C 328.675781 8.882812 279.117188 16.390625 279.117188 25.648438 C 279.117188 34.90625 328.675781 42.410156 389.808594 42.410156 C 450.941406 42.410156 500.5 34.90625 500.5 25.648438 C 500.5 16.390625 450.941406 8.882812 389.808594 8.882812 Z M 389.808594 8.882812 " clip-rule="nonzero"/></clipPath><clipPath id="0aa4af18ab"><path d="M 5.328125 8.882812 L 348.171875 8.882812 L 348.171875 37.007812 L 5.328125 37.007812 Z M 5.328125 8.882812 " clip-rule="nonzero"/></clipPath><clipPath id="e160d826c5"><path d="M 168.015625 8.882812 C 68.527344 8.882812 -12.125 16.390625 -12.125 25.648438 C -12.125 34.90625 68.527344 42.410156 168.015625 42.410156 C 267.503906 42.410156 348.15625 34.90625 348.15625 25.648438 C 348.15625 16.390625 267.503906 8.882812 168.015625 8.882812 Z M 168.015625 8.882812 " clip-rule="nonzero"/></clipPath><clipPath id="a83fcfc785"><path d="M 5.328125 12.695312 L 354.503906 12.695312 L 354.503906 37.007812 L 5.328125 37.007812 Z M 5.328125 12.695312 " clip-rule="nonzero"/></clipPath><clipPath id="575575e28b"><path d="M 171.183594 12.695312 C 69.945312 12.695312 -12.125 20.332031 -12.125 29.753906 C -12.125 39.175781 69.945312 46.8125 171.183594 46.8125 C 272.421875 46.8125 354.492188 39.175781 354.492188 29.753906 C 354.492188 20.332031 272.421875 12.695312 171.183594 12.695312 Z M 171.183594 12.695312 " clip-rule="nonzero"/></clipPath></defs><g clip-path="url(#139db90302)"><g clip-path="url(#b00500717f)"><path fill="#dfa700" d="M 452.019531 -0.109375 L 848.46875 -0.109375 L 848.46875 51.40625 L 452.019531 51.40625 Z M 452.019531 -0.109375 " fill-opacity="1" fill-rule="nonzero"/></g></g><g clip-path="url(#4a360bc0e1)"><g clip-path="url(#3752d81774)"><path fill="#ffDF61" d="M 458.355469 3.699219 L 854.800781 3.699219 L 854.800781 55.21875 L 458.355469 55.21875 Z M 458.355469 3.699219 " fill-opacity="1" fill-rule="nonzero"/></g></g><g clip-path="url(#2b1ce590d6)"><g clip-path="url(#269fb01625)"><path fill="#dfa700" d="M 286.71875 3.476562 L 492.863281 3.476562 L 492.863281 37.007812 L 286.71875 37.007812 Z M 286.71875 3.476562 " fill-opacity="1" fill-rule="nonzero"/></g></g><g clip-path="url(#a139149990)"><g clip-path="url(#b2513171b8)"><path fill="#ffDF61" d="M 279.117188 8.882812 L 500.457031 8.882812 L 500.457031 42.410156 L 279.117188 42.410156 Z M 279.117188 8.882812 " fill-opacity="1" fill-rule="nonzero"/></g></g><g clip-path="url(#0aa4af18ab)"><g clip-path="url(#e160d826c5)"><path fill="#dfa700" d="M -12.125 8.882812 L 348.171875 8.882812 L 348.171875 42.410156 L -12.125 42.410156 Z M -12.125 8.882812 " fill-opacity="1" fill-rule="nonzero"/></g></g><g clip-path="url(#a83fcfc785)"><g clip-path="url(#575575e28b)"><path fill="#ffDF61" d="M -12.125 12.695312 L 354.503906 12.695312 L 354.503906 46.8125 L -12.125 46.8125 Z M -12.125 12.695312 " fill-opacity="1" fill-rule="nonzero"/></g></g></svg>