<svg xmlns="http://www.w3.org/2000/svg" xmlns:xlink="http://www.w3.org/1999/xlink" width="100" zoomAndPan="magnify" viewBox="0 0 75 74.999997" height="100" preserveAspectRatio="xMidYMid meet" version="1.0"><defs><clipPath id="511d09d69b"><path d="M 0 0.609375 L 75 0.609375 L 75 74.109375 L 0 74.109375 Z M 0 0.609375 " clip-rule="nonzero"/></clipPath><clipPath id="e48de4b48c"><path d="M 21.09375 24.941406 L 54 24.941406 L 54 49.691406 L 21.09375 49.691406 Z M 21.09375 24.941406 " clip-rule="nonzero"/></clipPath></defs><path fill="#272727" d="M 56.964844 37.5 C 56.964844 38.128906 56.933594 38.753906 56.871094 39.378906 C 56.808594 40.003906 56.714844 40.621094 56.59375 41.238281 C 56.46875 41.855469 56.3125 42.460938 56.128906 43.0625 C 55.941406 43.664062 55.726562 44.253906 55.484375 44.832031 C 55.242188 45.414062 54.96875 45.980469 54.667969 46.535156 C 54.367188 47.085938 54.039062 47.625 53.683594 48.144531 C 53.332031 48.667969 52.953125 49.171875 52.546875 49.65625 C 52.144531 50.140625 51.714844 50.605469 51.265625 51.050781 C 50.8125 51.492188 50.34375 51.914062 49.847656 52.3125 C 49.355469 52.710938 48.84375 53.085938 48.316406 53.433594 C 47.785156 53.78125 47.238281 54.105469 46.675781 54.398438 C 46.113281 54.695312 45.539062 54.964844 44.949219 55.203125 C 44.359375 55.445312 43.761719 55.65625 43.152344 55.835938 C 42.539062 56.019531 41.921875 56.171875 41.296875 56.292969 C 40.671875 56.417969 40.042969 56.507812 39.40625 56.570312 C 38.773438 56.632812 38.136719 56.664062 37.5 56.664062 C 36.863281 56.664062 36.226562 56.632812 35.59375 56.570312 C 34.957031 56.507812 34.328125 56.417969 33.703125 56.292969 C 33.078125 56.171875 32.460938 56.019531 31.847656 55.835938 C 31.238281 55.65625 30.640625 55.445312 30.050781 55.203125 C 29.460938 54.964844 28.886719 54.695312 28.324219 54.398438 C 27.761719 54.105469 27.214844 53.78125 26.683594 53.433594 C 26.15625 53.085938 25.644531 52.710938 25.152344 52.3125 C 24.65625 51.914062 24.1875 51.492188 23.734375 51.050781 C 23.285156 50.605469 22.855469 50.140625 22.453125 49.65625 C 22.046875 49.171875 21.667969 48.667969 21.316406 48.144531 C 20.960938 47.625 20.632812 47.085938 20.332031 46.535156 C 20.03125 45.980469 19.757812 45.414062 19.515625 44.832031 C 19.273438 44.253906 19.058594 43.664062 18.871094 43.0625 C 18.6875 42.460938 18.53125 41.855469 18.40625 41.238281 C 18.285156 40.621094 18.191406 40.003906 18.128906 39.378906 C 18.066406 38.753906 18.035156 38.128906 18.035156 37.5 C 18.035156 36.871094 18.066406 36.246094 18.128906 35.621094 C 18.191406 34.996094 18.285156 34.378906 18.40625 33.761719 C 18.53125 33.144531 18.6875 32.539062 18.871094 31.9375 C 19.058594 31.335938 19.273438 30.746094 19.515625 30.167969 C 19.757812 29.585938 20.03125 29.019531 20.332031 28.464844 C 20.632812 27.914062 20.960938 27.375 21.316406 26.855469 C 21.667969 26.332031 22.046875 25.828125 22.453125 25.34375 C 22.855469 24.859375 23.285156 24.394531 23.734375 23.949219 C 24.1875 23.507812 24.65625 23.085938 25.152344 22.6875 C 25.644531 22.289062 26.15625 21.914062 26.683594 21.566406 C 27.214844 21.21875 27.761719 20.894531 28.324219 20.601562 C 28.886719 20.304688 29.460938 20.035156 30.050781 19.796875 C 30.640625 19.554688 31.238281 19.34375 31.847656 19.164062 C 32.460938 18.980469 33.078125 18.828125 33.703125 18.707031 C 34.328125 18.582031 34.957031 18.492188 35.59375 18.429688 C 36.226562 18.367188 36.863281 18.335938 37.5 18.335938 C 38.136719 18.335938 38.773438 18.367188 39.40625 18.429688 C 40.042969 18.492188 40.671875 18.582031 41.296875 18.707031 C 41.921875 18.828125 42.539062 18.980469 43.152344 19.164062 C 43.761719 19.34375 44.359375 19.554688 44.949219 19.796875 C 45.539062 20.035156 46.113281 20.304688 46.675781 20.601562 C 47.238281 20.894531 47.785156 21.21875 48.316406 21.566406 C 48.84375 21.914062 49.355469 22.289062 49.847656 22.6875 C 50.34375 23.085938 50.8125 23.507812 51.265625 23.949219 C 51.714844 24.394531 52.144531 24.859375 52.546875 25.34375 C 52.953125 25.828125 53.332031 26.332031 53.683594 26.855469 C 54.039062 27.375 54.367188 27.914062 54.667969 28.464844 C 54.96875 29.019531 55.242188 29.585938 55.484375 30.167969 C 55.726562 30.746094 55.941406 31.335938 56.128906 31.9375 C 56.3125 32.539062 56.46875 33.144531 56.59375 33.761719 C 56.714844 34.378906 56.808594 34.996094 56.871094 35.621094 C 56.933594 36.246094 56.964844 36.871094 56.964844 37.5 Z M 56.964844 37.5 " fill-opacity="1" fill-rule="nonzero"/><g clip-path="url(#511d09d69b)"><path fill="#272727" d="M 37.5 13.585938 C 36.933594 13.585938 36.488281 13.140625 36.488281 12.574219 L 36.488281 1.621094 C 36.488281 1.054688 36.933594 0.609375 37.5 0.609375 C 38.066406 0.609375 38.511719 1.054688 38.511719 1.621094 L 38.511719 12.574219 C 38.511719 13.121094 38.046875 13.585938 37.5 13.585938 Z M 38.511719 73.378906 L 38.511719 62.425781 C 38.511719 61.859375 38.066406 61.414062 37.5 61.414062 C 36.933594 61.414062 36.488281 61.859375 36.488281 62.425781 L 36.488281 73.378906 C 36.488281 73.945312 36.933594 74.390625 37.5 74.390625 C 38.066406 74.390625 38.511719 73.945312 38.511719 73.378906 Z M 13.164062 37.5 C 13.164062 36.933594 12.71875 36.488281 12.152344 36.488281 L 1.035156 36.488281 C 0.46875 36.488281 0.0234375 36.933594 0.0234375 37.5 C 0.0234375 38.066406 0.46875 38.511719 1.035156 38.511719 L 12.152344 38.511719 C 12.71875 38.511719 13.164062 38.066406 13.164062 37.5 Z M 74.976562 37.5 C 74.976562 36.933594 74.53125 36.488281 73.964844 36.488281 L 62.847656 36.488281 C 62.28125 36.488281 61.835938 36.933594 61.835938 37.5 C 61.835938 38.066406 62.28125 38.511719 62.847656 38.511719 L 73.964844 38.511719 C 74.53125 38.511719 74.976562 38.066406 74.976562 37.5 Z M 20.296875 20.582031 C 20.683594 20.175781 20.683594 19.550781 20.277344 19.144531 L 12.414062 11.402344 C 12.011719 11.019531 11.382812 11.019531 10.980469 11.425781 C 10.59375 11.828125 10.59375 12.453125 11 12.859375 L 18.863281 20.601562 C 19.066406 20.804688 19.308594 20.882812 19.570312 20.882812 C 19.832031 20.882812 20.097656 20.78125 20.296875 20.582031 Z M 64 63.597656 C 64.382812 63.191406 64.382812 62.566406 63.980469 62.160156 L 56.117188 54.417969 C 55.710938 54.035156 55.085938 54.035156 54.683594 54.4375 C 54.296875 54.84375 54.296875 55.46875 54.703125 55.875 L 62.566406 63.617188 C 62.765625 63.820312 63.011719 63.898438 63.273438 63.898438 C 63.535156 63.898438 63.796875 63.796875 64 63.597656 Z M 12.414062 63.597656 L 20.277344 55.855469 C 20.683594 55.46875 20.683594 54.824219 20.296875 54.417969 C 19.914062 54.015625 19.265625 54.015625 18.863281 54.398438 L 11 62.160156 C 10.59375 62.546875 10.59375 63.191406 10.980469 63.597656 C 11.179688 63.796875 11.445312 63.898438 11.707031 63.898438 C 11.96875 63.898438 12.210938 63.796875 12.414062 63.597656 Z M 56.117188 20.601562 L 63.980469 12.859375 C 64.382812 12.476562 64.382812 11.828125 64 11.425781 C 63.617188 11.019531 62.96875 11.019531 62.566406 11.402344 L 54.703125 19.144531 C 54.296875 19.53125 54.296875 20.175781 54.683594 20.582031 C 54.882812 20.78125 55.148438 20.882812 55.410156 20.882812 C 55.671875 20.882812 55.933594 20.78125 56.117188 20.601562 Z M 28.160156 15.34375 C 28.667969 15.125 28.910156 14.535156 28.707031 14.03125 L 26.726562 9.320312 C 26.503906 8.816406 25.917969 8.574219 25.390625 8.777344 C 24.886719 9 24.644531 9.585938 24.847656 10.089844 L 26.828125 14.800781 C 26.988281 15.183594 27.371094 15.425781 27.757812 15.425781 C 27.917969 15.425781 28.039062 15.40625 28.160156 15.34375 Z M 49.589844 66.246094 C 50.09375 66.023438 50.335938 65.4375 50.132812 64.929688 L 48.152344 60.21875 C 47.929688 59.714844 47.34375 59.472656 46.820312 59.675781 C 46.3125 59.898438 46.070312 60.484375 46.273438 60.988281 L 48.253906 65.699219 C 48.414062 66.082031 48.800781 66.324219 49.183594 66.324219 C 49.324219 66.324219 49.464844 66.285156 49.589844 66.246094 Z M 9.625 49.953125 L 14.414062 47.992188 C 14.941406 47.789062 15.183594 47.183594 14.960938 46.675781 C 14.757812 46.152344 14.152344 45.910156 13.648438 46.132812 L 8.855469 48.09375 C 8.332031 48.292969 8.089844 48.902344 8.3125 49.40625 C 8.472656 49.789062 8.855469 50.03125 9.242188 50.03125 C 9.363281 50.03125 9.503906 50.011719 9.625 49.953125 Z M 61.332031 28.890625 L 66.125 26.929688 C 66.648438 26.726562 66.890625 26.121094 66.667969 25.613281 C 66.464844 25.089844 65.859375 24.847656 65.355469 25.070312 L 60.5625 27.027344 C 60.039062 27.230469 59.796875 27.835938 60.019531 28.34375 C 60.179688 28.726562 60.5625 28.96875 60.949219 28.96875 C 61.089844 28.949219 61.210938 28.929688 61.332031 28.890625 Z M 48.152344 14.820312 L 50.132812 10.109375 C 50.355469 9.605469 50.113281 9 49.589844 8.796875 C 49.0625 8.574219 48.476562 8.816406 48.253906 9.34375 L 46.273438 14.050781 C 46.050781 14.558594 46.292969 15.164062 46.820312 15.367188 C 46.941406 15.425781 47.082031 15.445312 47.203125 15.445312 C 47.605469 15.425781 47.992188 15.203125 48.152344 14.820312 Z M 26.726562 65.699219 L 28.707031 60.988281 C 28.929688 60.484375 28.6875 59.875 28.160156 59.675781 C 27.636719 59.453125 27.050781 59.695312 26.828125 60.21875 L 24.847656 64.929688 C 24.625 65.4375 24.867188 66.042969 25.390625 66.246094 C 25.511719 66.304688 25.65625 66.324219 25.777344 66.324219 C 26.179688 66.324219 26.5625 66.082031 26.726562 65.699219 Z M 14.980469 28.324219 C 15.183594 27.796875 14.941406 27.210938 14.4375 27.007812 L 9.644531 25.046875 C 9.121094 24.847656 8.535156 25.089844 8.332031 25.59375 C 8.128906 26.121094 8.371094 26.707031 8.875 26.90625 L 13.667969 28.867188 C 13.789062 28.929688 13.929688 28.949219 14.050781 28.949219 C 14.4375 28.949219 14.820312 28.707031 14.980469 28.324219 Z M 66.6875 49.40625 C 66.890625 48.878906 66.648438 48.292969 66.144531 48.09375 L 61.332031 46.132812 C 60.808594 45.929688 60.21875 46.171875 60.019531 46.675781 C 59.816406 47.203125 60.058594 47.789062 60.5625 47.992188 L 65.355469 49.953125 C 65.476562 50.011719 65.617188 50.03125 65.738281 50.03125 C 66.144531 50.03125 66.527344 49.789062 66.6875 49.40625 Z M 66.6875 49.40625 " fill-opacity="1" fill-rule="nonzero"/></g><g clip-path="url(#e48de4b48c)"><path fill="#ffde59" d="M 53.703125 32.066406 C 53.878906 31.886719 53.878906 31.597656 53.703125 31.421875 C 53.523438 31.242188 53.234375 31.242188 53.054688 31.421875 L 45.507812 38.96875 L 39.078125 32.539062 C 39.074219 32.535156 39.074219 32.535156 39.074219 32.535156 C 39.066406 32.527344 39.058594 32.519531 39.050781 32.515625 C 39.046875 32.511719 39.042969 32.507812 39.039062 32.503906 C 39.03125 32.5 39.023438 32.492188 39.015625 32.488281 C 39.011719 32.484375 39.007812 32.480469 39 32.476562 C 38.996094 32.472656 38.988281 32.46875 38.980469 32.464844 C 38.976562 32.460938 38.96875 32.457031 38.960938 32.453125 C 38.957031 32.453125 38.949219 32.449219 38.945312 32.445312 C 38.9375 32.441406 38.929688 32.4375 38.921875 32.4375 C 38.914062 32.433594 38.910156 32.433594 38.90625 32.429688 C 38.894531 32.425781 38.886719 32.425781 38.878906 32.421875 C 38.871094 32.421875 38.867188 32.417969 38.859375 32.417969 C 38.851562 32.414062 38.84375 32.414062 38.835938 32.414062 C 38.828125 32.410156 38.820312 32.410156 38.816406 32.410156 C 38.808594 32.40625 38.800781 32.40625 38.792969 32.40625 C 38.785156 32.40625 38.777344 32.40625 38.769531 32.40625 C 38.761719 32.40625 38.757812 32.40625 38.75 32.40625 C 38.742188 32.40625 38.730469 32.40625 38.722656 32.40625 C 38.71875 32.40625 38.710938 32.40625 38.707031 32.40625 C 38.699219 32.40625 38.6875 32.410156 38.679688 32.410156 C 38.675781 32.410156 38.667969 32.414062 38.664062 32.414062 C 38.65625 32.414062 38.648438 32.417969 38.640625 32.417969 C 38.632812 32.421875 38.625 32.421875 38.617188 32.425781 C 38.613281 32.425781 38.605469 32.429688 38.597656 32.433594 C 38.589844 32.433594 38.582031 32.4375 38.574219 32.441406 C 38.570312 32.445312 38.566406 32.445312 38.558594 32.449219 C 38.550781 32.453125 38.542969 32.457031 38.535156 32.460938 C 38.53125 32.460938 38.53125 32.464844 38.527344 32.464844 L 36.152344 33.816406 C 35.476562 34.167969 34.707031 34.222656 33.988281 33.976562 C 33.371094 33.765625 32.863281 33.355469 32.53125 32.808594 C 33.054688 32.382812 34.332031 31.417969 36.203125 30.527344 C 36.710938 30.285156 37.28125 30.214844 37.855469 30.246094 C 37.875 30.25 37.894531 30.25 37.917969 30.25 C 37.917969 30.25 37.921875 30.25 37.921875 30.25 C 39.65625 30.375 41.386719 31.410156 41.410156 31.421875 C 41.589844 31.53125 41.824219 31.503906 41.976562 31.351562 L 47.410156 25.765625 C 47.585938 25.585938 47.582031 25.296875 47.402344 25.121094 C 47.21875 24.945312 46.929688 24.949219 46.753906 25.128906 L 41.566406 30.460938 C 40.949219 30.132812 39.53125 29.460938 38.035156 29.34375 C 35.257812 27.988281 32.371094 28.691406 31.460938 28.972656 L 28.613281 26.125 C 28.4375 25.945312 28.148438 25.945312 27.96875 26.125 C 27.789062 26.300781 27.789062 26.589844 27.96875 26.769531 L 31.015625 29.816406 C 31.144531 29.945312 31.332031 29.984375 31.5 29.921875 C 31.527344 29.914062 33.640625 29.136719 36.003906 29.617188 C 35.9375 29.640625 35.871094 29.671875 35.808594 29.699219 C 33.191406 30.953125 31.710938 32.308594 31.648438 32.363281 C 31.503906 32.496094 31.460938 32.710938 31.542969 32.890625 C 31.964844 33.816406 32.726562 34.507812 33.691406 34.839844 C 34.082031 34.976562 34.488281 35.042969 34.886719 35.042969 C 35.472656 35.042969 36.050781 34.902344 36.585938 34.621094 C 36.589844 34.617188 36.59375 34.617188 36.597656 34.613281 L 38.675781 33.429688 L 47.34375 42.097656 C 47.542969 42.296875 47.652344 42.5625 47.652344 42.84375 C 47.652344 43.125 47.542969 43.390625 47.34375 43.589844 L 46.601562 44.335938 L 44.820312 42.554688 L 44.371094 42.101562 C 44.191406 41.925781 43.902344 41.925781 43.722656 42.101562 C 43.542969 42.28125 43.542969 42.570312 43.722656 42.75 L 46.109375 45.136719 C 46.519531 45.546875 46.519531 46.214844 46.109375 46.625 C 45.910156 46.824219 45.644531 46.933594 45.363281 46.933594 C 45.082031 46.933594 44.816406 46.824219 44.617188 46.625 L 41.632812 43.640625 C 41.453125 43.460938 41.164062 43.460938 40.988281 43.640625 C 40.808594 43.820312 40.808594 44.109375 40.988281 44.285156 L 43.523438 46.820312 C 43.933594 47.234375 43.933594 47.902344 43.523438 48.3125 C 43.113281 48.722656 42.441406 48.722656 42.03125 48.3125 L 39.496094 45.777344 L 38.898438 45.175781 C 38.71875 45 38.429688 45 38.25 45.175781 C 38.070312 45.355469 38.070312 45.644531 38.25 45.824219 L 39.675781 47.246094 C 40.085938 47.65625 40.0625 48.351562 39.617188 48.792969 C 39.175781 49.234375 38.484375 49.261719 38.074219 48.851562 L 37.328125 48.105469 L 37.671875 47.761719 C 38.03125 47.402344 38.230469 46.921875 38.230469 46.414062 C 38.230469 45.902344 38.03125 45.425781 37.671875 45.066406 L 37.585938 44.980469 C 37.199219 44.59375 36.6875 44.40625 36.179688 44.421875 C 36.273438 44.195312 36.324219 43.949219 36.324219 43.695312 C 36.324219 43.183594 36.125 42.707031 35.765625 42.34375 L 35.679688 42.257812 C 35.359375 41.941406 34.945312 41.746094 34.5 41.707031 C 34.554688 41.535156 34.582031 41.351562 34.582031 41.164062 C 34.582031 40.65625 34.382812 40.175781 34.023438 39.816406 L 33.933594 39.730469 C 33.574219 39.371094 33.097656 39.171875 32.585938 39.171875 C 32.398438 39.171875 32.21875 39.199219 32.042969 39.25 C 32.003906 38.804688 31.8125 38.390625 31.492188 38.074219 L 31.40625 37.984375 C 31.046875 37.625 30.566406 37.429688 30.058594 37.429688 C 29.550781 37.429688 29.070312 37.625 28.710938 37.984375 L 27.960938 38.738281 L 21.9375 32.714844 C 21.757812 32.535156 21.46875 32.535156 21.289062 32.714844 C 21.113281 32.890625 21.113281 33.183594 21.289062 33.359375 L 27.3125 39.382812 L 26.804688 39.890625 C 26.0625 40.636719 26.0625 41.84375 26.804688 42.589844 L 27.917969 43.699219 C 27.9375 43.722656 27.964844 43.742188 27.992188 43.757812 C 27.992188 43.761719 27.992188 43.765625 27.992188 43.769531 C 27.992188 44.277344 28.1875 44.757812 28.550781 45.117188 C 28.945312 45.511719 29.464844 45.710938 29.984375 45.710938 C 30.164062 45.710938 30.347656 45.683594 30.523438 45.636719 C 30.554688 46.097656 30.746094 46.53125 31.078125 46.859375 L 31.242188 47.023438 C 31.589844 47.375 32.050781 47.550781 32.511719 47.550781 C 32.679688 47.550781 32.84375 47.527344 33.003906 47.480469 C 33 47.539062 32.996094 47.601562 32.996094 47.660156 C 32.996094 48.167969 33.195312 48.648438 33.554688 49.007812 L 33.640625 49.09375 C 34.011719 49.464844 34.5 49.652344 34.988281 49.652344 C 35.476562 49.652344 35.964844 49.464844 36.339844 49.09375 L 36.679688 48.75 L 37.425781 49.496094 C 37.800781 49.871094 38.292969 50.054688 38.792969 50.054688 C 39.320312 50.054688 39.855469 49.847656 40.265625 49.441406 C 40.5625 49.144531 40.75 48.78125 40.832031 48.40625 L 41.386719 48.957031 C 41.769531 49.339844 42.273438 49.535156 42.777344 49.535156 C 43.28125 49.535156 43.785156 49.339844 44.167969 48.957031 C 44.507812 48.621094 44.695312 48.1875 44.734375 47.746094 C 44.9375 47.8125 45.152344 47.847656 45.363281 47.847656 C 45.867188 47.847656 46.371094 47.65625 46.753906 47.269531 C 47.347656 46.675781 47.484375 45.792969 47.15625 45.070312 L 47.992188 44.234375 C 48.757812 43.46875 48.757812 42.21875 47.992188 41.453125 L 46.152344 39.613281 Z M 27.453125 41.941406 C 27.0625 41.554688 27.0625 40.925781 27.453125 40.539062 L 29.355469 38.632812 C 29.542969 38.445312 29.792969 38.339844 30.058594 38.339844 C 30.324219 38.339844 30.574219 38.445312 30.761719 38.632812 L 30.847656 38.71875 C 31.035156 38.90625 31.136719 39.15625 31.136719 39.421875 C 31.136719 39.6875 31.035156 39.933594 30.847656 40.121094 L 28.238281 42.730469 Z M 29.195312 44.46875 C 29.007812 44.28125 28.90625 44.035156 28.90625 43.769531 C 28.90625 43.503906 29.007812 43.253906 29.195312 43.066406 L 31.886719 40.375 C 32.074219 40.1875 32.320312 40.085938 32.585938 40.085938 C 32.851562 40.085938 33.101562 40.1875 33.289062 40.375 L 33.375 40.464844 C 33.5625 40.652344 33.667969 40.898438 33.667969 41.164062 C 33.667969 41.429688 33.5625 41.679688 33.375 41.867188 L 30.769531 44.46875 C 30.335938 44.90625 29.628906 44.90625 29.195312 44.46875 Z M 31.886719 46.378906 L 31.722656 46.214844 C 31.535156 46.027344 31.433594 45.777344 31.433594 45.511719 C 31.433594 45.246094 31.535156 45 31.722656 44.8125 L 33.628906 42.90625 C 33.816406 42.71875 34.066406 42.613281 34.332031 42.613281 C 34.597656 42.613281 34.847656 42.71875 35.035156 42.90625 L 35.121094 42.992188 C 35.308594 43.179688 35.410156 43.429688 35.410156 43.695312 C 35.410156 43.957031 35.308594 44.207031 35.121094 44.394531 L 33.136719 46.378906 C 32.792969 46.722656 32.230469 46.722656 31.886719 46.378906 Z M 34.289062 48.449219 L 34.203125 48.363281 C 34.015625 48.175781 33.910156 47.925781 33.910156 47.660156 C 33.910156 47.394531 34.015625 47.144531 34.203125 46.957031 L 35.535156 45.625 C 35.726562 45.433594 35.980469 45.335938 36.234375 45.335938 C 36.488281 45.335938 36.746094 45.433594 36.9375 45.625 L 37.023438 45.710938 C 37.210938 45.898438 37.316406 46.148438 37.316406 46.414062 C 37.316406 46.679688 37.210938 46.929688 37.023438 47.117188 L 35.691406 48.449219 C 35.304688 48.835938 34.675781 48.835938 34.289062 48.449219 Z M 34.289062 48.449219 " fill-opacity="1" fill-rule="nonzero"/></g></svg>