<svg xmlns="http://www.w3.org/2000/svg" xmlns:xlink="http://www.w3.org/1999/xlink" width="100" zoomAndPan="magnify" viewBox="0 0 75 74.999997" height="100" preserveAspectRatio="xMidYMid meet" version="1.0"><defs><clipPath id="b5aa71a361"><path d="M 0 0.609375 L 75 0.609375 L 75 74.109375 L 0 74.109375 Z M 0 0.609375 " clip-rule="nonzero"/></clipPath><clipPath id="4e4539b519"><path d="M 29.273438 24.113281 L 45.773438 24.113281 L 45.773438 41 L 29.273438 41 Z M 29.273438 24.113281 " clip-rule="nonzero"/></clipPath></defs><path fill="#272727" d="M 56.964844 37.5 C 56.964844 38.128906 56.933594 38.753906 56.871094 39.378906 C 56.808594 40.003906 56.714844 40.621094 56.59375 41.238281 C 56.46875 41.855469 56.3125 42.460938 56.128906 43.0625 C 55.941406 43.664062 55.726562 44.253906 55.484375 44.832031 C 55.242188 45.414062 54.96875 45.980469 54.667969 46.535156 C 54.367188 47.085938 54.039062 47.625 53.683594 48.144531 C 53.332031 48.667969 52.953125 49.171875 52.546875 49.65625 C 52.144531 50.140625 51.714844 50.605469 51.265625 51.050781 C 50.8125 51.492188 50.34375 51.914062 49.847656 52.3125 C 49.355469 52.710938 48.84375 53.085938 48.316406 53.433594 C 47.785156 53.78125 47.238281 54.105469 46.675781 54.398438 C 46.113281 54.695312 45.539062 54.964844 44.949219 55.203125 C 44.359375 55.445312 43.761719 55.65625 43.152344 55.835938 C 42.539062 56.019531 41.921875 56.171875 41.296875 56.292969 C 40.671875 56.417969 40.042969 56.507812 39.40625 56.570312 C 38.773438 56.632812 38.136719 56.664062 37.5 56.664062 C 36.863281 56.664062 36.226562 56.632812 35.59375 56.570312 C 34.957031 56.507812 34.328125 56.417969 33.703125 56.292969 C 33.078125 56.171875 32.460938 56.019531 31.847656 55.835938 C 31.238281 55.65625 30.640625 55.445312 30.050781 55.203125 C 29.460938 54.964844 28.886719 54.695312 28.324219 54.398438 C 27.761719 54.105469 27.214844 53.78125 26.683594 53.433594 C 26.15625 53.085938 25.644531 52.710938 25.152344 52.3125 C 24.65625 51.914062 24.1875 51.492188 23.734375 51.050781 C 23.285156 50.605469 22.855469 50.140625 22.453125 49.65625 C 22.046875 49.171875 21.667969 48.667969 21.316406 48.144531 C 20.960938 47.625 20.632812 47.085938 20.332031 46.535156 C 20.03125 45.980469 19.757812 45.414062 19.515625 44.832031 C 19.273438 44.253906 19.058594 43.664062 18.871094 43.0625 C 18.6875 42.460938 18.53125 41.855469 18.40625 41.238281 C 18.285156 40.621094 18.191406 40.003906 18.128906 39.378906 C 18.066406 38.753906 18.035156 38.128906 18.035156 37.5 C 18.035156 36.871094 18.066406 36.246094 18.128906 35.621094 C 18.191406 34.996094 18.285156 34.378906 18.40625 33.761719 C 18.53125 33.144531 18.6875 32.539062 18.871094 31.9375 C 19.058594 31.335938 19.273438 30.746094 19.515625 30.167969 C 19.757812 29.585938 20.03125 29.019531 20.332031 28.464844 C 20.632812 27.914062 20.960938 27.375 21.316406 26.855469 C 21.667969 26.332031 22.046875 25.828125 22.453125 25.34375 C 22.855469 24.859375 23.285156 24.394531 23.734375 23.949219 C 24.1875 23.507812 24.65625 23.085938 25.152344 22.6875 C 25.644531 22.289062 26.15625 21.914062 26.683594 21.566406 C 27.214844 21.21875 27.761719 20.894531 28.324219 20.601562 C 28.886719 20.304688 29.460938 20.035156 30.050781 19.796875 C 30.640625 19.554688 31.238281 19.34375 31.847656 19.164062 C 32.460938 18.980469 33.078125 18.828125 33.703125 18.707031 C 34.328125 18.582031 34.957031 18.492188 35.59375 18.429688 C 36.226562 18.367188 36.863281 18.335938 37.5 18.335938 C 38.136719 18.335938 38.773438 18.367188 39.40625 18.429688 C 40.042969 18.492188 40.671875 18.582031 41.296875 18.707031 C 41.921875 18.828125 42.539062 18.980469 43.152344 19.164062 C 43.761719 19.34375 44.359375 19.554688 44.949219 19.796875 C 45.539062 20.035156 46.113281 20.304688 46.675781 20.601562 C 47.238281 20.894531 47.785156 21.21875 48.316406 21.566406 C 48.84375 21.914062 49.355469 22.289062 49.847656 22.6875 C 50.34375 23.085938 50.8125 23.507812 51.265625 23.949219 C 51.714844 24.394531 52.144531 24.859375 52.546875 25.34375 C 52.953125 25.828125 53.332031 26.332031 53.683594 26.855469 C 54.039062 27.375 54.367188 27.914062 54.667969 28.464844 C 54.96875 29.019531 55.242188 29.585938 55.484375 30.167969 C 55.726562 30.746094 55.941406 31.335938 56.128906 31.9375 C 56.3125 32.539062 56.46875 33.144531 56.59375 33.761719 C 56.714844 34.378906 56.808594 34.996094 56.871094 35.621094 C 56.933594 36.246094 56.964844 36.871094 56.964844 37.5 Z M 56.964844 37.5 " fill-opacity="1" fill-rule="nonzero"/><g clip-path="url(#b5aa71a361)"><path fill="#272727" d="M 37.5 13.585938 C 36.933594 13.585938 36.488281 13.140625 36.488281 12.574219 L 36.488281 1.621094 C 36.488281 1.054688 36.933594 0.609375 37.5 0.609375 C 38.066406 0.609375 38.511719 1.054688 38.511719 1.621094 L 38.511719 12.574219 C 38.511719 13.121094 38.046875 13.585938 37.5 13.585938 Z M 38.511719 73.378906 L 38.511719 62.425781 C 38.511719 61.859375 38.066406 61.414062 37.5 61.414062 C 36.933594 61.414062 36.488281 61.859375 36.488281 62.425781 L 36.488281 73.378906 C 36.488281 73.945312 36.933594 74.390625 37.5 74.390625 C 38.066406 74.390625 38.511719 73.945312 38.511719 73.378906 Z M 13.164062 37.5 C 13.164062 36.933594 12.71875 36.488281 12.152344 36.488281 L 1.035156 36.488281 C 0.46875 36.488281 0.0234375 36.933594 0.0234375 37.5 C 0.0234375 38.066406 0.46875 38.511719 1.035156 38.511719 L 12.152344 38.511719 C 12.71875 38.511719 13.164062 38.066406 13.164062 37.5 Z M 74.976562 37.5 C 74.976562 36.933594 74.53125 36.488281 73.964844 36.488281 L 62.847656 36.488281 C 62.28125 36.488281 61.835938 36.933594 61.835938 37.5 C 61.835938 38.066406 62.28125 38.511719 62.847656 38.511719 L 73.964844 38.511719 C 74.53125 38.511719 74.976562 38.066406 74.976562 37.5 Z M 20.296875 20.582031 C 20.683594 20.175781 20.683594 19.550781 20.277344 19.144531 L 12.414062 11.402344 C 12.011719 11.019531 11.382812 11.019531 10.980469 11.425781 C 10.59375 11.828125 10.59375 12.453125 11 12.859375 L 18.863281 20.601562 C 19.066406 20.804688 19.308594 20.882812 19.570312 20.882812 C 19.832031 20.882812 20.097656 20.78125 20.296875 20.582031 Z M 64 63.597656 C 64.382812 63.191406 64.382812 62.566406 63.980469 62.160156 L 56.117188 54.417969 C 55.710938 54.035156 55.085938 54.035156 54.683594 54.4375 C 54.296875 54.84375 54.296875 55.46875 54.703125 55.875 L 62.566406 63.617188 C 62.765625 63.820312 63.011719 63.898438 63.273438 63.898438 C 63.535156 63.898438 63.796875 63.796875 64 63.597656 Z M 12.414062 63.597656 L 20.277344 55.855469 C 20.683594 55.46875 20.683594 54.824219 20.296875 54.417969 C 19.914062 54.015625 19.265625 54.015625 18.863281 54.398438 L 11 62.160156 C 10.59375 62.546875 10.59375 63.191406 10.980469 63.597656 C 11.179688 63.796875 11.445312 63.898438 11.707031 63.898438 C 11.96875 63.898438 12.210938 63.796875 12.414062 63.597656 Z M 56.117188 20.601562 L 63.980469 12.859375 C 64.382812 12.476562 64.382812 11.828125 64 11.425781 C 63.617188 11.019531 62.96875 11.019531 62.566406 11.402344 L 54.703125 19.144531 C 54.296875 19.53125 54.296875 20.175781 54.683594 20.582031 C 54.882812 20.78125 55.148438 20.882812 55.410156 20.882812 C 55.671875 20.882812 55.933594 20.78125 56.117188 20.601562 Z M 28.160156 15.34375 C 28.667969 15.125 28.910156 14.535156 28.707031 14.03125 L 26.726562 9.320312 C 26.503906 8.816406 25.917969 8.574219 25.390625 8.777344 C 24.886719 9 24.644531 9.585938 24.847656 10.089844 L 26.828125 14.800781 C 26.988281 15.183594 27.371094 15.425781 27.757812 15.425781 C 27.917969 15.425781 28.039062 15.40625 28.160156 15.34375 Z M 49.589844 66.246094 C 50.09375 66.023438 50.335938 65.4375 50.132812 64.929688 L 48.152344 60.21875 C 47.929688 59.714844 47.34375 59.472656 46.820312 59.675781 C 46.3125 59.898438 46.070312 60.484375 46.273438 60.988281 L 48.253906 65.699219 C 48.414062 66.082031 48.800781 66.324219 49.183594 66.324219 C 49.324219 66.324219 49.464844 66.285156 49.589844 66.246094 Z M 9.625 49.953125 L 14.414062 47.992188 C 14.941406 47.789062 15.183594 47.183594 14.960938 46.675781 C 14.757812 46.152344 14.152344 45.910156 13.648438 46.132812 L 8.855469 48.09375 C 8.332031 48.292969 8.089844 48.902344 8.3125 49.40625 C 8.472656 49.789062 8.855469 50.03125 9.242188 50.03125 C 9.363281 50.03125 9.503906 50.011719 9.625 49.953125 Z M 61.332031 28.890625 L 66.125 26.929688 C 66.648438 26.726562 66.890625 26.121094 66.667969 25.613281 C 66.464844 25.089844 65.859375 24.847656 65.355469 25.070312 L 60.5625 27.027344 C 60.039062 27.230469 59.796875 27.835938 60.019531 28.34375 C 60.179688 28.726562 60.5625 28.96875 60.949219 28.96875 C 61.089844 28.949219 61.210938 28.929688 61.332031 28.890625 Z M 48.152344 14.820312 L 50.132812 10.109375 C 50.355469 9.605469 50.113281 9 49.589844 8.796875 C 49.0625 8.574219 48.476562 8.816406 48.253906 9.34375 L 46.273438 14.050781 C 46.050781 14.558594 46.292969 15.164062 46.820312 15.367188 C 46.941406 15.425781 47.082031 15.445312 47.203125 15.445312 C 47.605469 15.425781 47.992188 15.203125 48.152344 14.820312 Z M 26.726562 65.699219 L 28.707031 60.988281 C 28.929688 60.484375 28.6875 59.875 28.160156 59.675781 C 27.636719 59.453125 27.050781 59.695312 26.828125 60.21875 L 24.847656 64.929688 C 24.625 65.4375 24.867188 66.042969 25.390625 66.246094 C 25.511719 66.304688 25.65625 66.324219 25.777344 66.324219 C 26.179688 66.324219 26.5625 66.082031 26.726562 65.699219 Z M 14.980469 28.324219 C 15.183594 27.796875 14.941406 27.210938 14.4375 27.007812 L 9.644531 25.046875 C 9.121094 24.847656 8.535156 25.089844 8.332031 25.59375 C 8.128906 26.121094 8.371094 26.707031 8.875 26.90625 L 13.667969 28.867188 C 13.789062 28.929688 13.929688 28.949219 14.050781 28.949219 C 14.4375 28.949219 14.820312 28.707031 14.980469 28.324219 Z M 66.6875 49.40625 C 66.890625 48.878906 66.648438 48.292969 66.144531 48.09375 L 61.332031 46.132812 C 60.808594 45.929688 60.21875 46.171875 60.019531 46.675781 C 59.816406 47.203125 60.058594 47.789062 60.5625 47.992188 L 65.355469 49.953125 C 65.476562 50.011719 65.617188 50.03125 65.738281 50.03125 C 66.144531 50.03125 66.527344 49.789062 66.6875 49.40625 Z M 66.6875 49.40625 " fill-opacity="1" fill-rule="nonzero"/></g><path fill="#ffde59" d="M 35.085938 36.570312 C 34.921875 36.570312 34.757812 36.519531 34.617188 36.421875 C 34.363281 36.242188 34.230469 35.9375 34.28125 35.628906 L 34.640625 33.296875 C 34.640625 33.285156 34.636719 33.273438 34.628906 33.261719 L 32.910156 31.644531 C 32.683594 31.429688 32.597656 31.109375 32.691406 30.8125 C 32.78125 30.511719 33.03125 30.296875 33.339844 30.246094 L 35.671875 29.867188 C 35.683594 29.863281 35.691406 29.855469 35.699219 29.847656 L 36.707031 27.710938 C 36.839844 27.429688 37.117188 27.25 37.429688 27.246094 C 37.742188 27.238281 38.027344 27.410156 38.171875 27.6875 L 39.25 29.785156 C 39.257812 29.796875 39.265625 29.804688 39.277344 29.804688 L 41.621094 30.105469 C 41.929688 30.144531 42.1875 30.355469 42.289062 30.652344 C 42.390625 30.945312 42.316406 31.269531 42.097656 31.488281 L 40.433594 33.167969 C 40.425781 33.175781 40.421875 33.1875 40.421875 33.199219 L 40.863281 35.519531 C 40.921875 35.828125 40.800781 36.132812 40.550781 36.324219 C 40.300781 36.511719 39.972656 36.539062 39.691406 36.398438 L 37.585938 35.335938 C 37.574219 35.328125 37.558594 35.332031 37.550781 35.335938 L 35.480469 36.46875 C 35.355469 36.539062 35.21875 36.570312 35.085938 36.570312 Z M 37.445312 28.023438 C 37.421875 28.023438 37.414062 28.039062 37.410156 28.042969 L 36.402344 30.179688 C 36.285156 30.421875 36.058594 30.59375 35.792969 30.636719 L 33.464844 31.015625 C 33.457031 31.015625 33.441406 31.019531 33.433594 31.039062 C 33.429688 31.0625 33.4375 31.070312 33.445312 31.078125 L 35.164062 32.695312 C 35.359375 32.882812 35.449219 33.148438 35.410156 33.414062 L 35.050781 35.75 C 35.050781 35.757812 35.046875 35.769531 35.066406 35.785156 C 35.082031 35.796875 35.097656 35.789062 35.105469 35.785156 L 37.175781 34.652344 C 37.410156 34.523438 37.695312 34.519531 37.933594 34.640625 L 40.042969 35.703125 C 40.050781 35.707031 40.0625 35.714844 40.082031 35.699219 C 40.101562 35.6875 40.097656 35.671875 40.097656 35.664062 L 39.65625 33.34375 C 39.609375 33.078125 39.691406 32.808594 39.878906 32.617188 L 41.542969 30.941406 C 41.550781 30.933594 41.558594 30.925781 41.550781 30.902344 C 41.542969 30.882812 41.53125 30.878906 41.523438 30.878906 L 39.179688 30.578125 C 38.914062 30.542969 38.679688 30.382812 38.558594 30.144531 L 37.476562 28.042969 C 37.472656 28.035156 37.46875 28.023438 37.445312 28.023438 Z M 37.445312 28.023438 " fill-opacity="1" fill-rule="nonzero"/><g clip-path="url(#4e4539b519)"><path fill="#ffde59" d="M 37.492188 40.511719 C 32.972656 40.511719 29.292969 36.832031 29.292969 32.3125 C 29.292969 27.792969 32.972656 24.113281 37.492188 24.113281 C 42.015625 24.113281 45.691406 27.792969 45.691406 32.3125 C 45.691406 36.835938 42.015625 40.511719 37.492188 40.511719 Z M 37.492188 24.894531 C 33.402344 24.894531 30.074219 28.222656 30.074219 32.3125 C 30.074219 36.40625 33.402344 39.734375 37.492188 39.734375 C 41.585938 39.734375 44.914062 36.40625 44.914062 32.3125 C 44.914062 28.222656 41.585938 24.894531 37.492188 24.894531 Z M 37.492188 24.894531 " fill-opacity="1" fill-rule="nonzero"/></g><path fill="#ffde59" d="M 40.722656 50.859375 C 40.652344 50.859375 40.585938 50.839844 40.523438 50.804688 L 37.492188 48.992188 L 34.464844 50.804688 C 34.34375 50.875 34.195312 50.878906 34.074219 50.808594 C 33.949219 50.738281 33.875 50.609375 33.875 50.46875 L 33.875 39.480469 C 33.875 39.265625 34.050781 39.089844 34.265625 39.089844 C 34.480469 39.089844 34.652344 39.265625 34.652344 39.480469 L 34.652344 49.78125 L 37.292969 48.207031 C 37.417969 48.132812 37.570312 48.132812 37.695312 48.207031 L 40.332031 49.78125 L 40.332031 39.480469 C 40.332031 39.265625 40.507812 39.089844 40.722656 39.089844 C 40.9375 39.089844 41.113281 39.265625 41.113281 39.480469 L 41.113281 50.46875 C 41.113281 50.609375 41.035156 50.738281 40.914062 50.808594 C 40.855469 50.84375 40.789062 50.859375 40.722656 50.859375 Z M 40.722656 50.859375 " fill-opacity="1" fill-rule="nonzero"/></svg>