<svg xmlns="http://www.w3.org/2000/svg" xmlns:xlink="http://www.w3.org/1999/xlink" width="100" zoomAndPan="magnify" viewBox="0 0 75 74.999997" height="100" preserveAspectRatio="xMidYMid meet" version="1.0"><defs><clipPath id="91389326f9"><path d="M 0 0.609375 L 75 0.609375 L 75 74.109375 L 0 74.109375 Z M 0 0.609375 " clip-rule="nonzero"/></clipPath><clipPath id="b8528d0d84"><path d="M 29.070312 22.613281 L 45.570312 22.613281 L 45.570312 52.613281 L 29.070312 52.613281 Z M 29.070312 22.613281 " clip-rule="nonzero"/></clipPath></defs><path fill="#272727" d="M 56.964844 37.5 C 56.964844 38.128906 56.933594 38.753906 56.871094 39.378906 C 56.808594 40.003906 56.714844 40.621094 56.59375 41.238281 C 56.46875 41.855469 56.3125 42.460938 56.128906 43.0625 C 55.941406 43.664062 55.726562 44.253906 55.484375 44.832031 C 55.242188 45.414062 54.96875 45.980469 54.667969 46.535156 C 54.367188 47.085938 54.039062 47.625 53.683594 48.144531 C 53.332031 48.667969 52.953125 49.171875 52.546875 49.65625 C 52.144531 50.140625 51.714844 50.605469 51.265625 51.050781 C 50.8125 51.492188 50.34375 51.914062 49.847656 52.3125 C 49.355469 52.710938 48.84375 53.085938 48.316406 53.433594 C 47.785156 53.78125 47.238281 54.105469 46.675781 54.398438 C 46.113281 54.695312 45.539062 54.964844 44.949219 55.203125 C 44.359375 55.445312 43.761719 55.65625 43.152344 55.835938 C 42.539062 56.019531 41.921875 56.171875 41.296875 56.292969 C 40.671875 56.417969 40.042969 56.507812 39.40625 56.570312 C 38.773438 56.632812 38.136719 56.664062 37.5 56.664062 C 36.863281 56.664062 36.226562 56.632812 35.59375 56.570312 C 34.957031 56.507812 34.328125 56.417969 33.703125 56.292969 C 33.078125 56.171875 32.460938 56.019531 31.847656 55.835938 C 31.238281 55.65625 30.640625 55.445312 30.050781 55.203125 C 29.460938 54.964844 28.886719 54.695312 28.324219 54.398438 C 27.761719 54.105469 27.214844 53.78125 26.683594 53.433594 C 26.15625 53.085938 25.644531 52.710938 25.152344 52.3125 C 24.65625 51.914062 24.1875 51.492188 23.734375 51.050781 C 23.285156 50.605469 22.855469 50.140625 22.453125 49.65625 C 22.046875 49.171875 21.667969 48.667969 21.316406 48.144531 C 20.960938 47.625 20.632812 47.085938 20.332031 46.535156 C 20.03125 45.980469 19.757812 45.414062 19.515625 44.832031 C 19.273438 44.253906 19.058594 43.664062 18.871094 43.0625 C 18.6875 42.460938 18.53125 41.855469 18.40625 41.238281 C 18.285156 40.621094 18.191406 40.003906 18.128906 39.378906 C 18.066406 38.753906 18.035156 38.128906 18.035156 37.5 C 18.035156 36.871094 18.066406 36.246094 18.128906 35.621094 C 18.191406 34.996094 18.285156 34.378906 18.40625 33.761719 C 18.53125 33.144531 18.6875 32.539062 18.871094 31.9375 C 19.058594 31.335938 19.273438 30.746094 19.515625 30.167969 C 19.757812 29.585938 20.03125 29.019531 20.332031 28.464844 C 20.632812 27.914062 20.960938 27.375 21.316406 26.855469 C 21.667969 26.332031 22.046875 25.828125 22.453125 25.34375 C 22.855469 24.859375 23.285156 24.394531 23.734375 23.949219 C 24.1875 23.507812 24.65625 23.085938 25.152344 22.6875 C 25.644531 22.289062 26.15625 21.914062 26.683594 21.566406 C 27.214844 21.21875 27.761719 20.894531 28.324219 20.601562 C 28.886719 20.304688 29.460938 20.035156 30.050781 19.796875 C 30.640625 19.554688 31.238281 19.34375 31.847656 19.164062 C 32.460938 18.980469 33.078125 18.828125 33.703125 18.707031 C 34.328125 18.582031 34.957031 18.492188 35.59375 18.429688 C 36.226562 18.367188 36.863281 18.335938 37.5 18.335938 C 38.136719 18.335938 38.773438 18.367188 39.40625 18.429688 C 40.042969 18.492188 40.671875 18.582031 41.296875 18.707031 C 41.921875 18.828125 42.539062 18.980469 43.152344 19.164062 C 43.761719 19.34375 44.359375 19.554688 44.949219 19.796875 C 45.539062 20.035156 46.113281 20.304688 46.675781 20.601562 C 47.238281 20.894531 47.785156 21.21875 48.316406 21.566406 C 48.84375 21.914062 49.355469 22.289062 49.847656 22.6875 C 50.34375 23.085938 50.8125 23.507812 51.265625 23.949219 C 51.714844 24.394531 52.144531 24.859375 52.546875 25.34375 C 52.953125 25.828125 53.332031 26.332031 53.683594 26.855469 C 54.039062 27.375 54.367188 27.914062 54.667969 28.464844 C 54.96875 29.019531 55.242188 29.585938 55.484375 30.167969 C 55.726562 30.746094 55.941406 31.335938 56.128906 31.9375 C 56.3125 32.539062 56.46875 33.144531 56.59375 33.761719 C 56.714844 34.378906 56.808594 34.996094 56.871094 35.621094 C 56.933594 36.246094 56.964844 36.871094 56.964844 37.5 Z M 56.964844 37.5 " fill-opacity="1" fill-rule="nonzero"/><g clip-path="url(#91389326f9)"><path fill="#272727" d="M 37.5 13.585938 C 36.933594 13.585938 36.488281 13.140625 36.488281 12.574219 L 36.488281 1.621094 C 36.488281 1.054688 36.933594 0.609375 37.5 0.609375 C 38.066406 0.609375 38.511719 1.054688 38.511719 1.621094 L 38.511719 12.574219 C 38.511719 13.121094 38.046875 13.585938 37.5 13.585938 Z M 38.511719 73.378906 L 38.511719 62.425781 C 38.511719 61.859375 38.066406 61.414062 37.5 61.414062 C 36.933594 61.414062 36.488281 61.859375 36.488281 62.425781 L 36.488281 73.378906 C 36.488281 73.945312 36.933594 74.390625 37.5 74.390625 C 38.066406 74.390625 38.511719 73.945312 38.511719 73.378906 Z M 13.164062 37.5 C 13.164062 36.933594 12.71875 36.488281 12.152344 36.488281 L 1.035156 36.488281 C 0.46875 36.488281 0.0234375 36.933594 0.0234375 37.5 C 0.0234375 38.066406 0.46875 38.511719 1.035156 38.511719 L 12.152344 38.511719 C 12.71875 38.511719 13.164062 38.066406 13.164062 37.5 Z M 74.976562 37.5 C 74.976562 36.933594 74.53125 36.488281 73.964844 36.488281 L 62.847656 36.488281 C 62.28125 36.488281 61.835938 36.933594 61.835938 37.5 C 61.835938 38.066406 62.28125 38.511719 62.847656 38.511719 L 73.964844 38.511719 C 74.53125 38.511719 74.976562 38.066406 74.976562 37.5 Z M 20.296875 20.582031 C 20.683594 20.175781 20.683594 19.550781 20.277344 19.144531 L 12.414062 11.402344 C 12.011719 11.019531 11.382812 11.019531 10.980469 11.425781 C 10.59375 11.828125 10.59375 12.453125 11 12.859375 L 18.863281 20.601562 C 19.066406 20.804688 19.308594 20.882812 19.570312 20.882812 C 19.832031 20.882812 20.097656 20.78125 20.296875 20.582031 Z M 64 63.597656 C 64.382812 63.191406 64.382812 62.566406 63.980469 62.160156 L 56.117188 54.417969 C 55.710938 54.035156 55.085938 54.035156 54.683594 54.4375 C 54.296875 54.84375 54.296875 55.46875 54.703125 55.875 L 62.566406 63.617188 C 62.765625 63.820312 63.011719 63.898438 63.273438 63.898438 C 63.535156 63.898438 63.796875 63.796875 64 63.597656 Z M 12.414062 63.597656 L 20.277344 55.855469 C 20.683594 55.46875 20.683594 54.824219 20.296875 54.417969 C 19.914062 54.015625 19.265625 54.015625 18.863281 54.398438 L 11 62.160156 C 10.59375 62.546875 10.59375 63.191406 10.980469 63.597656 C 11.179688 63.796875 11.445312 63.898438 11.707031 63.898438 C 11.96875 63.898438 12.210938 63.796875 12.414062 63.597656 Z M 56.117188 20.601562 L 63.980469 12.859375 C 64.382812 12.476562 64.382812 11.828125 64 11.425781 C 63.617188 11.019531 62.96875 11.019531 62.566406 11.402344 L 54.703125 19.144531 C 54.296875 19.53125 54.296875 20.175781 54.683594 20.582031 C 54.882812 20.78125 55.148438 20.882812 55.410156 20.882812 C 55.671875 20.882812 55.933594 20.78125 56.117188 20.601562 Z M 28.160156 15.34375 C 28.667969 15.125 28.910156 14.535156 28.707031 14.03125 L 26.726562 9.320312 C 26.503906 8.816406 25.917969 8.574219 25.390625 8.777344 C 24.886719 9 24.644531 9.585938 24.847656 10.089844 L 26.828125 14.800781 C 26.988281 15.183594 27.371094 15.425781 27.757812 15.425781 C 27.917969 15.425781 28.039062 15.40625 28.160156 15.34375 Z M 49.589844 66.246094 C 50.09375 66.023438 50.335938 65.4375 50.132812 64.929688 L 48.152344 60.21875 C 47.929688 59.714844 47.34375 59.472656 46.820312 59.675781 C 46.3125 59.898438 46.070312 60.484375 46.273438 60.988281 L 48.253906 65.699219 C 48.414062 66.082031 48.800781 66.324219 49.183594 66.324219 C 49.324219 66.324219 49.464844 66.285156 49.589844 66.246094 Z M 9.625 49.953125 L 14.414062 47.992188 C 14.941406 47.789062 15.183594 47.183594 14.960938 46.675781 C 14.757812 46.152344 14.152344 45.910156 13.648438 46.132812 L 8.855469 48.09375 C 8.332031 48.292969 8.089844 48.902344 8.3125 49.40625 C 8.472656 49.789062 8.855469 50.03125 9.242188 50.03125 C 9.363281 50.03125 9.503906 50.011719 9.625 49.953125 Z M 61.332031 28.890625 L 66.125 26.929688 C 66.648438 26.726562 66.890625 26.121094 66.667969 25.613281 C 66.464844 25.089844 65.859375 24.847656 65.355469 25.070312 L 60.5625 27.027344 C 60.039062 27.230469 59.796875 27.835938 60.019531 28.34375 C 60.179688 28.726562 60.5625 28.96875 60.949219 28.96875 C 61.089844 28.949219 61.210938 28.929688 61.332031 28.890625 Z M 48.152344 14.820312 L 50.132812 10.109375 C 50.355469 9.605469 50.113281 9 49.589844 8.796875 C 49.0625 8.574219 48.476562 8.816406 48.253906 9.34375 L 46.273438 14.050781 C 46.050781 14.558594 46.292969 15.164062 46.820312 15.367188 C 46.941406 15.425781 47.082031 15.445312 47.203125 15.445312 C 47.605469 15.425781 47.992188 15.203125 48.152344 14.820312 Z M 26.726562 65.699219 L 28.707031 60.988281 C 28.929688 60.484375 28.6875 59.875 28.160156 59.675781 C 27.636719 59.453125 27.050781 59.695312 26.828125 60.21875 L 24.847656 64.929688 C 24.625 65.4375 24.867188 66.042969 25.390625 66.246094 C 25.511719 66.304688 25.65625 66.324219 25.777344 66.324219 C 26.179688 66.324219 26.5625 66.082031 26.726562 65.699219 Z M 14.980469 28.324219 C 15.183594 27.796875 14.941406 27.210938 14.4375 27.007812 L 9.644531 25.046875 C 9.121094 24.847656 8.535156 25.089844 8.332031 25.59375 C 8.128906 26.121094 8.371094 26.707031 8.875 26.90625 L 13.667969 28.867188 C 13.789062 28.929688 13.929688 28.949219 14.050781 28.949219 C 14.4375 28.949219 14.820312 28.707031 14.980469 28.324219 Z M 66.6875 49.40625 C 66.890625 48.878906 66.648438 48.292969 66.144531 48.09375 L 61.332031 46.132812 C 60.808594 45.929688 60.21875 46.171875 60.019531 46.675781 C 59.816406 47.203125 60.058594 47.789062 60.5625 47.992188 L 65.355469 49.953125 C 65.476562 50.011719 65.617188 50.03125 65.738281 50.03125 C 66.144531 50.03125 66.527344 49.789062 66.6875 49.40625 Z M 66.6875 49.40625 " fill-opacity="1" fill-rule="nonzero"/></g><g clip-path="url(#b8528d0d84)"><path fill="#ffde59" d="M 31.730469 50.253906 L 36.621094 38.207031 C 36.664062 38.105469 36.640625 37.988281 36.570312 37.90625 C 36.496094 37.828125 36.378906 37.796875 36.273438 37.828125 L 30.160156 39.703125 L 42.167969 24.433594 L 38.925781 33.917969 C 38.894531 34.015625 38.914062 34.121094 38.980469 34.195312 C 39.042969 34.273438 39.144531 34.308594 39.246094 34.292969 L 44.9375 33.285156 Z M 45.859375 32.730469 C 45.800781 32.628906 45.683594 32.578125 45.566406 32.597656 L 39.621094 33.648438 L 43.25 23.035156 C 43.296875 22.902344 43.238281 22.757812 43.117188 22.691406 C 42.996094 22.625 42.84375 22.65625 42.757812 22.765625 L 29.152344 40.066406 C 29.074219 40.164062 29.070312 40.300781 29.140625 40.402344 C 29.210938 40.507812 29.339844 40.550781 29.457031 40.515625 L 35.871094 38.546875 L 30.433594 51.9375 C 30.378906 52.070312 30.429688 52.222656 30.554688 52.292969 C 30.675781 52.363281 30.835938 52.332031 30.921875 52.222656 L 45.839844 33.050781 C 45.914062 32.960938 45.921875 32.832031 45.859375 32.730469 " fill-opacity="1" fill-rule="nonzero"/></g></svg>