<svg xmlns="http://www.w3.org/2000/svg" xmlns:xlink="http://www.w3.org/1999/xlink" width="500" zoomAndPan="magnify" viewBox="0 0 375 374.999991" height="500" preserveAspectRatio="xMidYMid meet" version="1.0"><defs><clipPath id="40e1f66117"><path d="M 0 3.046875 L 375 3.046875 L 375 372 L 0 372 Z M 0 3.046875 " clip-rule="nonzero"/></clipPath><clipPath id="b39d692bb7"><path d="M 129 102.65625 L 268 102.65625 L 268 258.65625 L 129 258.65625 Z M 129 102.65625 " clip-rule="nonzero"/></clipPath></defs><path fill="#ffde59" d="M 284.832031 187.5 C 284.832031 189.066406 284.792969 190.636719 284.714844 192.203125 C 284.636719 193.765625 284.519531 195.332031 284.363281 196.890625 C 284.207031 198.453125 284.011719 200.007812 283.777344 201.558594 C 283.542969 203.109375 283.269531 204.65625 282.960938 206.191406 C 282.648438 207.730469 282.300781 209.261719 281.914062 210.78125 C 281.527344 212.300781 281.101562 213.8125 280.640625 215.3125 C 280.175781 216.8125 279.675781 218.300781 279.140625 219.777344 C 278.605469 221.253906 278.03125 222.71875 277.421875 224.167969 C 276.8125 225.617188 276.167969 227.046875 275.484375 228.464844 C 274.804688 229.882812 274.089844 231.285156 273.339844 232.667969 C 272.585938 234.050781 271.800781 235.414062 270.984375 236.757812 C 270.164062 238.101562 269.3125 239.429688 268.425781 240.730469 C 267.542969 242.035156 266.625 243.316406 265.675781 244.578125 C 264.726562 245.835938 263.75 247.070312 262.738281 248.285156 C 261.726562 249.496094 260.6875 250.683594 259.617188 251.84375 C 258.546875 253.007812 257.449219 254.140625 256.324219 255.25 C 255.195312 256.359375 254.042969 257.441406 252.863281 258.492188 C 251.683594 259.546875 250.476562 260.570312 249.246094 261.566406 C 248.015625 262.558594 246.757812 263.523438 245.480469 264.457031 C 244.199219 265.394531 242.898438 266.296875 241.574219 267.167969 C 240.25 268.039062 238.902344 268.875 237.539062 269.683594 C 236.171875 270.488281 234.785156 271.261719 233.382812 272 C 231.976562 272.738281 230.554688 273.445312 229.113281 274.117188 C 227.675781 274.785156 226.21875 275.421875 224.746094 276.019531 C 223.273438 276.621094 221.789062 277.183594 220.289062 277.714844 C 218.789062 278.242188 217.277344 278.734375 215.753906 279.1875 C 214.230469 279.644531 212.695312 280.0625 211.148438 280.441406 C 209.605469 280.824219 208.050781 281.167969 206.488281 281.472656 C 204.925781 281.78125 203.355469 282.046875 201.78125 282.277344 C 200.207031 282.507812 198.625 282.699219 197.039062 282.851562 C 195.453125 283.007812 193.867188 283.121094 192.277344 283.199219 C 190.683594 283.277344 189.09375 283.316406 187.5 283.316406 C 185.90625 283.316406 184.316406 283.277344 182.722656 283.199219 C 181.132812 283.121094 179.546875 283.007812 177.960938 282.851562 C 176.375 282.699219 174.792969 282.507812 173.21875 282.277344 C 171.644531 282.046875 170.074219 281.78125 168.511719 281.472656 C 166.949219 281.167969 165.394531 280.824219 163.851562 280.441406 C 162.304688 280.0625 160.769531 279.644531 159.246094 279.1875 C 157.722656 278.734375 156.210938 278.242188 154.710938 277.714844 C 153.210938 277.183594 151.726562 276.621094 150.253906 276.019531 C 148.78125 275.421875 147.324219 274.785156 145.886719 274.117188 C 144.445312 273.445312 143.023438 272.738281 141.617188 272 C 140.214844 271.261719 138.828125 270.488281 137.460938 269.683594 C 136.097656 268.875 134.75 268.039062 133.425781 267.167969 C 132.101562 266.296875 130.800781 265.394531 129.519531 264.457031 C 128.242188 263.523438 126.984375 262.558594 125.753906 261.566406 C 124.523438 260.570312 123.316406 259.546875 122.136719 258.492188 C 120.957031 257.441406 119.804688 256.359375 118.675781 255.25 C 117.550781 254.140625 116.453125 253.007812 115.382812 251.84375 C 114.3125 250.683594 113.273438 249.496094 112.261719 248.285156 C 111.25 247.070312 110.273438 245.835938 109.324219 244.578125 C 108.375 243.316406 107.457031 242.035156 106.574219 240.730469 C 105.6875 239.429688 104.835938 238.101562 104.015625 236.757812 C 103.199219 235.414062 102.414062 234.050781 101.660156 232.667969 C 100.910156 231.285156 100.195312 229.882812 99.515625 228.464844 C 98.832031 227.046875 98.1875 225.617188 97.578125 224.167969 C 96.96875 222.71875 96.394531 221.253906 95.859375 219.777344 C 95.324219 218.300781 94.824219 216.8125 94.359375 215.3125 C 93.898438 213.8125 93.472656 212.300781 93.085938 210.78125 C 92.699219 209.261719 92.351562 207.730469 92.039062 206.191406 C 91.730469 204.65625 91.457031 203.109375 91.222656 201.558594 C 90.988281 200.007812 90.792969 198.453125 90.636719 196.890625 C 90.480469 195.332031 90.363281 193.765625 90.285156 192.203125 C 90.207031 190.636719 90.167969 189.066406 90.167969 187.5 C 90.167969 185.933594 90.207031 184.363281 90.285156 182.796875 C 90.363281 181.230469 90.480469 179.667969 90.636719 178.109375 C 90.792969 176.546875 90.988281 174.992188 91.222656 173.441406 C 91.457031 171.890625 91.730469 170.34375 92.039062 168.808594 C 92.351562 167.269531 92.699219 165.738281 93.085938 164.21875 C 93.472656 162.699219 93.898438 161.1875 94.359375 159.6875 C 94.824219 158.1875 95.324219 156.699219 95.859375 155.222656 C 96.394531 153.746094 96.96875 152.28125 97.578125 150.832031 C 98.1875 149.382812 98.832031 147.953125 99.515625 146.535156 C 100.195312 145.117188 100.910156 143.714844 101.660156 142.332031 C 102.414062 140.949219 103.199219 139.585938 104.015625 138.242188 C 104.835938 136.894531 105.6875 135.570312 106.574219 134.269531 C 107.457031 132.964844 108.375 131.683594 109.324219 130.421875 C 110.273438 129.164062 111.25 127.929688 112.261719 126.714844 C 113.273438 125.503906 114.3125 124.316406 115.382812 123.15625 C 116.453125 121.992188 117.550781 120.859375 118.675781 119.75 C 119.804688 118.640625 120.957031 117.558594 122.136719 116.507812 C 123.316406 115.453125 124.523438 114.429688 125.753906 113.433594 C 126.984375 112.441406 128.242188 111.476562 129.519531 110.539062 C 130.800781 109.605469 132.101562 108.703125 133.425781 107.832031 C 134.75 106.960938 136.097656 106.125 137.460938 105.316406 C 138.828125 104.511719 140.214844 103.738281 141.617188 103 C 143.023438 102.261719 144.445312 101.554688 145.886719 100.882812 C 147.324219 100.214844 148.78125 99.578125 150.253906 98.980469 C 151.726562 98.378906 153.210938 97.816406 154.710938 97.285156 C 156.210938 96.757812 157.722656 96.265625 159.246094 95.8125 C 160.769531 95.355469 162.304688 94.9375 163.851562 94.558594 C 165.394531 94.175781 166.949219 93.832031 168.511719 93.527344 C 170.074219 93.21875 171.644531 92.953125 173.21875 92.722656 C 174.792969 92.492188 176.375 92.300781 177.960938 92.148438 C 179.546875 91.992188 181.132812 91.878906 182.722656 91.800781 C 184.316406 91.722656 185.90625 91.683594 187.5 91.683594 C 189.09375 91.683594 190.683594 91.722656 192.277344 91.800781 C 193.867188 91.878906 195.453125 91.992188 197.039062 92.148438 C 198.625 92.300781 200.207031 92.492188 201.78125 92.722656 C 203.355469 92.953125 204.925781 93.21875 206.488281 93.527344 C 208.050781 93.832031 209.605469 94.175781 211.148438 94.558594 C 212.695312 94.9375 214.230469 95.355469 215.753906 95.8125 C 217.277344 96.265625 218.789062 96.757812 220.289062 97.285156 C 221.789062 97.816406 223.273438 98.378906 224.746094 98.980469 C 226.21875 99.578125 227.675781 100.214844 229.113281 100.882812 C 230.554688 101.554688 231.976562 102.261719 233.382812 103 C 234.785156 103.738281 236.171875 104.511719 237.539062 105.316406 C 238.902344 106.125 240.25 106.960938 241.574219 107.832031 C 242.898438 108.703125 244.199219 109.605469 245.480469 110.539062 C 246.757812 111.476562 248.015625 112.441406 249.246094 113.433594 C 250.476562 114.429688 251.683594 115.453125 252.863281 116.507812 C 254.042969 117.558594 255.195312 118.640625 256.324219 119.75 C 257.449219 120.859375 258.546875 121.992188 259.617188 123.15625 C 260.6875 124.316406 261.726562 125.503906 262.738281 126.714844 C 263.75 127.929688 264.726562 129.164062 265.675781 130.421875 C 266.625 131.683594 267.542969 132.964844 268.425781 134.269531 C 269.3125 135.570312 270.164062 136.894531 270.984375 138.242188 C 271.800781 139.585938 272.585938 140.949219 273.339844 142.332031 C 274.089844 143.714844 274.804688 145.117188 275.484375 146.535156 C 276.167969 147.953125 276.8125 149.382812 277.421875 150.832031 C 278.03125 152.28125 278.605469 153.746094 279.140625 155.222656 C 279.675781 156.699219 280.175781 158.1875 280.640625 159.6875 C 281.101562 161.1875 281.527344 162.699219 281.914062 164.21875 C 282.300781 165.738281 282.648438 167.269531 282.960938 168.808594 C 283.269531 170.34375 283.542969 171.890625 283.777344 173.441406 C 284.011719 174.992188 284.207031 176.546875 284.363281 178.109375 C 284.519531 179.667969 284.636719 181.230469 284.714844 182.796875 C 284.792969 184.363281 284.832031 185.933594 284.832031 187.5 Z M 284.832031 187.5 " fill-opacity="1" fill-rule="nonzero"/><g clip-path="url(#40e1f66117)"><path fill="#ffde59" d="M 187.5 67.933594 C 184.671875 67.933594 182.445312 65.710938 182.445312 62.878906 L 182.445312 8.101562 C 182.445312 5.269531 184.671875 3.046875 187.5 3.046875 C 190.328125 3.046875 192.554688 5.269531 192.554688 8.101562 L 192.554688 62.878906 C 192.554688 65.609375 190.230469 67.933594 187.5 67.933594 Z M 192.554688 366.898438 L 192.554688 312.121094 C 192.554688 309.289062 190.328125 307.066406 187.5 307.066406 C 184.671875 307.066406 182.445312 309.289062 182.445312 312.121094 L 182.445312 366.898438 C 182.445312 369.730469 184.671875 371.953125 187.5 371.953125 C 190.328125 371.953125 192.554688 369.730469 192.554688 366.898438 Z M 65.8125 187.5 C 65.8125 184.671875 63.589844 182.445312 60.757812 182.445312 L 5.167969 182.445312 C 2.339844 182.445312 0.117188 184.671875 0.117188 187.5 C 0.117188 190.328125 2.339844 192.554688 5.167969 192.554688 L 60.757812 192.554688 C 63.589844 192.554688 65.8125 190.328125 65.8125 187.5 Z M 374.882812 187.5 C 374.882812 184.671875 372.660156 182.445312 369.832031 182.445312 L 314.242188 182.445312 C 311.410156 182.445312 309.1875 184.671875 309.1875 187.5 C 309.1875 190.328125 311.410156 192.554688 314.242188 192.554688 L 369.832031 192.554688 C 372.660156 192.554688 374.882812 190.328125 374.882812 187.5 Z M 101.488281 102.902344 C 103.410156 100.882812 103.410156 97.75 101.386719 95.726562 L 62.070312 57.019531 C 60.050781 55.097656 56.917969 55.097656 54.894531 57.121094 C 52.976562 59.140625 52.976562 62.273438 54.996094 64.296875 L 94.3125 103.003906 C 95.324219 104.015625 96.535156 104.421875 97.851562 104.421875 C 99.164062 104.421875 100.480469 103.914062 101.488281 102.902344 Z M 320.003906 317.980469 C 321.921875 315.960938 321.921875 312.828125 319.902344 310.804688 L 280.585938 272.097656 C 278.5625 270.175781 275.429688 270.175781 273.410156 272.195312 C 271.488281 274.21875 271.488281 277.351562 273.511719 279.371094 L 312.828125 318.082031 C 313.835938 319.09375 315.050781 319.496094 316.363281 319.496094 C 317.679688 319.496094 318.992188 318.992188 320.003906 317.980469 Z M 62.070312 317.980469 L 101.386719 279.273438 C 103.410156 277.351562 103.410156 274.117188 101.488281 272.097656 C 99.570312 270.074219 96.335938 270.074219 94.3125 271.996094 L 54.996094 310.804688 C 52.976562 312.726562 52.976562 315.960938 54.894531 317.980469 C 55.90625 318.992188 57.21875 319.496094 58.535156 319.496094 C 59.847656 319.496094 61.0625 318.992188 62.070312 317.980469 Z M 280.585938 103.003906 L 319.902344 64.296875 C 321.921875 62.375 321.921875 59.140625 320.003906 57.121094 C 318.082031 55.097656 314.847656 55.097656 312.828125 57.019531 L 273.511719 95.726562 C 271.488281 97.648438 271.488281 100.882812 273.410156 102.902344 C 274.421875 103.914062 275.734375 104.421875 277.046875 104.421875 C 278.363281 104.421875 279.675781 103.914062 280.585938 103.003906 Z M 140.804688 76.726562 C 143.332031 75.617188 144.546875 72.683594 143.535156 70.15625 L 133.628906 46.609375 C 132.519531 44.082031 129.585938 42.867188 126.957031 43.878906 C 124.433594 44.992188 123.21875 47.921875 124.230469 50.449219 L 134.136719 74 C 134.945312 75.917969 136.863281 77.132812 138.785156 77.132812 C 139.59375 77.132812 140.199219 77.03125 140.804688 76.726562 Z M 247.941406 331.222656 C 250.464844 330.109375 251.679688 327.179688 250.667969 324.652344 L 240.765625 301.101562 C 239.652344 298.574219 236.722656 297.363281 234.09375 298.375 C 231.566406 299.484375 230.355469 302.417969 231.363281 304.945312 L 241.269531 328.492188 C 242.078125 330.414062 244 331.625 245.917969 331.625 C 246.625 331.625 247.332031 331.425781 247.941406 331.222656 Z M 48.125 249.757812 L 72.078125 239.957031 C 74.707031 238.945312 75.917969 235.914062 74.808594 233.386719 C 73.796875 230.757812 70.765625 229.546875 68.238281 230.65625 L 44.285156 240.460938 C 41.65625 241.472656 40.441406 244.503906 41.554688 247.03125 C 42.363281 248.949219 44.285156 250.164062 46.203125 250.164062 C 46.808594 250.164062 47.519531 250.0625 48.125 249.757812 Z M 306.660156 144.445312 L 330.617188 134.640625 C 333.242188 133.628906 334.457031 130.597656 333.34375 128.070312 C 332.332031 125.441406 329.300781 124.230469 326.773438 125.34375 L 302.820312 135.144531 C 300.191406 136.15625 298.980469 139.1875 300.09375 141.714844 C 300.902344 143.636719 302.820312 144.847656 304.742188 144.847656 C 305.449219 144.746094 306.054688 144.644531 306.660156 144.445312 Z M 240.765625 74.097656 L 250.667969 50.550781 C 251.78125 48.023438 250.566406 44.992188 247.941406 43.980469 C 245.3125 42.867188 242.382812 44.082031 241.269531 46.710938 L 231.363281 70.257812 C 230.253906 72.785156 231.464844 75.816406 234.09375 76.828125 C 234.699219 77.132812 235.40625 77.230469 236.011719 77.230469 C 238.035156 77.132812 239.957031 76.019531 240.765625 74.097656 Z M 133.628906 328.492188 L 143.535156 304.945312 C 144.644531 302.417969 143.433594 299.382812 140.804688 298.375 C 138.179688 297.261719 135.246094 298.476562 134.136719 301.101562 L 124.230469 324.652344 C 123.117188 327.179688 124.332031 330.210938 126.957031 331.222656 C 127.566406 331.523438 128.273438 331.625 128.878906 331.625 C 130.902344 331.625 132.820312 330.414062 133.628906 328.492188 Z M 74.90625 141.613281 C 75.917969 138.984375 74.707031 136.054688 72.179688 135.042969 L 48.226562 125.242188 C 45.597656 124.230469 42.667969 125.441406 41.65625 127.96875 C 40.644531 130.597656 41.859375 133.527344 44.382812 134.539062 L 68.339844 144.34375 C 68.945312 144.644531 69.652344 144.746094 70.257812 144.746094 C 72.179688 144.746094 74.097656 143.535156 74.90625 141.613281 Z M 333.445312 247.03125 C 334.457031 244.402344 333.242188 241.472656 330.714844 240.460938 L 306.660156 230.65625 C 304.035156 229.644531 301.101562 230.859375 300.09375 233.386719 C 299.082031 236.015625 300.292969 238.945312 302.820312 239.957031 L 326.773438 249.757812 C 327.382812 250.0625 328.089844 250.164062 328.695312 250.164062 C 330.714844 250.164062 332.636719 248.949219 333.445312 247.03125 Z M 333.445312 247.03125 " fill-opacity="1" fill-rule="nonzero"/></g><g clip-path="url(#b39d692bb7)"><path fill="#000000" d="M 224.753906 234.816406 C 226.503906 233.464844 228.144531 231.992188 229.679688 230.398438 L 264.664062 195.390625 C 265.710938 194.34375 266.511719 193.140625 267.074219 191.773438 C 267.636719 190.40625 267.914062 188.984375 267.910156 187.507812 L 267.910156 186.75 L 267.890625 186.75 C 267.796875 185.402344 267.472656 184.113281 266.914062 182.886719 C 266.355469 181.65625 265.601562 180.566406 264.644531 179.609375 C 263.707031 178.675781 262.632812 177.933594 261.429688 177.382812 C 260.222656 176.835938 258.957031 176.511719 257.632812 176.417969 C 257.542969 175.898438 257.414062 175.386719 257.253906 174.882812 C 256.695312 173.179688 255.773438 171.707031 254.492188 170.457031 L 254.269531 170.238281 C 253.328125 169.351562 252.265625 168.648438 251.078125 168.136719 C 249.890625 167.621094 248.648438 167.324219 247.359375 167.246094 L 246.601562 167.207031 C 245.121094 167.207031 243.699219 167.488281 242.332031 168.058594 C 240.964844 168.625 239.757812 169.433594 238.714844 170.484375 L 212.667969 196.585938 L 165.285156 196.679688 L 165.144531 196.660156 C 163.53125 196.546875 161.96875 196.773438 160.453125 197.34375 C 159.015625 197.871094 157.742188 198.671875 156.640625 199.738281 L 130.074219 226.324219 C 129.476562 226.910156 129.191406 227.625 129.21875 228.460938 L 129.246094 255.570312 L 129.226562 255.808594 C 129.230469 256.199219 129.308594 256.574219 129.457031 256.9375 C 129.609375 257.296875 129.824219 257.613281 130.101562 257.890625 C 130.378906 258.167969 130.699219 258.378906 131.058594 258.53125 C 131.421875 258.679688 131.796875 258.757812 132.1875 258.757812 L 156.269531 258.710938 C 157.109375 258.714844 157.820312 258.414062 158.40625 257.8125 L 164.230469 251.71875 L 219.207031 237.832031 C 221.222656 237.140625 223.074219 236.132812 224.753906 234.816406 Z M 246.605469 173.128906 L 246.886719 173.128906 C 248.234375 173.191406 249.382812 173.695312 250.34375 174.640625 C 250.941406 175.238281 251.378906 175.933594 251.664062 176.730469 C 251.75 176.992188 251.800781 177.257812 251.824219 177.53125 C 250.726562 178.074219 249.742188 178.773438 248.871094 179.628906 L 224.507812 204.015625 C 223.960938 202.414062 223.085938 201.019531 221.890625 199.824219 C 221.179688 199.132812 220.390625 198.542969 219.53125 198.054688 L 242.894531 174.644531 C 243.386719 174.15625 243.957031 173.78125 244.601562 173.519531 C 245.242188 173.257812 245.914062 173.125 246.605469 173.128906 Z M 217.601562 232.175781 L 161.988281 246.214844 C 161.390625 246.355469 160.890625 246.652344 160.488281 247.117188 L 155.023438 252.828125 L 135.136719 252.851562 L 135.109375 229.648438 L 160.738281 203.964844 C 161.277344 203.449219 161.894531 203.0625 162.601562 202.816406 C 163.304688 202.566406 164.027344 202.476562 164.773438 202.546875 L 214.011719 202.46875 C 215.347656 202.46875 216.515625 202.910156 217.507812 203.800781 L 217.707031 204.003906 C 218.664062 204.933594 219.183594 206.0625 219.269531 207.394531 L 219.269531 207.710938 C 219.269531 208.410156 219.132812 209.082031 218.863281 209.722656 C 218.59375 210.367188 218.210938 210.933594 217.714844 211.425781 C 217.226562 211.917969 216.664062 212.300781 216.023438 212.566406 C 215.382812 212.832031 214.71875 212.964844 214.023438 212.964844 L 180.039062 213.003906 C 179.644531 213.003906 179.269531 213.078125 178.90625 213.226562 C 178.546875 213.378906 178.226562 213.589844 177.949219 213.867188 C 177.671875 214.144531 177.457031 214.464844 177.308594 214.824219 C 177.15625 215.1875 177.082031 215.5625 177.082031 215.957031 C 177.082031 216.347656 177.15625 216.722656 177.308594 217.085938 C 177.457031 217.445312 177.671875 217.765625 177.949219 218.042969 C 178.226562 218.320312 178.546875 218.53125 178.90625 218.683594 C 179.269531 218.832031 179.644531 218.90625 180.039062 218.90625 L 214.023438 218.871094 C 215.503906 218.871094 216.929688 218.585938 218.292969 218.019531 C 219.660156 217.449219 220.867188 216.640625 221.90625 215.589844 C 222.585938 214.886719 223.164062 214.105469 223.640625 213.253906 L 253.050781 183.8125 C 253.539062 183.3125 254.105469 182.933594 254.75 182.664062 C 255.394531 182.398438 256.0625 182.265625 256.761719 182.273438 L 257.011719 182.273438 C 258.359375 182.328125 259.511719 182.832031 260.46875 183.785156 C 261.414062 184.742188 261.925781 185.890625 262.011719 187.234375 L 262.011719 187.511719 C 262.007812 188.207031 261.875 188.875 261.609375 189.519531 C 261.34375 190.164062 260.96875 190.730469 260.476562 191.226562 L 225.464844 226.292969 C 224.144531 227.675781 222.726562 228.945312 221.214844 230.109375 C 220.121094 230.992188 218.914062 231.675781 217.601562 232.167969 Z M 141.398438 141.914062 C 141.386719 141.507812 141.453125 141.117188 141.601562 140.738281 C 141.75 140.363281 141.96875 140.027344 142.257812 139.742188 C 142.542969 139.453125 142.875 139.234375 143.253906 139.085938 C 143.628906 138.933594 144.019531 138.867188 144.425781 138.878906 C 147.472656 138.839844 150.519531 138.839844 153.566406 138.878906 C 153.964844 138.878906 154.347656 138.957031 154.714844 139.113281 C 155.078125 139.265625 155.402344 139.484375 155.683594 139.765625 C 155.960938 140.050781 156.175781 140.375 156.328125 140.742188 C 156.476562 141.109375 156.550781 141.492188 156.550781 141.890625 C 156.546875 142.289062 156.46875 142.667969 156.316406 143.035156 C 156.160156 143.402344 155.941406 143.726562 155.660156 144.003906 C 155.378906 144.285156 155.050781 144.5 154.683594 144.648438 C 154.316406 144.800781 153.933594 144.875 153.535156 144.871094 C 151.996094 144.90625 150.460938 144.871094 148.921875 144.871094 C 147.441406 144.871094 145.964844 144.882812 144.488281 144.871094 C 144.082031 144.890625 143.691406 144.828125 143.3125 144.6875 C 142.933594 144.546875 142.597656 144.335938 142.308594 144.054688 C 142.015625 143.773438 141.789062 143.449219 141.632812 143.078125 C 141.472656 142.707031 141.394531 142.316406 141.398438 141.914062 Z M 182.332031 161.941406 C 182.925781 161.949219 183.519531 161.929688 184.113281 161.882812 C 184.707031 161.832031 185.292969 161.753906 185.878906 161.648438 C 186.464844 161.539062 187.042969 161.40625 187.613281 161.242188 C 188.183594 161.078125 188.746094 160.886719 189.296875 160.667969 C 189.851562 160.445312 190.390625 160.199219 190.917969 159.929688 C 191.449219 159.65625 191.960938 159.359375 192.460938 159.035156 C 192.960938 158.710938 193.441406 158.363281 193.90625 157.996094 C 194.371094 157.625 194.816406 157.230469 195.242188 156.816406 C 195.667969 156.402344 196.070312 155.96875 196.453125 155.515625 C 196.839844 155.058594 197.199219 154.589844 197.535156 154.097656 C 197.871094 153.609375 198.183594 153.105469 198.46875 152.582031 C 198.757812 152.0625 199.015625 151.53125 199.25 150.984375 C 199.484375 150.4375 199.691406 149.882812 199.871094 149.316406 C 200.050781 148.75 200.199219 148.175781 200.324219 147.59375 C 200.445312 147.015625 200.539062 146.429688 200.605469 145.835938 C 200.667969 145.246094 200.707031 144.65625 200.710938 144.0625 C 200.71875 143.46875 200.695312 142.875 200.644531 142.28125 C 200.589844 141.691406 200.511719 141.105469 200.402344 140.519531 C 200.289062 139.9375 200.152344 139.359375 199.984375 138.789062 C 199.820312 138.21875 199.625 137.660156 199.402344 137.109375 C 199.179688 136.558594 198.929688 136.019531 198.65625 135.492188 C 198.378906 134.964844 198.078125 134.453125 197.753906 133.957031 C 197.429688 133.460938 197.078125 132.980469 196.707031 132.519531 C 196.332031 132.054688 195.9375 131.613281 195.519531 131.1875 C 195.105469 130.765625 194.667969 130.363281 194.210938 129.984375 C 193.753906 129.601562 193.28125 129.246094 192.789062 128.910156 C 192.296875 128.578125 191.789062 128.269531 191.269531 127.984375 C 190.746094 127.699219 190.210938 127.441406 189.664062 127.210938 C 189.117188 126.980469 188.558594 126.777344 187.992188 126.601562 C 187.421875 126.425781 186.847656 126.277344 186.265625 126.15625 C 185.683594 126.035156 185.097656 125.945312 184.503906 125.882812 C 183.914062 125.820312 183.320312 125.789062 182.726562 125.785156 C 182.132812 125.78125 181.539062 125.808594 180.945312 125.863281 C 180.355469 125.917969 179.765625 126 179.183594 126.113281 C 178.601562 126.226562 178.023438 126.367188 177.453125 126.535156 C 176.882812 126.707031 176.324219 126.902344 175.773438 127.128906 C 175.222656 127.351562 174.683594 127.601562 174.160156 127.878906 C 173.632812 128.15625 173.121094 128.460938 172.625 128.789062 C 172.132812 129.117188 171.652344 129.46875 171.191406 129.84375 C 170.730469 130.21875 170.289062 130.613281 169.867188 131.03125 C 169.445312 131.449219 169.042969 131.890625 168.667969 132.347656 C 168.289062 132.804688 167.933594 133.28125 167.601562 133.773438 C 167.269531 134.265625 166.960938 134.773438 166.679688 135.296875 C 166.398438 135.820312 166.144531 136.355469 165.914062 136.902344 C 165.683594 137.453125 165.484375 138.007812 165.308594 138.578125 C 165.136719 139.144531 164.992188 139.71875 164.875 140.304688 C 164.757812 140.886719 164.667969 141.472656 164.609375 142.0625 C 164.550781 142.652344 164.519531 143.246094 164.519531 143.839844 C 164.523438 144.425781 164.558594 145.007812 164.621094 145.589844 C 164.679688 146.171875 164.769531 146.75 164.886719 147.324219 C 165.003906 147.894531 165.148438 148.460938 165.320312 149.023438 C 165.492188 149.582031 165.691406 150.128906 165.914062 150.671875 C 166.140625 151.210938 166.386719 151.738281 166.664062 152.257812 C 166.9375 152.773438 167.238281 153.273438 167.5625 153.761719 C 167.882812 154.25 168.230469 154.722656 168.597656 155.175781 C 168.96875 155.628906 169.359375 156.066406 169.769531 156.484375 C 170.179688 156.902344 170.609375 157.296875 171.058594 157.671875 C 171.503906 158.050781 171.972656 158.402344 172.453125 158.734375 C 172.9375 159.066406 173.433594 159.371094 173.945312 159.65625 C 174.457031 159.941406 174.984375 160.199219 175.519531 160.433594 C 176.054688 160.664062 176.605469 160.871094 177.160156 161.054688 C 177.71875 161.234375 178.28125 161.386719 178.851562 161.515625 C 179.425781 161.640625 180 161.738281 180.582031 161.8125 C 181.164062 161.882812 181.746094 161.925781 182.332031 161.941406 Z M 182.929688 131.820312 C 183.71875 131.835938 184.496094 131.933594 185.265625 132.101562 C 186.035156 132.273438 186.78125 132.519531 187.503906 132.835938 C 188.222656 133.152344 188.90625 133.535156 189.554688 133.984375 C 190.199219 134.4375 190.796875 134.945312 191.34375 135.511719 C 191.886719 136.082031 192.375 136.695312 192.800781 137.359375 C 193.226562 138.019531 193.582031 138.71875 193.871094 139.449219 C 194.160156 140.183594 194.375 140.9375 194.515625 141.710938 C 194.65625 142.484375 194.722656 143.265625 194.710938 144.050781 C 194.695312 144.839844 194.609375 145.617188 194.445312 146.386719 C 194.277344 147.15625 194.039062 147.902344 193.730469 148.628906 C 193.417969 149.351562 193.039062 150.035156 192.59375 150.6875 C 192.148438 151.335938 191.644531 151.933594 191.078125 152.484375 C 190.515625 153.035156 189.90625 153.523438 189.246094 153.957031 C 188.585938 154.386719 187.890625 154.75 187.160156 155.042969 C 186.429688 155.335938 185.675781 155.558594 184.902344 155.707031 C 184.128906 155.851562 183.347656 155.921875 182.558594 155.917969 C 181.773438 155.910156 180.992188 155.828125 180.21875 155.671875 C 179.449219 155.511719 178.699219 155.28125 177.972656 154.976562 C 177.246094 154.671875 176.554688 154.296875 175.902344 153.859375 C 175.25 153.417969 174.644531 152.917969 174.089844 152.359375 C 173.535156 151.800781 173.039062 151.195312 172.601562 150.539062 C 172.167969 149.882812 171.796875 149.191406 171.496094 148.464844 C 171.195312 147.738281 170.96875 146.988281 170.816406 146.214844 C 170.664062 145.441406 170.585938 144.664062 170.585938 143.875 C 170.585938 143.074219 170.664062 142.277344 170.820312 141.488281 C 170.980469 140.703125 171.214844 139.9375 171.527344 139.195312 C 171.839844 138.457031 172.21875 137.753906 172.671875 137.089844 C 173.125 136.425781 173.640625 135.8125 174.214844 135.25 C 174.789062 134.6875 175.414062 134.1875 176.089844 133.753906 C 176.765625 133.316406 177.476562 132.949219 178.226562 132.65625 C 178.976562 132.363281 179.746094 132.144531 180.539062 132.003906 C 181.328125 131.867188 182.128906 131.804688 182.929688 131.824219 Z M 152.660156 118.140625 C 152.414062 117.855469 152.230469 117.535156 152.113281 117.179688 C 151.992188 116.824219 151.941406 116.460938 151.964844 116.085938 C 151.988281 115.710938 152.078125 115.351562 152.242188 115.011719 C 152.402344 114.675781 152.625 114.378906 152.902344 114.125 C 153.171875 113.851562 153.480469 113.640625 153.832031 113.488281 C 154.183594 113.335938 154.550781 113.257812 154.9375 113.25 C 155.320312 113.242188 155.6875 113.308594 156.046875 113.445312 C 156.40625 113.582031 156.722656 113.78125 157.003906 114.042969 C 159.273438 116.25 161.523438 118.488281 163.714844 120.78125 C 164.121094 121.359375 164.433594 121.984375 164.65625 122.660156 C 164.609375 123.269531 164.410156 123.824219 164.0625 124.324219 C 163.714844 124.828125 163.265625 125.207031 162.710938 125.46875 C 162.460938 125.605469 162.195312 125.699219 161.917969 125.75 C 161.636719 125.800781 161.355469 125.808594 161.074219 125.773438 C 160.792969 125.738281 160.523438 125.65625 160.269531 125.535156 C 160.011719 125.414062 159.78125 125.253906 159.574219 125.058594 C 157.222656 122.804688 154.90625 120.503906 152.660156 118.140625 Z M 211.753906 138.890625 C 213.292969 138.859375 214.832031 138.890625 216.371094 138.890625 C 217.820312 138.890625 219.265625 138.890625 220.71875 138.890625 C 221.125 138.871094 221.519531 138.929688 221.902344 139.074219 C 222.285156 139.214844 222.625 139.425781 222.917969 139.703125 C 223.214844 139.984375 223.445312 140.308594 223.609375 140.683594 C 223.773438 141.054688 223.859375 141.445312 223.863281 141.855469 C 223.867188 142.261719 223.792969 142.652344 223.636719 143.03125 C 223.484375 143.40625 223.261719 143.738281 222.972656 144.027344 C 222.683594 144.3125 222.347656 144.53125 221.96875 144.679688 C 221.589844 144.832031 221.195312 144.902344 220.789062 144.894531 C 217.769531 144.929688 214.753906 144.929688 211.738281 144.894531 C 211.332031 144.894531 210.9375 144.820312 210.5625 144.664062 C 210.1875 144.507812 209.855469 144.285156 209.570312 143.996094 C 209.28125 143.707031 209.0625 143.375 208.910156 142.996094 C 208.757812 142.621094 208.683594 142.226562 208.691406 141.820312 C 208.695312 141.421875 208.78125 141.042969 208.9375 140.675781 C 209.097656 140.308594 209.320312 139.988281 209.609375 139.714844 C 209.894531 139.4375 210.226562 139.226562 210.597656 139.082031 C 210.96875 138.9375 211.355469 138.871094 211.753906 138.878906 Z M 179.625 114.6875 C 179.609375 113.179688 179.625 111.671875 179.625 110.167969 C 179.625 108.660156 179.601562 107.148438 179.625 105.644531 C 179.625 105.246094 179.699219 104.867188 179.851562 104.5 C 180.003906 104.132812 180.222656 103.808594 180.503906 103.527344 C 180.78125 103.246094 181.105469 103.03125 181.472656 102.878906 C 181.839844 102.726562 182.222656 102.652344 182.621094 102.652344 C 183.015625 102.652344 183.398438 102.726562 183.765625 102.878906 C 184.132812 103.03125 184.457031 103.246094 184.738281 103.527344 C 185.019531 103.808594 185.234375 104.132812 185.386719 104.5 C 185.539062 104.867188 185.613281 105.246094 185.613281 105.644531 C 185.644531 108.6875 185.644531 111.734375 185.613281 114.777344 C 185.609375 115.175781 185.527344 115.558594 185.371094 115.921875 C 185.214844 116.289062 184.992188 116.609375 184.707031 116.886719 C 184.421875 117.164062 184.09375 117.375 183.722656 117.523438 C 183.351562 117.671875 182.96875 117.742188 182.570312 117.734375 C 182.171875 117.730469 181.789062 117.648438 181.425781 117.492188 C 181.058594 117.335938 180.738281 117.113281 180.460938 116.828125 C 180.183594 116.542969 179.96875 116.214844 179.824219 115.847656 C 179.675781 115.476562 179.605469 115.09375 179.609375 114.695312 Z M 201.050781 124.003906 C 200.914062 123.730469 200.820312 123.445312 200.773438 123.140625 C 200.730469 122.839844 200.730469 122.539062 200.78125 122.238281 C 200.832031 121.933594 200.929688 121.648438 201.074219 121.378906 C 201.21875 121.109375 201.398438 120.871094 201.621094 120.65625 C 203.152344 119.074219 204.726562 117.535156 206.285156 115.976562 C 206.902344 115.355469 207.511719 114.726562 208.152344 114.128906 C 208.429688 113.847656 208.75 113.628906 209.117188 113.472656 C 209.480469 113.316406 209.863281 113.238281 210.261719 113.234375 C 210.65625 113.230469 211.039062 113.300781 211.40625 113.449219 C 211.777344 113.597656 212.101562 113.8125 212.386719 114.089844 C 212.667969 114.367188 212.890625 114.6875 213.046875 115.050781 C 213.199219 115.417969 213.28125 115.796875 213.285156 116.195312 C 213.289062 116.59375 213.21875 116.972656 213.070312 117.34375 C 212.921875 117.710938 212.707031 118.035156 212.429688 118.320312 C 210.261719 120.546875 208.070312 122.753906 205.820312 124.902344 C 205.328125 125.277344 204.789062 125.558594 204.199219 125.753906 C 203.878906 125.789062 203.558594 125.777344 203.242188 125.714844 C 202.925781 125.652344 202.625 125.539062 202.34375 125.382812 C 202.0625 125.226562 201.808594 125.03125 201.589844 124.792969 C 201.371094 124.558594 201.191406 124.296875 201.050781 124.003906 Z M 159.570312 162.515625 C 159.773438 162.320312 160.007812 162.160156 160.261719 162.039062 C 160.519531 161.917969 160.789062 161.839844 161.070312 161.800781 C 161.351562 161.765625 161.632812 161.773438 161.910156 161.824219 C 162.191406 161.875 162.453125 161.972656 162.703125 162.105469 C 163.257812 162.367188 163.710938 162.746094 164.058594 163.25 C 164.40625 163.75 164.601562 164.308594 164.652344 164.917969 C 164.429688 165.589844 164.113281 166.214844 163.707031 166.796875 C 161.511719 169.085938 159.269531 171.324219 156.996094 173.53125 C 156.71875 173.792969 156.398438 173.992188 156.039062 174.128906 C 155.683594 174.265625 155.3125 174.332031 154.929688 174.324219 C 154.546875 174.316406 154.179688 174.238281 153.828125 174.085938 C 153.476562 173.933594 153.164062 173.722656 152.894531 173.449219 C 152.617188 173.195312 152.398438 172.902344 152.234375 172.5625 C 152.074219 172.222656 151.980469 171.867188 151.960938 171.492188 C 151.9375 171.117188 151.984375 170.75 152.105469 170.394531 C 152.226562 170.039062 152.410156 169.71875 152.652344 169.433594 C 154.90625 167.070312 157.222656 164.773438 159.570312 162.515625 Z M 182.671875 169.761719 C 183.070312 169.765625 183.453125 169.847656 183.820312 170.003906 C 184.183594 170.160156 184.507812 170.382812 184.785156 170.667969 C 185.0625 170.953125 185.273438 171.28125 185.417969 171.652344 C 185.566406 172.023438 185.636719 172.40625 185.628906 172.804688 C 185.664062 175.847656 185.664062 178.894531 185.628906 181.9375 C 185.628906 182.335938 185.554688 182.71875 185.402344 183.082031 C 185.25 183.449219 185.03125 183.773438 184.75 184.054688 C 184.472656 184.335938 184.148438 184.550781 183.78125 184.703125 C 183.414062 184.855469 183.03125 184.929688 182.632812 184.929688 C 182.238281 184.929688 181.855469 184.855469 181.488281 184.703125 C 181.121094 184.550781 180.796875 184.335938 180.515625 184.054688 C 180.234375 183.773438 180.019531 183.449219 179.867188 183.082031 C 179.714844 182.71875 179.640625 182.335938 179.640625 181.9375 C 179.609375 180.429688 179.640625 178.925781 179.640625 177.417969 C 179.640625 175.90625 179.625 174.402344 179.640625 172.894531 C 179.621094 172.480469 179.683594 172.082031 179.832031 171.699219 C 179.976562 171.3125 180.195312 170.972656 180.480469 170.675781 C 180.769531 170.378906 181.101562 170.152344 181.480469 169.992188 C 181.863281 169.832031 182.257812 169.753906 182.671875 169.761719 Z M 204.199219 161.820312 C 204.789062 162.015625 205.328125 162.296875 205.820312 162.671875 C 208.070312 164.816406 210.261719 167.019531 212.429688 169.253906 C 212.707031 169.539062 212.921875 169.863281 213.070312 170.234375 C 213.21875 170.601562 213.292969 170.984375 213.289062 171.382812 C 213.285156 171.777344 213.203125 172.160156 213.050781 172.523438 C 212.894531 172.890625 212.675781 173.210938 212.390625 173.492188 C 212.105469 173.769531 211.78125 173.984375 211.414062 174.132812 C 211.042969 174.28125 210.660156 174.351562 210.265625 174.351562 C 209.867188 174.347656 209.484375 174.269531 209.117188 174.113281 C 208.753906 173.957031 208.429688 173.738281 208.152344 173.457031 C 207.511719 172.859375 206.902344 172.226562 206.285156 171.609375 C 204.726562 170.054688 203.152344 168.511719 201.621094 166.925781 C 201.398438 166.714844 201.21875 166.476562 201.074219 166.203125 C 200.929688 165.933594 200.832031 165.648438 200.78125 165.347656 C 200.730469 165.046875 200.730469 164.746094 200.773438 164.441406 C 200.820312 164.140625 200.914062 163.855469 201.050781 163.582031 C 201.1875 163.289062 201.367188 163.023438 201.589844 162.785156 C 201.808594 162.550781 202.058594 162.351562 202.34375 162.195312 C 202.625 162.035156 202.925781 161.925781 203.242188 161.863281 C 203.558594 161.796875 203.878906 161.785156 204.199219 161.820312 Z M 204.199219 161.820312 " fill-opacity="1" fill-rule="nonzero"/></g></svg>