<svg xmlns="http://www.w3.org/2000/svg" xmlns:xlink="http://www.w3.org/1999/xlink" width="500" zoomAndPan="magnify" viewBox="0 0 375 374.999991" height="500" preserveAspectRatio="xMidYMid meet" version="1.0"><defs><clipPath id="a99dd6a9fe"><path d="M 0 3.046875 L 375 3.046875 L 375 372 L 0 372 Z M 0 3.046875 " clip-rule="nonzero"/></clipPath><clipPath id="c4c03f2427"><path d="M 81.175781 83.566406 L 292.050781 83.566406 L 292.050781 294.441406 L 81.175781 294.441406 Z M 81.175781 83.566406 " clip-rule="nonzero"/></clipPath><clipPath id="404152c78e"><path d="M 186.613281 83.566406 C 128.382812 83.566406 81.175781 130.773438 81.175781 189.003906 C 81.175781 247.234375 128.382812 294.441406 186.613281 294.441406 C 244.847656 294.441406 292.050781 247.234375 292.050781 189.003906 C 292.050781 130.773438 244.847656 83.566406 186.613281 83.566406 Z M 186.613281 83.566406 " clip-rule="nonzero"/></clipPath><clipPath id="9112b40721"><path d="M 124.28125 115 L 248.480469 115 L 248.480469 267.601562 L 124.28125 267.601562 Z M 124.28125 115 " clip-rule="nonzero"/></clipPath></defs><path fill="#272727" d="M 284.832031 187.5 C 284.832031 189.066406 284.792969 190.636719 284.714844 192.203125 C 284.636719 193.765625 284.519531 195.332031 284.363281 196.890625 C 284.207031 198.453125 284.011719 200.007812 283.777344 201.558594 C 283.542969 203.109375 283.269531 204.65625 282.960938 206.191406 C 282.648438 207.730469 282.300781 209.261719 281.914062 210.78125 C 281.527344 212.300781 281.101562 213.8125 280.640625 215.3125 C 280.175781 216.8125 279.675781 218.300781 279.140625 219.777344 C 278.605469 221.253906 278.03125 222.71875 277.421875 224.167969 C 276.8125 225.617188 276.167969 227.046875 275.484375 228.464844 C 274.804688 229.882812 274.089844 231.285156 273.339844 232.667969 C 272.585938 234.050781 271.800781 235.414062 270.984375 236.757812 C 270.164062 238.101562 269.3125 239.429688 268.425781 240.730469 C 267.542969 242.035156 266.625 243.316406 265.675781 244.578125 C 264.726562 245.835938 263.75 247.070312 262.738281 248.285156 C 261.726562 249.496094 260.6875 250.683594 259.617188 251.84375 C 258.546875 253.007812 257.449219 254.140625 256.324219 255.25 C 255.195312 256.359375 254.042969 257.441406 252.863281 258.492188 C 251.683594 259.546875 250.476562 260.570312 249.246094 261.566406 C 248.015625 262.558594 246.757812 263.523438 245.480469 264.457031 C 244.199219 265.394531 242.898438 266.296875 241.574219 267.167969 C 240.25 268.039062 238.902344 268.875 237.539062 269.683594 C 236.171875 270.488281 234.785156 271.261719 233.382812 272 C 231.976562 272.738281 230.554688 273.445312 229.113281 274.117188 C 227.675781 274.785156 226.21875 275.421875 224.746094 276.019531 C 223.273438 276.621094 221.789062 277.183594 220.289062 277.714844 C 218.789062 278.242188 217.277344 278.734375 215.753906 279.1875 C 214.230469 279.644531 212.695312 280.0625 211.148438 280.441406 C 209.605469 280.824219 208.050781 281.167969 206.488281 281.472656 C 204.925781 281.78125 203.355469 282.046875 201.78125 282.277344 C 200.207031 282.507812 198.625 282.699219 197.039062 282.851562 C 195.453125 283.007812 193.867188 283.121094 192.277344 283.199219 C 190.683594 283.277344 189.09375 283.316406 187.5 283.316406 C 185.90625 283.316406 184.316406 283.277344 182.722656 283.199219 C 181.132812 283.121094 179.546875 283.007812 177.960938 282.851562 C 176.375 282.699219 174.792969 282.507812 173.21875 282.277344 C 171.644531 282.046875 170.074219 281.78125 168.511719 281.472656 C 166.949219 281.167969 165.394531 280.824219 163.851562 280.441406 C 162.304688 280.0625 160.769531 279.644531 159.246094 279.1875 C 157.722656 278.734375 156.210938 278.242188 154.710938 277.714844 C 153.210938 277.183594 151.726562 276.621094 150.253906 276.019531 C 148.78125 275.421875 147.324219 274.785156 145.886719 274.117188 C 144.445312 273.445312 143.023438 272.738281 141.617188 272 C 140.214844 271.261719 138.828125 270.488281 137.460938 269.683594 C 136.097656 268.875 134.75 268.039062 133.425781 267.167969 C 132.101562 266.296875 130.800781 265.394531 129.519531 264.457031 C 128.242188 263.523438 126.984375 262.558594 125.753906 261.566406 C 124.523438 260.570312 123.316406 259.546875 122.136719 258.492188 C 120.957031 257.441406 119.804688 256.359375 118.675781 255.25 C 117.550781 254.140625 116.453125 253.007812 115.382812 251.84375 C 114.3125 250.683594 113.273438 249.496094 112.261719 248.285156 C 111.25 247.070312 110.273438 245.835938 109.324219 244.578125 C 108.375 243.316406 107.457031 242.035156 106.574219 240.730469 C 105.6875 239.429688 104.835938 238.101562 104.015625 236.757812 C 103.199219 235.414062 102.414062 234.050781 101.660156 232.667969 C 100.910156 231.285156 100.195312 229.882812 99.515625 228.464844 C 98.832031 227.046875 98.1875 225.617188 97.578125 224.167969 C 96.96875 222.71875 96.394531 221.253906 95.859375 219.777344 C 95.324219 218.300781 94.824219 216.8125 94.359375 215.3125 C 93.898438 213.8125 93.472656 212.300781 93.085938 210.78125 C 92.699219 209.261719 92.351562 207.730469 92.039062 206.191406 C 91.730469 204.65625 91.457031 203.109375 91.222656 201.558594 C 90.988281 200.007812 90.792969 198.453125 90.636719 196.890625 C 90.480469 195.332031 90.363281 193.765625 90.285156 192.203125 C 90.207031 190.636719 90.167969 189.066406 90.167969 187.5 C 90.167969 185.933594 90.207031 184.363281 90.285156 182.796875 C 90.363281 181.230469 90.480469 179.667969 90.636719 178.109375 C 90.792969 176.546875 90.988281 174.992188 91.222656 173.441406 C 91.457031 171.890625 91.730469 170.34375 92.039062 168.808594 C 92.351562 167.269531 92.699219 165.738281 93.085938 164.21875 C 93.472656 162.699219 93.898438 161.1875 94.359375 159.6875 C 94.824219 158.1875 95.324219 156.699219 95.859375 155.222656 C 96.394531 153.746094 96.96875 152.28125 97.578125 150.832031 C 98.1875 149.382812 98.832031 147.953125 99.515625 146.535156 C 100.195312 145.117188 100.910156 143.714844 101.660156 142.332031 C 102.414062 140.949219 103.199219 139.585938 104.015625 138.242188 C 104.835938 136.894531 105.6875 135.570312 106.574219 134.269531 C 107.457031 132.964844 108.375 131.683594 109.324219 130.421875 C 110.273438 129.164062 111.25 127.929688 112.261719 126.714844 C 113.273438 125.503906 114.3125 124.316406 115.382812 123.15625 C 116.453125 121.992188 117.550781 120.859375 118.675781 119.75 C 119.804688 118.640625 120.957031 117.558594 122.136719 116.507812 C 123.316406 115.453125 124.523438 114.429688 125.753906 113.433594 C 126.984375 112.441406 128.242188 111.476562 129.519531 110.539062 C 130.800781 109.605469 132.101562 108.703125 133.425781 107.832031 C 134.75 106.960938 136.097656 106.125 137.460938 105.316406 C 138.828125 104.511719 140.214844 103.738281 141.617188 103 C 143.023438 102.261719 144.445312 101.554688 145.886719 100.882812 C 147.324219 100.214844 148.78125 99.578125 150.253906 98.980469 C 151.726562 98.378906 153.210938 97.816406 154.710938 97.285156 C 156.210938 96.757812 157.722656 96.265625 159.246094 95.8125 C 160.769531 95.355469 162.304688 94.9375 163.851562 94.558594 C 165.394531 94.175781 166.949219 93.832031 168.511719 93.527344 C 170.074219 93.21875 171.644531 92.953125 173.21875 92.722656 C 174.792969 92.492188 176.375 92.300781 177.960938 92.148438 C 179.546875 91.992188 181.132812 91.878906 182.722656 91.800781 C 184.316406 91.722656 185.90625 91.683594 187.5 91.683594 C 189.09375 91.683594 190.683594 91.722656 192.277344 91.800781 C 193.867188 91.878906 195.453125 91.992188 197.039062 92.148438 C 198.625 92.300781 200.207031 92.492188 201.78125 92.722656 C 203.355469 92.953125 204.925781 93.21875 206.488281 93.527344 C 208.050781 93.832031 209.605469 94.175781 211.148438 94.558594 C 212.695312 94.9375 214.230469 95.355469 215.753906 95.8125 C 217.277344 96.265625 218.789062 96.757812 220.289062 97.285156 C 221.789062 97.816406 223.273438 98.378906 224.746094 98.980469 C 226.21875 99.578125 227.675781 100.214844 229.113281 100.882812 C 230.554688 101.554688 231.976562 102.261719 233.382812 103 C 234.785156 103.738281 236.171875 104.511719 237.539062 105.316406 C 238.902344 106.125 240.25 106.960938 241.574219 107.832031 C 242.898438 108.703125 244.199219 109.605469 245.480469 110.539062 C 246.757812 111.476562 248.015625 112.441406 249.246094 113.433594 C 250.476562 114.429688 251.683594 115.453125 252.863281 116.507812 C 254.042969 117.558594 255.195312 118.640625 256.324219 119.75 C 257.449219 120.859375 258.546875 121.992188 259.617188 123.15625 C 260.6875 124.316406 261.726562 125.503906 262.738281 126.714844 C 263.75 127.929688 264.726562 129.164062 265.675781 130.421875 C 266.625 131.683594 267.542969 132.964844 268.425781 134.269531 C 269.3125 135.570312 270.164062 136.894531 270.984375 138.242188 C 271.800781 139.585938 272.585938 140.949219 273.339844 142.332031 C 274.089844 143.714844 274.804688 145.117188 275.484375 146.535156 C 276.167969 147.953125 276.8125 149.382812 277.421875 150.832031 C 278.03125 152.28125 278.605469 153.746094 279.140625 155.222656 C 279.675781 156.699219 280.175781 158.1875 280.640625 159.6875 C 281.101562 161.1875 281.527344 162.699219 281.914062 164.21875 C 282.300781 165.738281 282.648438 167.269531 282.960938 168.808594 C 283.269531 170.34375 283.542969 171.890625 283.777344 173.441406 C 284.011719 174.992188 284.207031 176.546875 284.363281 178.109375 C 284.519531 179.667969 284.636719 181.230469 284.714844 182.796875 C 284.792969 184.363281 284.832031 185.933594 284.832031 187.5 Z M 284.832031 187.5 " fill-opacity="1" fill-rule="nonzero"/><g clip-path="url(#a99dd6a9fe)"><path fill="#ffde59" d="M 187.5 67.933594 C 184.671875 67.933594 182.445312 65.710938 182.445312 62.878906 L 182.445312 8.101562 C 182.445312 5.269531 184.671875 3.046875 187.5 3.046875 C 190.328125 3.046875 192.554688 5.269531 192.554688 8.101562 L 192.554688 62.878906 C 192.554688 65.609375 190.230469 67.933594 187.5 67.933594 Z M 192.554688 366.898438 L 192.554688 312.121094 C 192.554688 309.289062 190.328125 307.066406 187.5 307.066406 C 184.671875 307.066406 182.445312 309.289062 182.445312 312.121094 L 182.445312 366.898438 C 182.445312 369.730469 184.671875 371.953125 187.5 371.953125 C 190.328125 371.953125 192.554688 369.730469 192.554688 366.898438 Z M 65.8125 187.5 C 65.8125 184.671875 63.589844 182.445312 60.757812 182.445312 L 5.167969 182.445312 C 2.339844 182.445312 0.117188 184.671875 0.117188 187.5 C 0.117188 190.328125 2.339844 192.554688 5.167969 192.554688 L 60.757812 192.554688 C 63.589844 192.554688 65.8125 190.328125 65.8125 187.5 Z M 374.882812 187.5 C 374.882812 184.671875 372.660156 182.445312 369.832031 182.445312 L 314.242188 182.445312 C 311.410156 182.445312 309.1875 184.671875 309.1875 187.5 C 309.1875 190.328125 311.410156 192.554688 314.242188 192.554688 L 369.832031 192.554688 C 372.660156 192.554688 374.882812 190.328125 374.882812 187.5 Z M 101.488281 102.902344 C 103.410156 100.882812 103.410156 97.75 101.386719 95.726562 L 62.070312 57.019531 C 60.050781 55.097656 56.917969 55.097656 54.894531 57.121094 C 52.976562 59.140625 52.976562 62.273438 54.996094 64.296875 L 94.3125 103.003906 C 95.324219 104.015625 96.535156 104.421875 97.851562 104.421875 C 99.164062 104.421875 100.480469 103.914062 101.488281 102.902344 Z M 320.003906 317.980469 C 321.921875 315.960938 321.921875 312.828125 319.902344 310.804688 L 280.585938 272.097656 C 278.5625 270.175781 275.429688 270.175781 273.410156 272.195312 C 271.488281 274.21875 271.488281 277.351562 273.511719 279.371094 L 312.828125 318.082031 C 313.835938 319.09375 315.050781 319.496094 316.363281 319.496094 C 317.679688 319.496094 318.992188 318.992188 320.003906 317.980469 Z M 62.070312 317.980469 L 101.386719 279.273438 C 103.410156 277.351562 103.410156 274.117188 101.488281 272.097656 C 99.570312 270.074219 96.335938 270.074219 94.3125 271.996094 L 54.996094 310.804688 C 52.976562 312.726562 52.976562 315.960938 54.894531 317.980469 C 55.90625 318.992188 57.21875 319.496094 58.535156 319.496094 C 59.847656 319.496094 61.0625 318.992188 62.070312 317.980469 Z M 280.585938 103.003906 L 319.902344 64.296875 C 321.921875 62.375 321.921875 59.140625 320.003906 57.121094 C 318.082031 55.097656 314.847656 55.097656 312.828125 57.019531 L 273.511719 95.726562 C 271.488281 97.648438 271.488281 100.882812 273.410156 102.902344 C 274.421875 103.914062 275.734375 104.421875 277.046875 104.421875 C 278.363281 104.421875 279.675781 103.914062 280.585938 103.003906 Z M 140.804688 76.726562 C 143.332031 75.617188 144.546875 72.683594 143.535156 70.15625 L 133.628906 46.609375 C 132.519531 44.082031 129.585938 42.867188 126.957031 43.878906 C 124.433594 44.992188 123.21875 47.921875 124.230469 50.449219 L 134.136719 74 C 134.945312 75.917969 136.863281 77.132812 138.785156 77.132812 C 139.59375 77.132812 140.199219 77.03125 140.804688 76.726562 Z M 247.941406 331.222656 C 250.464844 330.109375 251.679688 327.179688 250.667969 324.652344 L 240.765625 301.101562 C 239.652344 298.574219 236.722656 297.363281 234.09375 298.375 C 231.566406 299.484375 230.355469 302.417969 231.363281 304.945312 L 241.269531 328.492188 C 242.078125 330.414062 244 331.625 245.917969 331.625 C 246.625 331.625 247.332031 331.425781 247.941406 331.222656 Z M 48.125 249.757812 L 72.078125 239.957031 C 74.707031 238.945312 75.917969 235.914062 74.808594 233.386719 C 73.796875 230.757812 70.765625 229.546875 68.238281 230.65625 L 44.285156 240.460938 C 41.65625 241.472656 40.441406 244.503906 41.554688 247.03125 C 42.363281 248.949219 44.285156 250.164062 46.203125 250.164062 C 46.808594 250.164062 47.519531 250.0625 48.125 249.757812 Z M 306.660156 144.445312 L 330.617188 134.640625 C 333.242188 133.628906 334.457031 130.597656 333.34375 128.070312 C 332.332031 125.441406 329.300781 124.230469 326.773438 125.34375 L 302.820312 135.144531 C 300.191406 136.15625 298.980469 139.1875 300.09375 141.714844 C 300.902344 143.636719 302.820312 144.847656 304.742188 144.847656 C 305.449219 144.746094 306.054688 144.644531 306.660156 144.445312 Z M 240.765625 74.097656 L 250.667969 50.550781 C 251.78125 48.023438 250.566406 44.992188 247.941406 43.980469 C 245.3125 42.867188 242.382812 44.082031 241.269531 46.710938 L 231.363281 70.257812 C 230.253906 72.785156 231.464844 75.816406 234.09375 76.828125 C 234.699219 77.132812 235.40625 77.230469 236.011719 77.230469 C 238.035156 77.132812 239.957031 76.019531 240.765625 74.097656 Z M 133.628906 328.492188 L 143.535156 304.945312 C 144.644531 302.417969 143.433594 299.382812 140.804688 298.375 C 138.179688 297.261719 135.246094 298.476562 134.136719 301.101562 L 124.230469 324.652344 C 123.117188 327.179688 124.332031 330.210938 126.957031 331.222656 C 127.566406 331.523438 128.273438 331.625 128.878906 331.625 C 130.902344 331.625 132.820312 330.414062 133.628906 328.492188 Z M 74.90625 141.613281 C 75.917969 138.984375 74.707031 136.054688 72.179688 135.042969 L 48.226562 125.242188 C 45.597656 124.230469 42.667969 125.441406 41.65625 127.96875 C 40.644531 130.597656 41.859375 133.527344 44.382812 134.539062 L 68.339844 144.34375 C 68.945312 144.644531 69.652344 144.746094 70.257812 144.746094 C 72.179688 144.746094 74.097656 143.535156 74.90625 141.613281 Z M 333.445312 247.03125 C 334.457031 244.402344 333.242188 241.472656 330.714844 240.460938 L 306.660156 230.65625 C 304.035156 229.644531 301.101562 230.859375 300.09375 233.386719 C 299.082031 236.015625 300.292969 238.945312 302.820312 239.957031 L 326.773438 249.757812 C 327.382812 250.0625 328.089844 250.164062 328.695312 250.164062 C 330.714844 250.164062 332.636719 248.949219 333.445312 247.03125 Z M 333.445312 247.03125 " fill-opacity="1" fill-rule="nonzero"/></g><g clip-path="url(#c4c03f2427)"><g clip-path="url(#404152c78e)"><path fill="#ffde59" d="M 81.175781 83.566406 L 292.050781 83.566406 L 292.050781 294.441406 L 81.175781 294.441406 Z M 81.175781 83.566406 " fill-opacity="1" fill-rule="nonzero"/></g></g><g clip-path="url(#9112b40721)"><path fill="#000000" d="M 241.535156 201.558594 C 241.300781 201.585938 241.085938 201.523438 240.894531 201.378906 C 240.707031 201.234375 240.59375 201.042969 240.558594 200.808594 C 240.117188 199.453125 239.640625 198.101562 239.1875 196.789062 C 238.953125 196.136719 238.726562 195.480469 238.496094 194.820312 L 236.5 189.050781 C 234.417969 183.042969 232.269531 176.828125 230.167969 170.613281 C 230.082031 170.226562 229.929688 169.867188 229.714844 169.535156 C 229.5 169.203125 229.234375 168.917969 228.914062 168.683594 C 228.59375 168.449219 228.242188 168.277344 227.863281 168.171875 C 227.480469 168.066406 227.09375 168.03125 226.699219 168.066406 C 221.074219 168.066406 215.351562 168.046875 209.894531 168.023438 C 210.558594 167.261719 211.1875 166.46875 211.78125 165.648438 C 212.371094 164.824219 212.921875 163.976562 213.433594 163.101562 C 213.945312 162.226562 214.414062 161.328125 214.839844 160.40625 C 215.265625 159.488281 215.644531 158.550781 215.980469 157.59375 C 216.316406 156.636719 216.605469 155.667969 216.851562 154.683594 C 217.09375 153.703125 217.292969 152.707031 217.441406 151.707031 C 217.589844 150.703125 217.691406 149.695312 217.746094 148.683594 C 217.800781 147.671875 217.808594 146.660156 217.765625 145.648438 C 217.722656 144.636719 217.632812 143.625 217.492188 142.621094 C 217.355469 141.617188 217.167969 140.625 216.9375 139.636719 C 216.703125 138.652344 216.425781 137.675781 216.097656 136.71875 C 215.773438 135.757812 215.402344 134.816406 214.988281 133.890625 C 214.574219 132.96875 214.117188 132.0625 213.617188 131.183594 C 213.113281 130.300781 212.574219 129.449219 211.992188 128.617188 C 211.410156 127.789062 210.789062 126.988281 210.132812 126.21875 C 209.472656 125.449219 208.78125 124.710938 208.050781 124.007812 C 207.324219 123.300781 206.5625 122.632812 205.773438 122.003906 C 204.980469 121.371094 204.160156 120.777344 203.3125 120.222656 C 202.464844 119.667969 201.589844 119.15625 200.695312 118.6875 C 199.796875 118.214844 198.878906 117.789062 197.941406 117.40625 C 197.003906 117.019531 196.050781 116.683594 195.082031 116.390625 C 194.113281 116.097656 193.132812 115.851562 192.136719 115.652344 C 191.144531 115.453125 190.144531 115.300781 189.136719 115.199219 C 188.128906 115.09375 187.121094 115.039062 186.109375 115.03125 C 185.09375 115.023438 184.085938 115.0625 183.074219 115.152344 C 182.066406 115.238281 181.0625 115.375 180.070312 115.558594 C 179.074219 115.742188 178.085938 115.972656 177.113281 116.25 C 176.140625 116.527344 175.179688 116.851562 174.238281 117.222656 C 173.292969 117.589844 172.371094 118.003906 171.46875 118.460938 C 170.5625 118.917969 169.683594 119.414062 168.824219 119.957031 C 167.96875 120.496094 167.140625 121.078125 166.339844 121.695312 C 165.539062 122.316406 164.765625 122.972656 164.027344 123.664062 C 163.289062 124.359375 162.585938 125.085938 161.914062 125.84375 C 161.246094 126.605469 160.613281 127.394531 160.019531 128.214844 C 159.421875 129.035156 158.867188 129.882812 158.355469 130.753906 C 157.839844 131.628906 157.367188 132.523438 156.9375 133.441406 C 156.511719 134.359375 156.125 135.296875 155.785156 136.25 C 155.445312 137.207031 155.152344 138.175781 154.902344 139.15625 C 154.65625 140.140625 154.453125 141.132812 154.300781 142.132812 C 154.144531 143.136719 154.039062 144.140625 153.980469 145.152344 C 153.925781 146.164062 153.914062 147.179688 153.953125 148.191406 C 153.992188 149.203125 154.078125 150.210938 154.210938 151.21875 C 154.34375 152.222656 154.527344 153.21875 154.753906 154.203125 C 154.984375 155.191406 155.257812 156.167969 155.582031 157.128906 C 155.902344 158.089844 156.269531 159.03125 156.679688 159.957031 C 157.089844 160.882812 157.546875 161.789062 158.042969 162.671875 C 158.539062 163.554688 159.078125 164.410156 159.65625 165.242188 C 160.234375 166.074219 160.851562 166.878906 161.507812 167.652344 C 158.175781 167.652344 157.121094 167.652344 152.886719 167.667969 C 151.363281 167.667969 149.820312 167.726562 148.300781 167.773438 C 147.296875 167.808594 146.296875 167.839844 145.292969 167.859375 C 144.796875 167.851562 144.351562 167.996094 143.957031 168.296875 C 143.5625 168.59375 143.296875 168.980469 143.164062 169.457031 C 142.863281 170.289062 142.550781 171.113281 142.226562 171.96875 C 141.757812 173.207031 141.269531 174.492188 140.832031 175.773438 C 138.167969 183.542969 135.320312 191.882812 132.542969 200.214844 C 132.230469 201.148438 131.875 201.410156 130.929688 201.34375 C 129.546875 201.269531 128.140625 201.285156 126.757812 201.300781 C 126.167969 201.300781 125.582031 201.316406 124.972656 201.316406 L 124.492188 201.316406 L 124.492188 201.796875 C 124.3125 211.429688 127.601562 218.191406 134.546875 222.460938 C 135.410156 223.042969 136.316406 223.550781 137.261719 223.992188 C 138.207031 224.433594 139.179688 224.796875 140.179688 225.085938 C 141.179688 225.375 142.199219 225.582031 143.234375 225.710938 C 144.265625 225.839844 145.304688 225.886719 146.347656 225.855469 C 147.386719 225.820312 148.421875 225.707031 149.445312 225.511719 C 150.46875 225.316406 151.46875 225.042969 152.449219 224.691406 C 153.429688 224.335938 154.378906 223.910156 155.292969 223.410156 C 156.207031 222.910156 157.078125 222.339844 157.902344 221.703125 C 164.082031 217.355469 167 210.835938 166.832031 201.769531 L 166.832031 201.289062 L 166.351562 201.289062 C 165.765625 201.289062 165.179688 201.289062 164.605469 201.289062 C 163.359375 201.289062 162.058594 201.300781 160.78125 201.273438 C 159.125 201.238281 159.125 201.238281 158.578125 199.621094 L 157.265625 195.746094 C 154.785156 188.414062 152.304688 181.082031 149.824219 173.746094 C 149.8125 173.71875 149.804688 173.691406 149.800781 173.664062 L 156.824219 173.664062 C 161.933594 173.664062 163.679688 173.664062 168.230469 173.644531 C 170.480469 175.140625 172.882812 176.328125 175.433594 177.207031 C 177.984375 178.085938 180.609375 178.628906 183.300781 178.835938 L 183.300781 244.414062 L 138.742188 244.414062 L 138.742188 267.316406 L 234.261719 267.316406 L 234.261719 244.429688 L 189.15625 244.429688 L 189.15625 178.804688 C 194.113281 178.296875 198.691406 176.707031 202.890625 174.03125 L 214.597656 174.09375 L 222.644531 174.136719 C 222.808594 174.140625 222.972656 174.152344 223.136719 174.171875 L 221.652344 178.554688 C 219.351562 185.359375 217.042969 192.171875 214.726562 198.988281 C 214.648438 199.214844 214.582031 199.457031 214.511719 199.699219 L 214.492188 199.761719 C 214.390625 200.425781 214.121094 201.007812 213.6875 201.511719 C 213.117188 201.726562 212.535156 201.773438 211.941406 201.65625 C 211.617188 201.632812 211.289062 201.617188 210.984375 201.609375 C 210.117188 201.609375 209.25 201.609375 208.367188 201.609375 L 206.097656 201.609375 L 206.132812 202.554688 C 206.03125 206.113281 206.589844 209.558594 207.808594 212.898438 C 208.214844 213.851562 208.6875 214.769531 209.222656 215.652344 C 209.761719 216.535156 210.359375 217.375 211.019531 218.171875 C 211.675781 218.96875 212.390625 219.714844 213.15625 220.410156 C 213.921875 221.105469 214.730469 221.742188 215.589844 222.320312 C 216.445312 222.898438 217.339844 223.414062 218.269531 223.863281 C 219.199219 224.3125 220.160156 224.695312 221.144531 225.007812 C 222.128906 225.320312 223.132812 225.558594 224.152344 225.730469 C 225.171875 225.898438 226.199219 225.992188 227.230469 226.011719 C 227.464844 226.011719 227.695312 226.007812 227.925781 226 C 229.070312 225.953125 230.203125 225.8125 231.324219 225.582031 C 232.441406 225.351562 233.539062 225.03125 234.609375 224.625 C 235.679688 224.21875 236.707031 223.730469 237.699219 223.15625 C 238.691406 222.582031 239.628906 221.933594 240.515625 221.210938 C 241.402344 220.488281 242.226562 219.695312 242.988281 218.839844 C 243.746094 217.984375 244.433594 217.070312 245.046875 216.105469 C 245.660156 215.136719 246.191406 214.128906 246.644531 213.074219 C 247.09375 212.023438 247.460938 210.941406 247.738281 209.828125 C 247.996094 208.714844 248.152344 207.574219 248.304688 206.472656 C 248.371094 205.964844 248.441406 205.453125 248.523438 204.90625 L 248.523438 201.558594 Z M 160.496094 207.398438 C 160.394531 208.632812 160.082031 209.808594 159.558594 210.929688 C 159.039062 212.050781 158.335938 213.046875 157.457031 213.914062 C 155.976562 215.617188 154.234375 216.984375 152.226562 218.007812 C 150.21875 219.035156 148.089844 219.648438 145.84375 219.847656 C 143.738281 219.769531 141.726562 219.300781 139.804688 218.4375 C 137.882812 217.578125 136.191406 216.386719 134.730469 214.867188 C 133.644531 213.902344 132.761719 212.773438 132.082031 211.488281 C 131.402344 210.203125 130.964844 208.839844 130.773438 207.398438 Z M 152.773438 201.15625 L 138.523438 201.15625 L 145.660156 180.082031 Z M 166.835938 127.972656 C 167.460938 127.355469 168.113281 126.769531 168.796875 126.21875 C 169.480469 125.664062 170.1875 125.148438 170.917969 124.664062 C 171.652344 124.179688 172.40625 123.734375 173.183594 123.324219 C 173.957031 122.914062 174.753906 122.542969 175.566406 122.210938 C 176.378906 121.878906 177.203125 121.589844 178.046875 121.335938 C 178.886719 121.085938 179.738281 120.878906 180.597656 120.710938 C 181.460938 120.542969 182.328125 120.417969 183.203125 120.335938 C 184.074219 120.25 184.949219 120.210938 185.828125 120.214844 C 186.707031 120.21875 187.582031 120.261719 188.453125 120.351562 C 189.328125 120.441406 190.195312 120.570312 191.054688 120.746094 C 191.914062 120.917969 192.761719 121.132812 193.601562 121.390625 C 194.441406 121.648438 195.265625 121.945312 196.078125 122.28125 C 196.886719 122.621094 197.679688 122.996094 198.453125 123.410156 C 199.226562 123.828125 199.976562 124.277344 200.707031 124.765625 C 201.433594 125.253906 202.136719 125.777344 202.816406 126.335938 C 203.496094 126.894531 204.144531 127.480469 204.765625 128.101562 C 205.386719 128.722656 205.972656 129.375 206.53125 130.050781 C 207.085938 130.730469 207.609375 131.433594 208.097656 132.164062 C 208.585938 132.894531 209.039062 133.644531 209.453125 134.421875 C 209.867188 135.195312 210.242188 135.988281 210.582031 136.796875 C 210.917969 137.609375 211.214844 138.433594 211.472656 139.273438 C 211.726562 140.113281 211.941406 140.964844 212.117188 141.824219 C 212.289062 142.683594 212.421875 143.550781 212.507812 144.425781 C 212.597656 145.300781 212.644531 146.175781 212.648438 147.054688 C 212.648438 147.933594 212.609375 148.808594 212.527344 149.683594 C 212.445312 150.558594 212.320312 151.425781 212.152344 152.285156 C 211.984375 153.148438 211.777344 154 211.523438 154.84375 C 211.273438 155.683594 210.984375 156.511719 210.652344 157.324219 C 210.320312 158.136719 209.949219 158.933594 209.539062 159.710938 C 209.132812 160.484375 208.683594 161.242188 208.203125 161.972656 C 207.71875 162.707031 207.199219 163.414062 206.648438 164.097656 C 206.097656 164.78125 205.511719 165.433594 204.894531 166.058594 C 204.273438 166.691406 203.625 167.289062 202.941406 167.855469 C 202.261719 168.421875 201.554688 168.953125 200.820312 169.449219 C 200.089844 169.945312 199.332031 170.40625 198.554688 170.828125 C 197.777344 171.25 196.980469 171.632812 196.164062 171.976562 C 195.347656 172.320312 194.515625 172.621094 193.667969 172.882812 C 192.824219 173.144531 191.964844 173.363281 191.097656 173.539062 C 190.230469 173.714844 189.359375 173.847656 188.476562 173.941406 C 187.597656 174.03125 186.714844 174.078125 185.828125 174.078125 C 184.941406 174.082031 184.058594 174.042969 183.179688 173.957031 C 182.296875 173.875 181.421875 173.746094 180.554688 173.574219 C 179.683594 173.40625 178.824219 173.191406 177.976562 172.9375 C 177.128906 172.679688 176.296875 172.386719 175.480469 172.046875 C 174.660156 171.710938 173.859375 171.332031 173.078125 170.914062 C 172.296875 170.5 171.539062 170.046875 170.800781 169.554688 C 170.066406 169.0625 169.355469 168.535156 168.671875 167.972656 C 167.984375 167.410156 167.332031 166.816406 166.703125 166.191406 C 166.078125 165.566406 165.484375 164.910156 164.925781 164.222656 C 164.363281 163.539062 163.835938 162.828125 163.34375 162.089844 C 162.855469 161.355469 162.398438 160.59375 161.984375 159.8125 C 161.566406 159.03125 161.191406 158.230469 160.851562 157.410156 C 160.515625 156.589844 160.21875 155.757812 159.964844 154.910156 C 159.710938 154.0625 159.496094 153.203125 159.324219 152.332031 C 159.15625 151.464844 159.027344 150.585938 158.945312 149.707031 C 158.859375 148.824219 158.820312 147.941406 158.824219 147.054688 C 158.824219 146.167969 158.871094 145.285156 158.960938 144.402344 C 159.050781 143.523438 159.1875 142.648438 159.363281 141.777344 C 159.539062 140.910156 159.757812 140.054688 160.019531 139.207031 C 160.28125 138.359375 160.582031 137.527344 160.925781 136.710938 C 161.269531 135.894531 161.648438 135.097656 162.070312 134.316406 C 162.492188 133.539062 162.953125 132.78125 163.449219 132.046875 C 163.945312 131.316406 164.476562 130.609375 165.042969 129.925781 C 165.609375 129.246094 166.207031 128.59375 166.835938 127.972656 Z M 228.386719 250.304688 L 228.386719 261.429688 L 144.621094 261.429688 L 144.621094 250.3125 Z M 227.335938 180.382812 L 234.449219 201.464844 L 220.191406 201.464844 Z M 237.621094 215.824219 C 236.132812 217.222656 234.4375 218.285156 232.53125 219.015625 C 230.625 219.746094 228.652344 220.085938 226.613281 220.039062 C 224.394531 219.777344 222.300781 219.121094 220.335938 218.0625 C 218.367188 217.003906 216.664062 215.621094 215.222656 213.914062 C 214.410156 213.066406 213.769531 212.109375 213.300781 211.035156 C 212.828125 209.964844 212.554688 208.84375 212.480469 207.675781 L 242.164062 207.675781 C 241.933594 209.269531 241.425781 210.765625 240.644531 212.171875 C 239.859375 213.578125 238.851562 214.796875 237.621094 215.832031 Z M 190.300781 155.898438 C 190.558594 155.640625 190.777344 155.34375 190.949219 155.019531 C 191.121094 154.695312 191.246094 154.351562 191.316406 153.988281 C 191.386719 153.628906 191.40625 153.261719 191.371094 152.894531 C 191.332031 152.53125 191.246094 152.175781 191.105469 151.835938 C 190.964844 151.492188 190.777344 151.179688 190.542969 150.894531 C 190.308594 150.609375 190.039062 150.363281 189.734375 150.160156 C 189.425781 149.953125 189.097656 149.796875 188.746094 149.691406 C 188.394531 149.582031 188.035156 149.527344 187.664062 149.527344 L 184.066406 149.527344 C 183.507812 149.527344 182.953125 149.472656 182.402344 149.363281 C 181.851562 149.257812 181.316406 149.097656 180.800781 148.890625 C 180.28125 148.679688 179.785156 148.421875 179.316406 148.117188 C 178.84375 147.8125 178.410156 147.46875 178.003906 147.078125 C 177.601562 146.691406 177.238281 146.265625 176.917969 145.808594 C 176.59375 145.351562 176.316406 144.867188 176.089844 144.355469 C 175.859375 143.84375 175.679688 143.316406 175.550781 142.769531 C 175.421875 142.226562 175.347656 141.671875 175.324219 141.113281 C 175.300781 140.554688 175.332031 139.996094 175.417969 139.441406 C 175.5 138.886719 175.636719 138.347656 175.824219 137.820312 C 176.011719 137.292969 176.25 136.785156 176.53125 136.304688 C 176.816406 135.820312 177.144531 135.371094 177.515625 134.949219 C 177.886719 134.53125 178.292969 134.148438 178.738281 133.808594 C 179.183594 133.46875 179.65625 133.171875 180.15625 132.921875 C 180.65625 132.667969 181.175781 132.46875 181.714844 132.316406 C 182.253906 132.167969 182.804688 132.066406 183.359375 132.023438 L 183.359375 129.265625 C 183.359375 128.933594 183.425781 128.613281 183.550781 128.308594 C 183.679688 128 183.859375 127.730469 184.09375 127.496094 C 184.328125 127.257812 184.601562 127.078125 184.90625 126.949219 C 185.214844 126.824219 185.535156 126.761719 185.867188 126.761719 C 186.199219 126.761719 186.519531 126.824219 186.824219 126.949219 C 187.132812 127.078125 187.402344 127.257812 187.636719 127.496094 C 187.875 127.730469 188.054688 128 188.179688 128.308594 C 188.308594 128.613281 188.371094 128.933594 188.371094 129.265625 L 188.371094 132.023438 C 188.914062 132.070312 189.449219 132.164062 189.976562 132.308594 C 190.5 132.453125 191.007812 132.644531 191.5 132.886719 C 191.988281 133.125 192.453125 133.40625 192.890625 133.734375 C 193.328125 134.058594 193.730469 134.421875 194.097656 134.824219 C 194.46875 135.222656 194.796875 135.65625 195.085938 136.117188 C 195.378906 136.582031 195.621094 137.066406 195.820312 137.574219 C 196.019531 138.082031 196.171875 138.601562 196.273438 139.140625 C 196.375 139.675781 196.425781 140.214844 196.425781 140.761719 C 196.425781 141.09375 196.363281 141.414062 196.234375 141.722656 C 196.109375 142.03125 195.925781 142.304688 195.691406 142.539062 C 195.457031 142.777344 195.183594 142.957031 194.875 143.085938 C 194.566406 143.214844 194.246094 143.277344 193.914062 143.277344 C 193.582031 143.277344 193.261719 143.214844 192.953125 143.085938 C 192.644531 142.957031 192.371094 142.777344 192.136719 142.539062 C 191.902344 142.304688 191.71875 142.03125 191.59375 141.722656 C 191.464844 141.414062 191.402344 141.09375 191.402344 140.761719 C 191.398438 140.265625 191.300781 139.789062 191.113281 139.335938 C 190.921875 138.878906 190.652344 138.472656 190.300781 138.125 C 189.953125 137.773438 189.550781 137.503906 189.09375 137.3125 C 188.636719 137.125 188.160156 137.027344 187.667969 137.023438 L 184.066406 137.023438 C 183.570312 137.023438 183.09375 137.121094 182.636719 137.308594 C 182.179688 137.5 181.777344 137.769531 181.425781 138.121094 C 181.074219 138.46875 180.804688 138.875 180.617188 139.332031 C 180.425781 139.789062 180.332031 140.265625 180.332031 140.761719 C 180.332031 141.257812 180.425781 141.734375 180.617188 142.191406 C 180.804688 142.648438 181.074219 143.054688 181.425781 143.402344 C 181.777344 143.753906 182.179688 144.023438 182.636719 144.214844 C 183.09375 144.402344 183.570312 144.5 184.066406 144.5 L 187.667969 144.5 C 188.226562 144.5 188.78125 144.554688 189.332031 144.660156 C 189.878906 144.765625 190.414062 144.925781 190.933594 145.136719 C 191.453125 145.34375 191.949219 145.601562 192.417969 145.90625 C 192.886719 146.210938 193.324219 146.558594 193.726562 146.945312 C 194.132812 147.335938 194.496094 147.757812 194.816406 148.214844 C 195.140625 148.675781 195.414062 149.160156 195.644531 149.667969 C 195.875 150.179688 196.054688 150.707031 196.183594 151.253906 C 196.3125 151.800781 196.386719 152.351562 196.410156 152.910156 C 196.429688 153.472656 196.398438 154.027344 196.316406 154.582031 C 196.230469 155.136719 196.097656 155.675781 195.910156 156.207031 C 195.71875 156.734375 195.484375 157.238281 195.199219 157.722656 C 194.914062 158.203125 194.585938 158.65625 194.214844 159.074219 C 193.84375 159.492188 193.4375 159.875 192.996094 160.214844 C 192.550781 160.558594 192.078125 160.855469 191.578125 161.105469 C 191.078125 161.355469 190.558594 161.554688 190.019531 161.707031 C 189.480469 161.859375 188.929688 161.957031 188.371094 162.003906 L 188.371094 164.746094 C 188.371094 165.078125 188.308594 165.398438 188.179688 165.707031 C 188.054688 166.015625 187.875 166.285156 187.636719 166.519531 C 187.402344 166.753906 187.132812 166.9375 186.824219 167.0625 C 186.519531 167.191406 186.199219 167.253906 185.867188 167.253906 C 185.535156 167.253906 185.214844 167.191406 184.90625 167.0625 C 184.601562 166.9375 184.328125 166.753906 184.09375 166.519531 C 183.859375 166.285156 183.679688 166.015625 183.550781 165.707031 C 183.425781 165.398438 183.359375 165.078125 183.359375 164.746094 L 183.359375 162 C 182.816406 161.957031 182.28125 161.859375 181.757812 161.714844 C 181.230469 161.570312 180.722656 161.378906 180.234375 161.140625 C 179.742188 160.902344 179.28125 160.617188 178.84375 160.292969 C 178.40625 159.96875 178 159.601562 177.632812 159.203125 C 177.261719 158.800781 176.933594 158.371094 176.644531 157.90625 C 176.355469 157.445312 176.109375 156.960938 175.910156 156.453125 C 175.710938 155.945312 175.5625 155.421875 175.457031 154.886719 C 175.355469 154.351562 175.304688 153.808594 175.304688 153.261719 C 175.304688 152.929688 175.367188 152.609375 175.496094 152.300781 C 175.621094 151.992188 175.804688 151.71875 176.039062 151.484375 C 176.277344 151.25 176.546875 151.066406 176.855469 150.9375 C 177.164062 150.8125 177.484375 150.746094 177.816406 150.746094 C 178.148438 150.746094 178.472656 150.8125 178.777344 150.9375 C 179.085938 151.066406 179.359375 151.25 179.59375 151.484375 C 179.828125 151.71875 180.011719 151.992188 180.140625 152.300781 C 180.265625 152.609375 180.332031 152.929688 180.332031 153.261719 C 180.332031 153.757812 180.429688 154.234375 180.617188 154.691406 C 180.808594 155.148438 181.078125 155.554688 181.429688 155.90625 C 181.777344 156.253906 182.179688 156.527344 182.636719 156.714844 C 183.09375 156.90625 183.570312 157.003906 184.066406 157.003906 L 187.667969 157.003906 C 188.699219 157.003906 189.574219 156.636719 190.300781 155.898438 Z M 190.300781 155.898438 " fill-opacity="1" fill-rule="nonzero"/></g></svg>