<svg xmlns="http://www.w3.org/2000/svg" xmlns:xlink="http://www.w3.org/1999/xlink" width="500" zoomAndPan="magnify" viewBox="0 0 375 374.999991" height="500" preserveAspectRatio="xMidYMid meet" version="1.0"><defs><clipPath id="7408e018a8"><path d="M 0 2.25 L 375 2.25 L 375 371.25 L 0 371.25 Z M 0 2.25 " clip-rule="nonzero"/></clipPath><clipPath id="1137be20a2"><path d="M 79.746094 81.265625 L 290.625 81.265625 L 290.625 292.140625 L 79.746094 292.140625 Z M 79.746094 81.265625 " clip-rule="nonzero"/></clipPath><clipPath id="ed0df9fd1a"><path d="M 185.1875 81.265625 C 126.953125 81.265625 79.746094 128.472656 79.746094 186.703125 C 79.746094 244.933594 126.953125 292.140625 185.1875 292.140625 C 243.417969 292.140625 290.625 244.933594 290.625 186.703125 C 290.625 128.472656 243.417969 81.265625 185.1875 81.265625 Z M 185.1875 81.265625 " clip-rule="nonzero"/></clipPath><clipPath id="f916f59bee"><path d="M 173 115 L 261 115 L 261 277.28125 L 173 277.28125 Z M 173 115 " clip-rule="nonzero"/></clipPath></defs><path fill="#272727" d="M 284.832031 186.703125 C 284.832031 188.269531 284.792969 189.839844 284.714844 191.40625 C 284.636719 192.96875 284.519531 194.535156 284.363281 196.09375 C 284.207031 197.65625 284.011719 199.210938 283.777344 200.761719 C 283.542969 202.3125 283.269531 203.859375 282.960938 205.394531 C 282.648438 206.933594 282.300781 208.464844 281.914062 209.984375 C 281.527344 211.503906 281.101562 213.015625 280.640625 214.515625 C 280.175781 216.015625 279.675781 217.503906 279.140625 218.980469 C 278.605469 220.457031 278.03125 221.921875 277.421875 223.371094 C 276.8125 224.820312 276.167969 226.25 275.484375 227.667969 C 274.804688 229.085938 274.089844 230.488281 273.339844 231.871094 C 272.585938 233.253906 271.800781 234.617188 270.984375 235.960938 C 270.164062 237.304688 269.3125 238.632812 268.425781 239.933594 C 267.542969 241.238281 266.625 242.519531 265.675781 243.78125 C 264.726562 245.039062 263.75 246.273438 262.738281 247.488281 C 261.726562 248.699219 260.6875 249.886719 259.617188 251.046875 C 258.546875 252.210938 257.449219 253.34375 256.324219 254.453125 C 255.195312 255.5625 254.042969 256.644531 252.863281 257.695312 C 251.683594 258.75 250.476562 259.773438 249.246094 260.769531 C 248.015625 261.761719 246.757812 262.726562 245.480469 263.660156 C 244.199219 264.597656 242.898438 265.5 241.574219 266.371094 C 240.25 267.242188 238.902344 268.078125 237.539062 268.886719 C 236.171875 269.691406 234.785156 270.464844 233.382812 271.203125 C 231.976562 271.941406 230.554688 272.648438 229.113281 273.320312 C 227.675781 273.988281 226.21875 274.625 224.746094 275.222656 C 223.273438 275.824219 221.789062 276.386719 220.289062 276.917969 C 218.789062 277.445312 217.277344 277.9375 215.753906 278.390625 C 214.230469 278.847656 212.695312 279.265625 211.148438 279.644531 C 209.605469 280.027344 208.050781 280.371094 206.488281 280.675781 C 204.925781 280.984375 203.355469 281.25 201.78125 281.480469 C 200.207031 281.710938 198.625 281.902344 197.039062 282.054688 C 195.453125 282.210938 193.867188 282.324219 192.277344 282.402344 C 190.683594 282.480469 189.09375 282.519531 187.5 282.519531 C 185.90625 282.519531 184.316406 282.480469 182.722656 282.402344 C 181.132812 282.324219 179.546875 282.210938 177.960938 282.054688 C 176.375 281.902344 174.792969 281.710938 173.21875 281.480469 C 171.644531 281.25 170.074219 280.984375 168.511719 280.675781 C 166.949219 280.371094 165.394531 280.027344 163.851562 279.644531 C 162.304688 279.265625 160.769531 278.847656 159.246094 278.390625 C 157.722656 277.9375 156.210938 277.445312 154.710938 276.917969 C 153.210938 276.386719 151.726562 275.824219 150.253906 275.222656 C 148.78125 274.625 147.324219 273.988281 145.886719 273.320312 C 144.445312 272.648438 143.023438 271.941406 141.617188 271.203125 C 140.214844 270.464844 138.828125 269.691406 137.460938 268.886719 C 136.097656 268.078125 134.75 267.242188 133.425781 266.371094 C 132.101562 265.5 130.800781 264.597656 129.519531 263.660156 C 128.242188 262.726562 126.984375 261.761719 125.753906 260.769531 C 124.523438 259.773438 123.316406 258.75 122.136719 257.695312 C 120.957031 256.644531 119.804688 255.5625 118.675781 254.453125 C 117.550781 253.34375 116.453125 252.210938 115.382812 251.046875 C 114.3125 249.886719 113.273438 248.699219 112.261719 247.488281 C 111.25 246.273438 110.273438 245.039062 109.324219 243.78125 C 108.375 242.519531 107.457031 241.238281 106.574219 239.933594 C 105.6875 238.632812 104.835938 237.304688 104.015625 235.960938 C 103.199219 234.617188 102.414062 233.253906 101.660156 231.871094 C 100.910156 230.488281 100.195312 229.085938 99.515625 227.667969 C 98.832031 226.25 98.1875 224.820312 97.578125 223.371094 C 96.96875 221.921875 96.394531 220.457031 95.859375 218.980469 C 95.324219 217.503906 94.824219 216.015625 94.359375 214.515625 C 93.898438 213.015625 93.472656 211.503906 93.085938 209.984375 C 92.699219 208.464844 92.351562 206.933594 92.039062 205.394531 C 91.730469 203.859375 91.457031 202.3125 91.222656 200.761719 C 90.988281 199.210938 90.792969 197.65625 90.636719 196.09375 C 90.480469 194.535156 90.363281 192.96875 90.285156 191.40625 C 90.207031 189.839844 90.167969 188.269531 90.167969 186.703125 C 90.167969 185.136719 90.207031 183.566406 90.285156 182 C 90.363281 180.433594 90.480469 178.871094 90.636719 177.3125 C 90.792969 175.75 90.988281 174.195312 91.222656 172.644531 C 91.457031 171.09375 91.730469 169.546875 92.039062 168.011719 C 92.351562 166.472656 92.699219 164.941406 93.085938 163.421875 C 93.472656 161.902344 93.898438 160.390625 94.359375 158.890625 C 94.824219 157.390625 95.324219 155.902344 95.859375 154.425781 C 96.394531 152.949219 96.96875 151.484375 97.578125 150.035156 C 98.1875 148.585938 98.832031 147.15625 99.515625 145.738281 C 100.195312 144.320312 100.910156 142.917969 101.660156 141.535156 C 102.414062 140.152344 103.199219 138.789062 104.015625 137.445312 C 104.835938 136.097656 105.6875 134.773438 106.574219 133.472656 C 107.457031 132.167969 108.375 130.886719 109.324219 129.625 C 110.273438 128.367188 111.25 127.132812 112.261719 125.917969 C 113.273438 124.707031 114.3125 123.519531 115.382812 122.359375 C 116.453125 121.195312 117.550781 120.0625 118.675781 118.953125 C 119.804688 117.84375 120.957031 116.761719 122.136719 115.710938 C 123.316406 114.65625 124.523438 113.632812 125.753906 112.636719 C 126.984375 111.644531 128.242188 110.679688 129.519531 109.742188 C 130.800781 108.808594 132.101562 107.90625 133.425781 107.035156 C 134.75 106.164062 136.097656 105.328125 137.460938 104.519531 C 138.828125 103.714844 140.214844 102.941406 141.617188 102.203125 C 143.023438 101.464844 144.445312 100.757812 145.886719 100.085938 C 147.324219 99.417969 148.78125 98.78125 150.253906 98.183594 C 151.726562 97.582031 153.210938 97.019531 154.710938 96.488281 C 156.210938 95.960938 157.722656 95.46875 159.246094 95.015625 C 160.769531 94.558594 162.304688 94.140625 163.851562 93.761719 C 165.394531 93.378906 166.949219 93.035156 168.511719 92.730469 C 170.074219 92.421875 171.644531 92.15625 173.21875 91.925781 C 174.792969 91.695312 176.375 91.503906 177.960938 91.351562 C 179.546875 91.195312 181.132812 91.082031 182.722656 91.003906 C 184.316406 90.925781 185.90625 90.886719 187.5 90.886719 C 189.09375 90.886719 190.683594 90.925781 192.277344 91.003906 C 193.867188 91.082031 195.453125 91.195312 197.039062 91.351562 C 198.625 91.503906 200.207031 91.695312 201.78125 91.925781 C 203.355469 92.15625 204.925781 92.421875 206.488281 92.730469 C 208.050781 93.035156 209.605469 93.378906 211.148438 93.761719 C 212.695312 94.140625 214.230469 94.558594 215.753906 95.015625 C 217.277344 95.46875 218.789062 95.960938 220.289062 96.488281 C 221.789062 97.019531 223.273438 97.582031 224.746094 98.183594 C 226.21875 98.78125 227.675781 99.417969 229.113281 100.085938 C 230.554688 100.757812 231.976562 101.464844 233.382812 102.203125 C 234.785156 102.941406 236.171875 103.714844 237.539062 104.519531 C 238.902344 105.328125 240.25 106.164062 241.574219 107.035156 C 242.898438 107.90625 244.199219 108.808594 245.480469 109.742188 C 246.757812 110.679688 248.015625 111.644531 249.246094 112.636719 C 250.476562 113.632812 251.683594 114.65625 252.863281 115.710938 C 254.042969 116.761719 255.195312 117.84375 256.324219 118.953125 C 257.449219 120.0625 258.546875 121.195312 259.617188 122.359375 C 260.6875 123.519531 261.726562 124.707031 262.738281 125.917969 C 263.75 127.132812 264.726562 128.367188 265.675781 129.625 C 266.625 130.886719 267.542969 132.167969 268.425781 133.472656 C 269.3125 134.773438 270.164062 136.097656 270.984375 137.445312 C 271.800781 138.789062 272.585938 140.152344 273.339844 141.535156 C 274.089844 142.917969 274.804688 144.320312 275.484375 145.738281 C 276.167969 147.15625 276.8125 148.585938 277.421875 150.035156 C 278.03125 151.484375 278.605469 152.949219 279.140625 154.425781 C 279.675781 155.902344 280.175781 157.390625 280.640625 158.890625 C 281.101562 160.390625 281.527344 161.902344 281.914062 163.421875 C 282.300781 164.941406 282.648438 166.472656 282.960938 168.011719 C 283.269531 169.546875 283.542969 171.09375 283.777344 172.644531 C 284.011719 174.195312 284.207031 175.75 284.363281 177.3125 C 284.519531 178.871094 284.636719 180.433594 284.714844 182 C 284.792969 183.566406 284.832031 185.136719 284.832031 186.703125 Z M 284.832031 186.703125 " fill-opacity="1" fill-rule="nonzero"/><g clip-path="url(#7408e018a8)"><path fill="#ffde59" d="M 187.5 67.136719 C 184.671875 67.136719 182.445312 64.914062 182.445312 62.082031 L 182.445312 7.304688 C 182.445312 4.472656 184.671875 2.25 187.5 2.25 C 190.328125 2.25 192.554688 4.472656 192.554688 7.304688 L 192.554688 62.082031 C 192.554688 64.8125 190.230469 67.136719 187.5 67.136719 Z M 192.554688 366.101562 L 192.554688 311.324219 C 192.554688 308.492188 190.328125 306.269531 187.5 306.269531 C 184.671875 306.269531 182.445312 308.492188 182.445312 311.324219 L 182.445312 366.101562 C 182.445312 368.933594 184.671875 371.15625 187.5 371.15625 C 190.328125 371.15625 192.554688 368.933594 192.554688 366.101562 Z M 65.8125 186.703125 C 65.8125 183.875 63.589844 181.648438 60.757812 181.648438 L 5.167969 181.648438 C 2.339844 181.648438 0.117188 183.875 0.117188 186.703125 C 0.117188 189.53125 2.339844 191.757812 5.167969 191.757812 L 60.757812 191.757812 C 63.589844 191.757812 65.8125 189.53125 65.8125 186.703125 Z M 374.882812 186.703125 C 374.882812 183.875 372.660156 181.648438 369.832031 181.648438 L 314.242188 181.648438 C 311.410156 181.648438 309.1875 183.875 309.1875 186.703125 C 309.1875 189.53125 311.410156 191.757812 314.242188 191.757812 L 369.832031 191.757812 C 372.660156 191.757812 374.882812 189.53125 374.882812 186.703125 Z M 101.488281 102.105469 C 103.410156 100.085938 103.410156 96.953125 101.386719 94.929688 L 62.070312 56.222656 C 60.050781 54.300781 56.917969 54.300781 54.894531 56.324219 C 52.976562 58.34375 52.976562 61.476562 54.996094 63.5 L 94.3125 102.207031 C 95.324219 103.21875 96.535156 103.625 97.851562 103.625 C 99.164062 103.625 100.480469 103.117188 101.488281 102.105469 Z M 320.003906 317.183594 C 321.921875 315.164062 321.921875 312.03125 319.902344 310.007812 L 280.585938 271.300781 C 278.5625 269.378906 275.429688 269.378906 273.410156 271.398438 C 271.488281 273.421875 271.488281 276.554688 273.511719 278.574219 L 312.828125 317.285156 C 313.835938 318.296875 315.050781 318.699219 316.363281 318.699219 C 317.679688 318.699219 318.992188 318.195312 320.003906 317.183594 Z M 62.070312 317.183594 L 101.386719 278.476562 C 103.410156 276.554688 103.410156 273.320312 101.488281 271.300781 C 99.570312 269.277344 96.335938 269.277344 94.3125 271.199219 L 54.996094 310.007812 C 52.976562 311.929688 52.976562 315.164062 54.894531 317.183594 C 55.90625 318.195312 57.21875 318.699219 58.535156 318.699219 C 59.847656 318.699219 61.0625 318.195312 62.070312 317.183594 Z M 280.585938 102.207031 L 319.902344 63.5 C 321.921875 61.578125 321.921875 58.34375 320.003906 56.324219 C 318.082031 54.300781 314.847656 54.300781 312.828125 56.222656 L 273.511719 94.929688 C 271.488281 96.851562 271.488281 100.085938 273.410156 102.105469 C 274.421875 103.117188 275.734375 103.625 277.046875 103.625 C 278.363281 103.625 279.675781 103.117188 280.585938 102.207031 Z M 140.804688 75.929688 C 143.332031 74.820312 144.546875 71.886719 143.535156 69.359375 L 133.628906 45.8125 C 132.519531 43.285156 129.585938 42.070312 126.957031 43.082031 C 124.433594 44.195312 123.21875 47.125 124.230469 49.652344 L 134.136719 73.203125 C 134.945312 75.121094 136.863281 76.335938 138.785156 76.335938 C 139.59375 76.335938 140.199219 76.234375 140.804688 75.929688 Z M 247.941406 330.425781 C 250.464844 329.3125 251.679688 326.382812 250.667969 323.855469 L 240.765625 300.304688 C 239.652344 297.777344 236.722656 296.566406 234.09375 297.578125 C 231.566406 298.6875 230.355469 301.621094 231.363281 304.148438 L 241.269531 327.695312 C 242.078125 329.617188 244 330.828125 245.917969 330.828125 C 246.625 330.828125 247.332031 330.628906 247.941406 330.425781 Z M 48.125 248.960938 L 72.078125 239.160156 C 74.707031 238.148438 75.917969 235.117188 74.808594 232.589844 C 73.796875 229.960938 70.765625 228.75 68.238281 229.859375 L 44.285156 239.664062 C 41.65625 240.675781 40.441406 243.707031 41.554688 246.234375 C 42.363281 248.152344 44.285156 249.367188 46.203125 249.367188 C 46.808594 249.367188 47.519531 249.265625 48.125 248.960938 Z M 306.660156 143.648438 L 330.617188 133.84375 C 333.242188 132.832031 334.457031 129.800781 333.34375 127.273438 C 332.332031 124.644531 329.300781 123.433594 326.773438 124.546875 L 302.820312 134.347656 C 300.191406 135.359375 298.980469 138.390625 300.09375 140.917969 C 300.902344 142.839844 302.820312 144.050781 304.742188 144.050781 C 305.449219 143.949219 306.054688 143.847656 306.660156 143.648438 Z M 240.765625 73.300781 L 250.667969 49.753906 C 251.78125 47.226562 250.566406 44.195312 247.941406 43.183594 C 245.3125 42.070312 242.382812 43.285156 241.269531 45.914062 L 231.363281 69.460938 C 230.253906 71.988281 231.464844 75.019531 234.09375 76.03125 C 234.699219 76.335938 235.40625 76.433594 236.011719 76.433594 C 238.035156 76.335938 239.957031 75.222656 240.765625 73.300781 Z M 133.628906 327.695312 L 143.535156 304.148438 C 144.644531 301.621094 143.433594 298.585938 140.804688 297.578125 C 138.179688 296.464844 135.246094 297.679688 134.136719 300.304688 L 124.230469 323.855469 C 123.117188 326.382812 124.332031 329.414062 126.957031 330.425781 C 127.566406 330.726562 128.273438 330.828125 128.878906 330.828125 C 130.902344 330.828125 132.820312 329.617188 133.628906 327.695312 Z M 74.90625 140.816406 C 75.917969 138.1875 74.707031 135.257812 72.179688 134.246094 L 48.226562 124.445312 C 45.597656 123.433594 42.667969 124.644531 41.65625 127.171875 C 40.644531 129.800781 41.859375 132.730469 44.382812 133.742188 L 68.339844 143.546875 C 68.945312 143.847656 69.652344 143.949219 70.257812 143.949219 C 72.179688 143.949219 74.097656 142.738281 74.90625 140.816406 Z M 333.445312 246.234375 C 334.457031 243.605469 333.242188 240.675781 330.714844 239.664062 L 306.660156 229.859375 C 304.035156 228.847656 301.101562 230.0625 300.09375 232.589844 C 299.082031 235.21875 300.292969 238.148438 302.820312 239.160156 L 326.773438 248.960938 C 327.382812 249.265625 328.089844 249.367188 328.695312 249.367188 C 330.714844 249.367188 332.636719 248.152344 333.445312 246.234375 Z M 333.445312 246.234375 " fill-opacity="1" fill-rule="nonzero"/></g><g clip-path="url(#1137be20a2)"><g clip-path="url(#ed0df9fd1a)"><path fill="#ffde59" d="M 79.746094 81.265625 L 290.625 81.265625 L 290.625 292.140625 L 79.746094 292.140625 Z M 79.746094 81.265625 " fill-opacity="1" fill-rule="nonzero"/></g></g><path fill="#000000" d="M 175.789062 170.511719 C 173.851562 164.421875 169.433594 159.234375 163.960938 156.636719 C 153.390625 151.597656 142.363281 152.273438 132.855469 153.300781 C 131.640625 153.433594 130.578125 154.183594 130.050781 155.292969 C 129.515625 156.402344 129.597656 157.707031 130.257812 158.742188 C 131.4375 160.601562 133.164062 163.433594 134 164.964844 C 136.113281 168.839844 137.105469 173.3125 137.875 177.199219 C 139.730469 186.609375 148.914062 195.585938 161.15625 195.585938 C 162.433594 195.585938 163.75 195.488281 165.089844 195.28125 C 167.023438 194.984375 168.347656 193.171875 168.054688 191.234375 C 167.757812 189.296875 165.933594 187.953125 164.023438 188.261719 C 154.285156 189.746094 146.234375 183.03125 144.808594 175.816406 C 143.941406 171.410156 142.792969 166.308594 140.195312 161.542969 C 139.933594 161.0625 139.605469 160.488281 139.238281 159.863281 C 147.371094 159.351562 154.382812 159.929688 160.933594 163.050781 C 164.664062 164.828125 167.699219 168.421875 169.050781 172.667969 C 169.671875 174.625 170.097656 177.28125 169.554688 180.320312 C 166.367188 176.765625 162.539062 172.964844 157.816406 168.886719 C 156.335938 167.605469 154.101562 167.777344 152.832031 169.265625 C 151.558594 170.75 151.730469 172.992188 153.210938 174.273438 C 159.480469 179.6875 164.089844 184.523438 167.539062 188.828125 C 167.761719 189.304688 168.085938 189.730469 168.5 190.074219 C 175.097656 198.660156 177.035156 205.03125 178.363281 209.449219 C 178.542969 210.054688 178.714844 210.617188 178.882812 211.148438 C 175.320312 218.683594 173.15625 225.761719 172.179688 231.117188 C 171.828125 233.046875 173.101562 234.894531 175.019531 235.25 C 175.238281 235.289062 175.449219 235.304688 175.660156 235.304688 C 177.335938 235.304688 178.824219 234.105469 179.136719 232.394531 C 180.074219 227.21875 182.210938 220.296875 185.804688 212.976562 C 185.855469 212.886719 185.894531 212.796875 185.9375 212.699219 C 188.148438 208.238281 190.929688 203.640625 194.304688 199.1875 C 194.585938 199.148438 194.871094 199.085938 195.152344 198.96875 C 203.109375 195.683594 212.324219 197.769531 212.414062 197.789062 C 214.3125 198.234375 216.210938 197.046875 216.660156 195.140625 C 217.105469 193.234375 215.925781 191.324219 214.027344 190.871094 C 213.71875 190.796875 208.664062 189.648438 202.328125 190.144531 C 207.3125 185.386719 213.1875 181.117188 220.085938 177.84375 C 221.847656 177.003906 222.601562 174.886719 221.765625 173.113281 C 220.933594 171.339844 218.824219 170.582031 217.0625 171.421875 C 213.066406 173.316406 209.40625 175.535156 206.011719 177.953125 L 206.167969 177.417969 C 206.703125 175.53125 205.617188 173.5625 203.746094 173.023438 C 201.863281 172.480469 199.910156 173.574219 199.371094 175.457031 L 196.40625 185.820312 C 196.378906 185.929688 196.371094 186.039062 196.351562 186.148438 C 191.757812 190.726562 187.851562 195.667969 184.648438 200.671875 C 182.953125 194.8125 183.722656 189.660156 184.875 186.027344 C 187 179.332031 191.800781 173.65625 197.714844 170.839844 C 208.429688 165.75 219.84375 165.097656 233.253906 166.183594 C 232.207031 167.914062 231.183594 169.65625 230.476562 170.957031 C 226.757812 177.773438 225.105469 185.148438 223.851562 191.519531 C 222.527344 198.238281 218.832031 204.023438 213.71875 207.386719 C 208.175781 211.027344 201.175781 211.957031 192.929688 210.136719 C 191.019531 209.726562 189.136719 210.929688 188.71875 212.84375 C 188.304688 214.761719 189.507812 216.65625 191.414062 217.074219 C 194.601562 217.777344 197.679688 218.128906 200.636719 218.128906 C 206.992188 218.128906 212.75 216.511719 217.589844 213.332031 C 224.378906 208.867188 229.066406 201.613281 230.785156 192.898438 C 231.941406 187.046875 233.4375 180.304688 236.679688 174.371094 C 237.894531 172.132812 240.457031 167.921875 242.242188 165.105469 C 242.902344 164.066406 242.980469 162.761719 242.449219 161.652344 C 241.921875 160.546875 240.855469 159.792969 239.640625 159.664062 C 225.871094 158.175781 209.898438 157.195312 194.691406 164.425781 C 187.039062 168.066406 180.847656 175.339844 178.136719 183.871094 C 177.535156 185.769531 177.140625 187.699219 176.894531 189.636719 C 176.285156 188.730469 175.625 187.800781 174.917969 186.847656 C 177.183594 181.625 177.503906 175.910156 175.789062 170.511719 Z M 175.789062 170.511719 " fill-opacity="1" fill-rule="nonzero"/><path fill="#000000" d="M 155.230469 255.429688 C 155.6875 255.625 156.152344 255.714844 156.613281 255.714844 C 157.988281 255.714844 159.296875 254.90625 159.871094 253.554688 C 160.636719 251.75 159.800781 249.664062 158 248.898438 C 130.144531 236.972656 113.609375 208.621094 116.851562 178.34375 C 120.566406 143.714844 149.421875 117.839844 183.207031 117.054688 L 174.476562 124.117188 C 172.960938 125.347656 172.71875 127.582031 173.941406 129.109375 C 174.640625 129.980469 175.664062 130.433594 176.699219 130.433594 C 177.476562 130.433594 178.261719 130.175781 178.914062 129.648438 L 194.984375 116.644531 C 196.503906 115.414062 196.746094 113.179688 195.523438 111.652344 L 182.578125 95.511719 C 181.355469 93.980469 179.132812 93.742188 177.609375 94.972656 C 176.089844 96.203125 175.847656 98.4375 177.070312 99.964844 L 185.046875 109.910156 C 146.929688 109.761719 113.996094 138.683594 109.824219 177.582031 C 106.242188 210.988281 124.492188 242.273438 155.230469 255.429688 Z M 155.230469 255.429688 " fill-opacity="1" fill-rule="nonzero"/><g clip-path="url(#f916f59bee)"><path fill="#000000" d="M 210.996094 122.226562 C 238.839844 133.796875 256.035156 162.921875 252.804688 193.0625 C 249.089844 227.691406 220.226562 253.574219 186.4375 254.347656 L 195.171875 247.285156 C 196.6875 246.054688 196.929688 243.816406 195.707031 242.292969 C 194.480469 240.761719 192.253906 240.519531 190.734375 241.753906 L 174.664062 254.753906 C 173.933594 255.347656 173.46875 256.203125 173.367188 257.140625 C 173.265625 258.078125 173.542969 259.015625 174.125 259.75 L 187.074219 275.890625 C 187.773438 276.761719 188.796875 277.214844 189.824219 277.214844 C 190.605469 277.214844 191.386719 276.957031 192.042969 276.429688 C 193.5625 275.195312 193.804688 272.960938 192.582031 271.4375 L 184.597656 261.484375 C 184.691406 261.484375 184.785156 261.492188 184.878906 261.492188 C 222.882812 261.488281 255.671875 232.621094 259.835938 193.824219 C 263.398438 160.574219 244.425781 128.433594 213.699219 115.664062 C 211.894531 114.917969 209.824219 115.777344 209.078125 117.589844 C 208.332031 119.398438 209.195312 121.472656 210.996094 122.226562 Z M 210.996094 122.226562 " fill-opacity="1" fill-rule="nonzero"/></g></svg>