<svg xmlns="http://www.w3.org/2000/svg" xmlns:xlink="http://www.w3.org/1999/xlink" width="500" zoomAndPan="magnify" viewBox="0 0 375 374.999991" height="500" preserveAspectRatio="xMidYMid meet" version="1.0"><defs><clipPath id="4f8768fd73"><path d="M 0 3.046875 L 375 3.046875 L 375 372 L 0 372 Z M 0 3.046875 " clip-rule="nonzero"/></clipPath><clipPath id="f7e3042b48"><path d="M 85.8125 87.167969 L 296.691406 87.167969 L 296.691406 298.046875 L 85.8125 298.046875 Z M 85.8125 87.167969 " clip-rule="nonzero"/></clipPath><clipPath id="e5a33dda9d"><path d="M 191.25 87.167969 C 133.019531 87.167969 85.8125 134.375 85.8125 192.605469 C 85.8125 250.839844 133.019531 298.046875 191.25 298.046875 C 249.484375 298.046875 296.691406 250.839844 296.691406 192.605469 C 296.691406 134.375 249.484375 87.167969 191.25 87.167969 Z M 191.25 87.167969 " clip-rule="nonzero"/></clipPath><clipPath id="e5a3157f3f"><path d="M 119.414062 104 L 264 104 L 264 281.738281 L 119.414062 281.738281 Z M 119.414062 104 " clip-rule="nonzero"/></clipPath></defs><path fill="#272727" d="M 284.832031 187.5 C 284.832031 189.066406 284.792969 190.636719 284.714844 192.203125 C 284.636719 193.765625 284.519531 195.332031 284.363281 196.890625 C 284.207031 198.453125 284.011719 200.007812 283.777344 201.558594 C 283.542969 203.109375 283.269531 204.65625 282.960938 206.191406 C 282.648438 207.730469 282.300781 209.261719 281.914062 210.78125 C 281.527344 212.300781 281.101562 213.8125 280.640625 215.3125 C 280.175781 216.8125 279.675781 218.300781 279.140625 219.777344 C 278.605469 221.253906 278.03125 222.71875 277.421875 224.167969 C 276.8125 225.617188 276.167969 227.046875 275.484375 228.464844 C 274.804688 229.882812 274.089844 231.285156 273.339844 232.667969 C 272.585938 234.050781 271.800781 235.414062 270.984375 236.757812 C 270.164062 238.101562 269.3125 239.429688 268.425781 240.730469 C 267.542969 242.035156 266.625 243.316406 265.675781 244.578125 C 264.726562 245.835938 263.75 247.070312 262.738281 248.285156 C 261.726562 249.496094 260.6875 250.683594 259.617188 251.84375 C 258.546875 253.007812 257.449219 254.140625 256.324219 255.25 C 255.195312 256.359375 254.042969 257.441406 252.863281 258.492188 C 251.683594 259.546875 250.476562 260.570312 249.246094 261.566406 C 248.015625 262.558594 246.757812 263.523438 245.480469 264.457031 C 244.199219 265.394531 242.898438 266.296875 241.574219 267.167969 C 240.25 268.039062 238.902344 268.875 237.539062 269.683594 C 236.171875 270.488281 234.785156 271.261719 233.382812 272 C 231.976562 272.738281 230.554688 273.445312 229.113281 274.117188 C 227.675781 274.785156 226.21875 275.421875 224.746094 276.019531 C 223.273438 276.621094 221.789062 277.183594 220.289062 277.714844 C 218.789062 278.242188 217.277344 278.734375 215.753906 279.1875 C 214.230469 279.644531 212.695312 280.0625 211.148438 280.441406 C 209.605469 280.824219 208.050781 281.167969 206.488281 281.472656 C 204.925781 281.78125 203.355469 282.046875 201.78125 282.277344 C 200.207031 282.507812 198.625 282.699219 197.039062 282.851562 C 195.453125 283.007812 193.867188 283.121094 192.277344 283.199219 C 190.683594 283.277344 189.09375 283.316406 187.5 283.316406 C 185.90625 283.316406 184.316406 283.277344 182.722656 283.199219 C 181.132812 283.121094 179.546875 283.007812 177.960938 282.851562 C 176.375 282.699219 174.792969 282.507812 173.21875 282.277344 C 171.644531 282.046875 170.074219 281.78125 168.511719 281.472656 C 166.949219 281.167969 165.394531 280.824219 163.851562 280.441406 C 162.304688 280.0625 160.769531 279.644531 159.246094 279.1875 C 157.722656 278.734375 156.210938 278.242188 154.710938 277.714844 C 153.210938 277.183594 151.726562 276.621094 150.253906 276.019531 C 148.78125 275.421875 147.324219 274.785156 145.886719 274.117188 C 144.445312 273.445312 143.023438 272.738281 141.617188 272 C 140.214844 271.261719 138.828125 270.488281 137.460938 269.683594 C 136.097656 268.875 134.75 268.039062 133.425781 267.167969 C 132.101562 266.296875 130.800781 265.394531 129.519531 264.457031 C 128.242188 263.523438 126.984375 262.558594 125.753906 261.566406 C 124.523438 260.570312 123.316406 259.546875 122.136719 258.492188 C 120.957031 257.441406 119.804688 256.359375 118.675781 255.25 C 117.550781 254.140625 116.453125 253.007812 115.382812 251.84375 C 114.3125 250.683594 113.273438 249.496094 112.261719 248.285156 C 111.25 247.070312 110.273438 245.835938 109.324219 244.578125 C 108.375 243.316406 107.457031 242.035156 106.574219 240.730469 C 105.6875 239.429688 104.835938 238.101562 104.015625 236.757812 C 103.199219 235.414062 102.414062 234.050781 101.660156 232.667969 C 100.910156 231.285156 100.195312 229.882812 99.515625 228.464844 C 98.832031 227.046875 98.1875 225.617188 97.578125 224.167969 C 96.96875 222.71875 96.394531 221.253906 95.859375 219.777344 C 95.324219 218.300781 94.824219 216.8125 94.359375 215.3125 C 93.898438 213.8125 93.472656 212.300781 93.085938 210.78125 C 92.699219 209.261719 92.351562 207.730469 92.039062 206.191406 C 91.730469 204.65625 91.457031 203.109375 91.222656 201.558594 C 90.988281 200.007812 90.792969 198.453125 90.636719 196.890625 C 90.480469 195.332031 90.363281 193.765625 90.285156 192.203125 C 90.207031 190.636719 90.167969 189.066406 90.167969 187.5 C 90.167969 185.933594 90.207031 184.363281 90.285156 182.796875 C 90.363281 181.230469 90.480469 179.667969 90.636719 178.109375 C 90.792969 176.546875 90.988281 174.992188 91.222656 173.441406 C 91.457031 171.890625 91.730469 170.34375 92.039062 168.808594 C 92.351562 167.269531 92.699219 165.738281 93.085938 164.21875 C 93.472656 162.699219 93.898438 161.1875 94.359375 159.6875 C 94.824219 158.1875 95.324219 156.699219 95.859375 155.222656 C 96.394531 153.746094 96.96875 152.28125 97.578125 150.832031 C 98.1875 149.382812 98.832031 147.953125 99.515625 146.535156 C 100.195312 145.117188 100.910156 143.714844 101.660156 142.332031 C 102.414062 140.949219 103.199219 139.585938 104.015625 138.242188 C 104.835938 136.894531 105.6875 135.570312 106.574219 134.269531 C 107.457031 132.964844 108.375 131.683594 109.324219 130.421875 C 110.273438 129.164062 111.25 127.929688 112.261719 126.714844 C 113.273438 125.503906 114.3125 124.316406 115.382812 123.15625 C 116.453125 121.992188 117.550781 120.859375 118.675781 119.75 C 119.804688 118.640625 120.957031 117.558594 122.136719 116.507812 C 123.316406 115.453125 124.523438 114.429688 125.753906 113.433594 C 126.984375 112.441406 128.242188 111.476562 129.519531 110.539062 C 130.800781 109.605469 132.101562 108.703125 133.425781 107.832031 C 134.75 106.960938 136.097656 106.125 137.460938 105.316406 C 138.828125 104.511719 140.214844 103.738281 141.617188 103 C 143.023438 102.261719 144.445312 101.554688 145.886719 100.882812 C 147.324219 100.214844 148.78125 99.578125 150.253906 98.980469 C 151.726562 98.378906 153.210938 97.816406 154.710938 97.285156 C 156.210938 96.757812 157.722656 96.265625 159.246094 95.8125 C 160.769531 95.355469 162.304688 94.9375 163.851562 94.558594 C 165.394531 94.175781 166.949219 93.832031 168.511719 93.527344 C 170.074219 93.21875 171.644531 92.953125 173.21875 92.722656 C 174.792969 92.492188 176.375 92.300781 177.960938 92.148438 C 179.546875 91.992188 181.132812 91.878906 182.722656 91.800781 C 184.316406 91.722656 185.90625 91.683594 187.5 91.683594 C 189.09375 91.683594 190.683594 91.722656 192.277344 91.800781 C 193.867188 91.878906 195.453125 91.992188 197.039062 92.148438 C 198.625 92.300781 200.207031 92.492188 201.78125 92.722656 C 203.355469 92.953125 204.925781 93.21875 206.488281 93.527344 C 208.050781 93.832031 209.605469 94.175781 211.148438 94.558594 C 212.695312 94.9375 214.230469 95.355469 215.753906 95.8125 C 217.277344 96.265625 218.789062 96.757812 220.289062 97.285156 C 221.789062 97.816406 223.273438 98.378906 224.746094 98.980469 C 226.21875 99.578125 227.675781 100.214844 229.113281 100.882812 C 230.554688 101.554688 231.976562 102.261719 233.382812 103 C 234.785156 103.738281 236.171875 104.511719 237.539062 105.316406 C 238.902344 106.125 240.25 106.960938 241.574219 107.832031 C 242.898438 108.703125 244.199219 109.605469 245.480469 110.539062 C 246.757812 111.476562 248.015625 112.441406 249.246094 113.433594 C 250.476562 114.429688 251.683594 115.453125 252.863281 116.507812 C 254.042969 117.558594 255.195312 118.640625 256.324219 119.75 C 257.449219 120.859375 258.546875 121.992188 259.617188 123.15625 C 260.6875 124.316406 261.726562 125.503906 262.738281 126.714844 C 263.75 127.929688 264.726562 129.164062 265.675781 130.421875 C 266.625 131.683594 267.542969 132.964844 268.425781 134.269531 C 269.3125 135.570312 270.164062 136.894531 270.984375 138.242188 C 271.800781 139.585938 272.585938 140.949219 273.339844 142.332031 C 274.089844 143.714844 274.804688 145.117188 275.484375 146.535156 C 276.167969 147.953125 276.8125 149.382812 277.421875 150.832031 C 278.03125 152.28125 278.605469 153.746094 279.140625 155.222656 C 279.675781 156.699219 280.175781 158.1875 280.640625 159.6875 C 281.101562 161.1875 281.527344 162.699219 281.914062 164.21875 C 282.300781 165.738281 282.648438 167.269531 282.960938 168.808594 C 283.269531 170.34375 283.542969 171.890625 283.777344 173.441406 C 284.011719 174.992188 284.207031 176.546875 284.363281 178.109375 C 284.519531 179.667969 284.636719 181.230469 284.714844 182.796875 C 284.792969 184.363281 284.832031 185.933594 284.832031 187.5 Z M 284.832031 187.5 " fill-opacity="1" fill-rule="nonzero"/><g clip-path="url(#4f8768fd73)"><path fill="#ffde59" d="M 187.5 67.933594 C 184.671875 67.933594 182.445312 65.710938 182.445312 62.878906 L 182.445312 8.101562 C 182.445312 5.269531 184.671875 3.046875 187.5 3.046875 C 190.328125 3.046875 192.554688 5.269531 192.554688 8.101562 L 192.554688 62.878906 C 192.554688 65.609375 190.230469 67.933594 187.5 67.933594 Z M 192.554688 366.898438 L 192.554688 312.121094 C 192.554688 309.289062 190.328125 307.066406 187.5 307.066406 C 184.671875 307.066406 182.445312 309.289062 182.445312 312.121094 L 182.445312 366.898438 C 182.445312 369.730469 184.671875 371.953125 187.5 371.953125 C 190.328125 371.953125 192.554688 369.730469 192.554688 366.898438 Z M 65.8125 187.5 C 65.8125 184.671875 63.589844 182.445312 60.757812 182.445312 L 5.167969 182.445312 C 2.339844 182.445312 0.117188 184.671875 0.117188 187.5 C 0.117188 190.328125 2.339844 192.554688 5.167969 192.554688 L 60.757812 192.554688 C 63.589844 192.554688 65.8125 190.328125 65.8125 187.5 Z M 374.882812 187.5 C 374.882812 184.671875 372.660156 182.445312 369.832031 182.445312 L 314.242188 182.445312 C 311.410156 182.445312 309.1875 184.671875 309.1875 187.5 C 309.1875 190.328125 311.410156 192.554688 314.242188 192.554688 L 369.832031 192.554688 C 372.660156 192.554688 374.882812 190.328125 374.882812 187.5 Z M 101.488281 102.902344 C 103.410156 100.882812 103.410156 97.75 101.386719 95.726562 L 62.070312 57.019531 C 60.050781 55.097656 56.917969 55.097656 54.894531 57.121094 C 52.976562 59.140625 52.976562 62.273438 54.996094 64.296875 L 94.3125 103.003906 C 95.324219 104.015625 96.535156 104.421875 97.851562 104.421875 C 99.164062 104.421875 100.480469 103.914062 101.488281 102.902344 Z M 320.003906 317.980469 C 321.921875 315.960938 321.921875 312.828125 319.902344 310.804688 L 280.585938 272.097656 C 278.5625 270.175781 275.429688 270.175781 273.410156 272.195312 C 271.488281 274.21875 271.488281 277.351562 273.511719 279.371094 L 312.828125 318.082031 C 313.835938 319.09375 315.050781 319.496094 316.363281 319.496094 C 317.679688 319.496094 318.992188 318.992188 320.003906 317.980469 Z M 62.070312 317.980469 L 101.386719 279.273438 C 103.410156 277.351562 103.410156 274.117188 101.488281 272.097656 C 99.570312 270.074219 96.335938 270.074219 94.3125 271.996094 L 54.996094 310.804688 C 52.976562 312.726562 52.976562 315.960938 54.894531 317.980469 C 55.90625 318.992188 57.21875 319.496094 58.535156 319.496094 C 59.847656 319.496094 61.0625 318.992188 62.070312 317.980469 Z M 280.585938 103.003906 L 319.902344 64.296875 C 321.921875 62.375 321.921875 59.140625 320.003906 57.121094 C 318.082031 55.097656 314.847656 55.097656 312.828125 57.019531 L 273.511719 95.726562 C 271.488281 97.648438 271.488281 100.882812 273.410156 102.902344 C 274.421875 103.914062 275.734375 104.421875 277.046875 104.421875 C 278.363281 104.421875 279.675781 103.914062 280.585938 103.003906 Z M 140.804688 76.726562 C 143.332031 75.617188 144.546875 72.683594 143.535156 70.15625 L 133.628906 46.609375 C 132.519531 44.082031 129.585938 42.867188 126.957031 43.878906 C 124.433594 44.992188 123.21875 47.921875 124.230469 50.449219 L 134.136719 74 C 134.945312 75.917969 136.863281 77.132812 138.785156 77.132812 C 139.59375 77.132812 140.199219 77.03125 140.804688 76.726562 Z M 247.941406 331.222656 C 250.464844 330.109375 251.679688 327.179688 250.667969 324.652344 L 240.765625 301.101562 C 239.652344 298.574219 236.722656 297.363281 234.09375 298.375 C 231.566406 299.484375 230.355469 302.417969 231.363281 304.945312 L 241.269531 328.492188 C 242.078125 330.414062 244 331.625 245.917969 331.625 C 246.625 331.625 247.332031 331.425781 247.941406 331.222656 Z M 48.125 249.757812 L 72.078125 239.957031 C 74.707031 238.945312 75.917969 235.914062 74.808594 233.386719 C 73.796875 230.757812 70.765625 229.546875 68.238281 230.65625 L 44.285156 240.460938 C 41.65625 241.472656 40.441406 244.503906 41.554688 247.03125 C 42.363281 248.949219 44.285156 250.164062 46.203125 250.164062 C 46.808594 250.164062 47.519531 250.0625 48.125 249.757812 Z M 306.660156 144.445312 L 330.617188 134.640625 C 333.242188 133.628906 334.457031 130.597656 333.34375 128.070312 C 332.332031 125.441406 329.300781 124.230469 326.773438 125.34375 L 302.820312 135.144531 C 300.191406 136.15625 298.980469 139.1875 300.09375 141.714844 C 300.902344 143.636719 302.820312 144.847656 304.742188 144.847656 C 305.449219 144.746094 306.054688 144.644531 306.660156 144.445312 Z M 240.765625 74.097656 L 250.667969 50.550781 C 251.78125 48.023438 250.566406 44.992188 247.941406 43.980469 C 245.3125 42.867188 242.382812 44.082031 241.269531 46.710938 L 231.363281 70.257812 C 230.253906 72.785156 231.464844 75.816406 234.09375 76.828125 C 234.699219 77.132812 235.40625 77.230469 236.011719 77.230469 C 238.035156 77.132812 239.957031 76.019531 240.765625 74.097656 Z M 133.628906 328.492188 L 143.535156 304.945312 C 144.644531 302.417969 143.433594 299.382812 140.804688 298.375 C 138.179688 297.261719 135.246094 298.476562 134.136719 301.101562 L 124.230469 324.652344 C 123.117188 327.179688 124.332031 330.210938 126.957031 331.222656 C 127.566406 331.523438 128.273438 331.625 128.878906 331.625 C 130.902344 331.625 132.820312 330.414062 133.628906 328.492188 Z M 74.90625 141.613281 C 75.917969 138.984375 74.707031 136.054688 72.179688 135.042969 L 48.226562 125.242188 C 45.597656 124.230469 42.667969 125.441406 41.65625 127.96875 C 40.644531 130.597656 41.859375 133.527344 44.382812 134.539062 L 68.339844 144.34375 C 68.945312 144.644531 69.652344 144.746094 70.257812 144.746094 C 72.179688 144.746094 74.097656 143.535156 74.90625 141.613281 Z M 333.445312 247.03125 C 334.457031 244.402344 333.242188 241.472656 330.714844 240.460938 L 306.660156 230.65625 C 304.035156 229.644531 301.101562 230.859375 300.09375 233.386719 C 299.082031 236.015625 300.292969 238.945312 302.820312 239.957031 L 326.773438 249.757812 C 327.382812 250.0625 328.089844 250.164062 328.695312 250.164062 C 330.714844 250.164062 332.636719 248.949219 333.445312 247.03125 Z M 333.445312 247.03125 " fill-opacity="1" fill-rule="nonzero"/></g><g clip-path="url(#f7e3042b48)"><g clip-path="url(#e5a33dda9d)"><path fill="#ffde59" d="M 85.8125 87.167969 L 296.691406 87.167969 L 296.691406 298.046875 L 85.8125 298.046875 Z M 85.8125 87.167969 " fill-opacity="1" fill-rule="nonzero"/></g></g><g clip-path="url(#e5a3157f3f)"><path fill="#000000" d="M 228.269531 129.304688 C 221.789062 126.414062 215.65625 122.921875 209.867188 118.832031 C 204.078125 114.742188 198.742188 110.132812 193.863281 105 C 193.578125 104.714844 193.246094 104.5 192.875 104.34375 C 192.5 104.191406 192.113281 104.113281 191.707031 104.113281 C 191.304688 104.113281 190.914062 104.191406 190.542969 104.34375 C 190.167969 104.5 189.835938 104.714844 189.550781 105 C 184.671875 110.132812 179.335938 114.742188 173.546875 118.832031 C 167.757812 122.921875 161.625 126.414062 155.148438 129.304688 C 144.644531 133.984375 133.671875 136.925781 122.226562 138.128906 C 121.859375 138.167969 121.515625 138.269531 121.1875 138.433594 C 120.859375 138.601562 120.574219 138.820312 120.328125 139.09375 C 120.085938 139.363281 119.894531 139.671875 119.765625 140.011719 C 119.632812 140.351562 119.566406 140.707031 119.566406 141.070312 L 119.566406 197.941406 C 119.539062 201.738281 119.835938 205.511719 120.457031 209.261719 C 121.074219 213.011719 122.011719 216.679688 123.261719 220.269531 C 124.511719 223.859375 126.058594 227.316406 127.902344 230.640625 C 129.746094 233.96875 131.863281 237.113281 134.246094 240.082031 L 134.496094 240.378906 C 140.398438 247.496094 147.371094 253.351562 155.414062 257.949219 C 159.039062 259.949219 162.808594 261.632812 166.71875 263 C 171.292969 264.683594 175.503906 267.015625 179.351562 269.996094 C 183.199219 272.976562 186.503906 276.46875 189.265625 280.46875 C 189.402344 280.667969 189.5625 280.847656 189.742188 281.003906 C 189.921875 281.164062 190.117188 281.300781 190.332031 281.414062 C 190.546875 281.523438 190.769531 281.609375 191.003906 281.667969 C 191.238281 281.722656 191.476562 281.753906 191.714844 281.753906 C 191.957031 281.753906 192.195312 281.722656 192.429688 281.667969 C 192.664062 281.609375 192.886719 281.523438 193.101562 281.414062 C 193.316406 281.300781 193.511719 281.164062 193.691406 281.003906 C 193.871094 280.847656 194.03125 280.667969 194.167969 280.46875 C 196.929688 276.46875 200.230469 272.976562 204.082031 269.996094 C 207.929688 267.011719 212.140625 264.679688 216.714844 263 C 220.617188 261.636719 224.378906 259.957031 227.996094 257.964844 C 236.050781 253.367188 243.035156 247.5 248.941406 240.367188 L 249.199219 240.058594 C 251.578125 237.09375 253.691406 233.945312 255.53125 230.621094 C 257.375 227.296875 258.917969 223.839844 260.164062 220.253906 C 261.414062 216.667969 262.347656 213 262.964844 209.253906 C 263.582031 205.507812 263.878906 201.738281 263.847656 197.941406 L 263.847656 141.089844 C 263.847656 140.722656 263.78125 140.371094 263.652344 140.027344 C 263.519531 139.6875 263.332031 139.382812 263.085938 139.109375 C 262.839844 138.839844 262.554688 138.621094 262.226562 138.453125 C 261.902344 138.285156 261.554688 138.183594 261.191406 138.144531 C 249.742188 136.9375 238.769531 133.992188 228.269531 129.304688 Z M 257.898438 197.941406 C 257.929688 201.394531 257.664062 204.828125 257.101562 208.238281 C 256.542969 211.648438 255.695312 214.984375 254.5625 218.25 C 253.429688 221.519531 252.027344 224.664062 250.355469 227.691406 C 248.683594 230.71875 246.761719 233.585938 244.597656 236.285156 L 244.328125 236.617188 C 238.878906 243.1875 232.445312 248.589844 225.023438 252.828125 C 221.691406 254.65625 218.230469 256.203125 214.640625 257.460938 C 210.148438 259.109375 205.953125 261.320312 202.0625 264.097656 C 198.167969 266.878906 194.71875 270.121094 191.707031 273.828125 C 188.699219 270.121094 185.246094 266.875 181.355469 264.097656 C 177.460938 261.320312 173.269531 259.105469 168.773438 257.457031 C 165.183594 256.199219 161.722656 254.65625 158.394531 252.824219 C 150.976562 248.589844 144.546875 243.195312 139.101562 236.632812 L 138.835938 236.308594 C 136.671875 233.605469 134.75 230.742188 133.074219 227.710938 C 131.398438 224.683594 129.992188 221.535156 128.859375 218.265625 C 127.722656 214.996094 126.875 211.65625 126.316406 208.246094 C 125.753906 204.832031 125.488281 201.398438 125.515625 197.941406 L 125.515625 143.714844 C 136.648438 142.28125 147.335938 139.277344 157.582031 134.707031 C 163.941406 131.871094 169.988281 128.484375 175.722656 124.550781 C 181.457031 120.613281 186.785156 116.1875 191.707031 111.28125 C 196.628906 116.1875 201.957031 120.613281 207.691406 124.550781 C 213.429688 128.484375 219.476562 131.871094 225.835938 134.707031 C 236.078125 139.277344 246.765625 142.28125 257.898438 143.714844 Z M 257.898438 197.941406 " fill-opacity="1" fill-rule="nonzero"/></g><path fill="#000000" d="M 193.527344 132.574219 C 193.269531 132.371094 192.980469 132.21875 192.667969 132.113281 C 192.359375 132.007812 192.039062 131.953125 191.707031 131.953125 C 191.378906 131.953125 191.058594 132.007812 190.746094 132.113281 C 190.433594 132.21875 190.148438 132.371094 189.886719 132.574219 C 181.773438 138.824219 173.03125 144.039062 163.667969 148.214844 C 156.863281 151.25 149.851562 153.679688 142.625 155.503906 C 142.304688 155.585938 142.003906 155.714844 141.726562 155.894531 C 141.449219 156.074219 141.210938 156.296875 141.007812 156.554688 C 140.804688 156.816406 140.648438 157.101562 140.542969 157.414062 C 140.433594 157.726562 140.378906 158.046875 140.382812 158.375 L 140.382812 197.941406 C 140.347656 200.535156 140.53125 203.113281 140.941406 205.675781 C 141.347656 208.238281 141.96875 210.746094 142.808594 213.203125 C 143.644531 215.660156 144.683594 218.03125 145.929688 220.308594 C 147.171875 222.589844 148.601562 224.75 150.214844 226.785156 L 150.550781 227.195312 C 154.859375 232.382812 159.953125 236.648438 165.828125 239.988281 C 168.4375 241.394531 171.140625 242.585938 173.945312 243.558594 C 179.671875 245.667969 185.019531 248.492188 189.980469 252.027344 C 190.234375 252.210938 190.507812 252.347656 190.804688 252.441406 C 191.101562 252.535156 191.40625 252.582031 191.714844 252.582031 C 192.027344 252.582031 192.328125 252.535156 192.625 252.441406 C 192.921875 252.347656 193.195312 252.210938 193.449219 252.027344 C 198.414062 248.488281 203.761719 245.664062 209.488281 243.554688 C 212.292969 242.585938 214.996094 241.394531 217.605469 239.988281 C 223.425781 236.675781 228.476562 232.453125 232.75 227.3125 L 233.046875 226.945312 C 234.679688 224.898438 236.125 222.730469 237.382812 220.4375 C 238.640625 218.144531 239.695312 215.761719 240.542969 213.292969 C 241.394531 210.820312 242.027344 208.292969 242.441406 205.714844 C 242.859375 203.136719 243.050781 200.539062 243.023438 197.929688 L 243.023438 158.375 C 243.023438 158.046875 242.96875 157.726562 242.863281 157.414062 C 242.753906 157.101562 242.597656 156.816406 242.394531 156.554688 C 242.191406 156.296875 241.953125 156.074219 241.675781 155.894531 C 241.398438 155.714844 241.101562 155.585938 240.78125 155.503906 C 233.554688 153.679688 226.546875 151.25 219.746094 148.214844 C 210.382812 144.039062 201.644531 138.824219 193.527344 132.574219 Z M 237.074219 197.941406 C 237.105469 200.214844 236.941406 202.472656 236.582031 204.714844 C 236.226562 206.960938 235.679688 209.160156 234.945312 211.3125 C 234.210938 213.464844 233.296875 215.539062 232.207031 217.535156 C 231.117188 219.53125 229.863281 221.421875 228.449219 223.207031 L 228.152344 223.5625 C 224.335938 228.144531 219.828125 231.914062 214.632812 234.863281 C 212.3125 236.105469 209.902344 237.15625 207.410156 238.015625 C 201.855469 240.0625 196.621094 242.726562 191.707031 246.019531 C 186.792969 242.730469 181.558594 240.066406 176.003906 238.023438 C 173.519531 237.15625 171.117188 236.101562 168.800781 234.855469 C 163.5625 231.867188 159.019531 228.058594 155.171875 223.425781 L 154.847656 223.03125 C 153.449219 221.257812 152.210938 219.378906 151.132812 217.394531 C 150.054688 215.410156 149.152344 213.351562 148.429688 211.214844 C 147.703125 209.078125 147.167969 206.894531 146.816406 204.664062 C 146.464844 202.4375 146.304688 200.195312 146.339844 197.941406 L 146.339844 160.65625 C 153.109375 158.820312 159.699219 156.472656 166.101562 153.617188 C 175.191406 149.5625 183.726562 144.570312 191.707031 138.636719 C 199.691406 144.570312 208.226562 149.5625 217.316406 153.617188 C 223.71875 156.472656 230.304688 158.820312 237.074219 160.65625 Z M 237.074219 197.941406 " fill-opacity="1" fill-rule="nonzero"/><path fill="#000000" d="M 191.707031 145.914062 C 191.3125 145.914062 190.933594 145.988281 190.570312 146.136719 C 190.203125 146.289062 189.882812 146.503906 189.605469 146.78125 C 189.324219 147.058594 189.109375 147.378906 188.960938 147.742188 C 188.808594 148.101562 188.734375 148.480469 188.734375 148.875 L 188.734375 236.941406 C 188.734375 237.332031 188.808594 237.710938 188.960938 238.074219 C 189.109375 238.433594 189.324219 238.753906 189.605469 239.035156 C 189.882812 239.3125 190.203125 239.523438 190.570312 239.675781 C 190.933594 239.824219 191.3125 239.902344 191.707031 239.902344 C 192.101562 239.902344 192.480469 239.824219 192.847656 239.675781 C 193.210938 239.523438 193.53125 239.3125 193.8125 239.035156 C 194.089844 238.753906 194.304688 238.433594 194.457031 238.074219 C 194.605469 237.710938 194.683594 237.332031 194.683594 236.941406 L 194.683594 148.875 C 194.683594 148.480469 194.605469 148.101562 194.457031 147.742188 C 194.304688 147.378906 194.089844 147.058594 193.8125 146.78125 C 193.53125 146.503906 193.210938 146.289062 192.847656 146.136719 C 192.480469 145.988281 192.101562 145.914062 191.707031 145.914062 Z M 191.707031 145.914062 " fill-opacity="1" fill-rule="nonzero"/></svg>